<?xml version="1.0" encoding="utf-8"?>
<svg xmlns="http://www.w3.org/2000/svg" xmlns:xlink="http://www.w3.org/1999/xlink" width="600" height="400" viewBox="0 0 2400 1600">
<defs>
  <clipPath id="clip490">
    <rect x="0" y="0" width="2400" height="1600"/>
  </clipPath>
</defs>
<path clip-path="url(#clip490)" d="M0 1600 L2400 1600 L2400 0 L0 0  Z" fill="#ffffff" fill-rule="evenodd" fill-opacity="1"/>
<defs>
  <clipPath id="clip491">
    <rect x="480" y="0" width="1681" height="1600"/>
  </clipPath>
</defs>
<defs>
  <clipPath id="clip492">
    <rect x="194" y="47" width="2160" height="1440"/>
  </clipPath>
</defs>
<path clip-path="url(#clip490)" d="M194.098 1486.45 L2352.76 1486.45 L2352.76 47.2441 L194.098 47.2441  Z" fill="#ffffff" fill-rule="evenodd" fill-opacity="1"/>
<polyline clip-path="url(#clip492)" style="stroke:#000000; stroke-linecap:round; stroke-linejoin:round; stroke-width:2; stroke-opacity:0.1; fill:none" points="255.192,1486.45 255.192,47.2441 "/>
<polyline clip-path="url(#clip492)" style="stroke:#000000; stroke-linecap:round; stroke-linejoin:round; stroke-width:2; stroke-opacity:0.1; fill:none" points="764.31,1486.45 764.31,47.2441 "/>
<polyline clip-path="url(#clip492)" style="stroke:#000000; stroke-linecap:round; stroke-linejoin:round; stroke-width:2; stroke-opacity:0.1; fill:none" points="1273.43,1486.45 1273.43,47.2441 "/>
<polyline clip-path="url(#clip492)" style="stroke:#000000; stroke-linecap:round; stroke-linejoin:round; stroke-width:2; stroke-opacity:0.1; fill:none" points="1782.54,1486.45 1782.54,47.2441 "/>
<polyline clip-path="url(#clip492)" style="stroke:#000000; stroke-linecap:round; stroke-linejoin:round; stroke-width:2; stroke-opacity:0.1; fill:none" points="2291.66,1486.45 2291.66,47.2441 "/>
<polyline clip-path="url(#clip490)" style="stroke:#000000; stroke-linecap:round; stroke-linejoin:round; stroke-width:4; stroke-opacity:1; fill:none" points="194.098,1486.45 2352.76,1486.45 "/>
<polyline clip-path="url(#clip490)" style="stroke:#000000; stroke-linecap:round; stroke-linejoin:round; stroke-width:4; stroke-opacity:1; fill:none" points="255.192,1486.45 255.192,1467.55 "/>
<polyline clip-path="url(#clip490)" style="stroke:#000000; stroke-linecap:round; stroke-linejoin:round; stroke-width:4; stroke-opacity:1; fill:none" points="764.31,1486.45 764.31,1467.55 "/>
<polyline clip-path="url(#clip490)" style="stroke:#000000; stroke-linecap:round; stroke-linejoin:round; stroke-width:4; stroke-opacity:1; fill:none" points="1273.43,1486.45 1273.43,1467.55 "/>
<polyline clip-path="url(#clip490)" style="stroke:#000000; stroke-linecap:round; stroke-linejoin:round; stroke-width:4; stroke-opacity:1; fill:none" points="1782.54,1486.45 1782.54,1467.55 "/>
<polyline clip-path="url(#clip490)" style="stroke:#000000; stroke-linecap:round; stroke-linejoin:round; stroke-width:4; stroke-opacity:1; fill:none" points="2291.66,1486.45 2291.66,1467.55 "/>
<path clip-path="url(#clip490)" d="M255.192 1517.37 Q251.581 1517.37 249.752 1520.93 Q247.947 1524.47 247.947 1531.6 Q247.947 1538.71 249.752 1542.27 Q251.581 1545.82 255.192 1545.82 Q258.826 1545.82 260.632 1542.27 Q262.461 1538.71 262.461 1531.6 Q262.461 1524.47 260.632 1520.93 Q258.826 1517.37 255.192 1517.37 M255.192 1513.66 Q261.002 1513.66 264.058 1518.27 Q267.137 1522.85 267.137 1531.6 Q267.137 1540.33 264.058 1544.94 Q261.002 1549.52 255.192 1549.52 Q249.382 1549.52 246.303 1544.94 Q243.248 1540.33 243.248 1531.6 Q243.248 1522.85 246.303 1518.27 Q249.382 1513.66 255.192 1513.66 Z" fill="#000000" fill-rule="evenodd" fill-opacity="1" /><path clip-path="url(#clip490)" d="M754.587 1514.29 L772.944 1514.29 L772.944 1518.22 L758.87 1518.22 L758.87 1526.7 Q759.888 1526.35 760.907 1526.19 Q761.925 1526 762.944 1526 Q768.731 1526 772.11 1529.17 Q775.49 1532.34 775.49 1537.76 Q775.49 1543.34 772.018 1546.44 Q768.546 1549.52 762.226 1549.52 Q760.05 1549.52 757.782 1549.15 Q755.536 1548.78 753.129 1548.04 L753.129 1543.34 Q755.212 1544.47 757.435 1545.03 Q759.657 1545.58 762.134 1545.58 Q766.138 1545.58 768.476 1543.48 Q770.814 1541.37 770.814 1537.76 Q770.814 1534.15 768.476 1532.04 Q766.138 1529.94 762.134 1529.94 Q760.259 1529.94 758.384 1530.35 Q756.532 1530.77 754.587 1531.65 L754.587 1514.29 Z" fill="#000000" fill-rule="evenodd" fill-opacity="1" /><path clip-path="url(#clip490)" d="M1248.11 1544.91 L1255.75 1544.91 L1255.75 1518.55 L1247.44 1520.21 L1247.44 1515.95 L1255.71 1514.29 L1260.38 1514.29 L1260.38 1544.91 L1268.02 1544.91 L1268.02 1548.85 L1248.11 1548.85 L1248.11 1544.91 Z" fill="#000000" fill-rule="evenodd" fill-opacity="1" /><path clip-path="url(#clip490)" d="M1287.47 1517.37 Q1283.86 1517.37 1282.03 1520.93 Q1280.22 1524.47 1280.22 1531.6 Q1280.22 1538.71 1282.03 1542.27 Q1283.86 1545.82 1287.47 1545.82 Q1291.1 1545.82 1292.91 1542.27 Q1294.73 1538.71 1294.73 1531.6 Q1294.73 1524.47 1292.91 1520.93 Q1291.1 1517.37 1287.47 1517.37 M1287.47 1513.66 Q1293.28 1513.66 1296.33 1518.27 Q1299.41 1522.85 1299.41 1531.6 Q1299.41 1540.33 1296.33 1544.94 Q1293.28 1549.52 1287.47 1549.52 Q1281.66 1549.52 1278.58 1544.94 Q1275.52 1540.33 1275.52 1531.6 Q1275.52 1522.85 1278.58 1518.27 Q1281.66 1513.66 1287.47 1513.66 Z" fill="#000000" fill-rule="evenodd" fill-opacity="1" /><path clip-path="url(#clip490)" d="M1757.73 1544.91 L1765.37 1544.91 L1765.37 1518.55 L1757.06 1520.21 L1757.06 1515.95 L1765.32 1514.29 L1770 1514.29 L1770 1544.91 L1777.64 1544.91 L1777.64 1548.85 L1757.73 1548.85 L1757.73 1544.91 Z" fill="#000000" fill-rule="evenodd" fill-opacity="1" /><path clip-path="url(#clip490)" d="M1787.13 1514.29 L1805.48 1514.29 L1805.48 1518.22 L1791.41 1518.22 L1791.41 1526.7 Q1792.43 1526.35 1793.45 1526.19 Q1794.47 1526 1795.48 1526 Q1801.27 1526 1804.65 1529.17 Q1808.03 1532.34 1808.03 1537.76 Q1808.03 1543.34 1804.56 1546.44 Q1801.09 1549.52 1794.77 1549.52 Q1792.59 1549.52 1790.32 1549.15 Q1788.08 1548.78 1785.67 1548.04 L1785.67 1543.34 Q1787.75 1544.47 1789.97 1545.03 Q1792.2 1545.58 1794.67 1545.58 Q1798.68 1545.58 1801.02 1543.48 Q1803.35 1541.37 1803.35 1537.76 Q1803.35 1534.15 1801.02 1532.04 Q1798.68 1529.94 1794.67 1529.94 Q1792.8 1529.94 1790.92 1530.35 Q1789.07 1530.77 1787.13 1531.65 L1787.13 1514.29 Z" fill="#000000" fill-rule="evenodd" fill-opacity="1" /><path clip-path="url(#clip490)" d="M2270.44 1544.91 L2286.75 1544.91 L2286.75 1548.85 L2264.81 1548.85 L2264.81 1544.91 Q2267.47 1542.16 2272.06 1537.53 Q2276.66 1532.88 2277.84 1531.53 Q2280.09 1529.01 2280.97 1527.27 Q2281.87 1525.51 2281.87 1523.82 Q2281.87 1521.07 2279.93 1519.33 Q2278 1517.6 2274.9 1517.6 Q2272.7 1517.6 2270.25 1518.36 Q2267.82 1519.13 2265.04 1520.68 L2265.04 1515.95 Q2267.87 1514.82 2270.32 1514.24 Q2272.77 1513.66 2274.81 1513.66 Q2280.18 1513.66 2283.37 1516.35 Q2286.57 1519.03 2286.57 1523.52 Q2286.57 1525.65 2285.76 1527.57 Q2284.97 1529.47 2282.87 1532.07 Q2282.29 1532.74 2279.19 1535.95 Q2276.08 1539.15 2270.44 1544.91 Z" fill="#000000" fill-rule="evenodd" fill-opacity="1" /><path clip-path="url(#clip490)" d="M2306.57 1517.37 Q2302.96 1517.37 2301.13 1520.93 Q2299.32 1524.47 2299.32 1531.6 Q2299.32 1538.71 2301.13 1542.27 Q2302.96 1545.82 2306.57 1545.82 Q2310.2 1545.82 2312.01 1542.27 Q2313.84 1538.71 2313.84 1531.6 Q2313.84 1524.47 2312.01 1520.93 Q2310.2 1517.37 2306.57 1517.37 M2306.57 1513.66 Q2312.38 1513.66 2315.43 1518.27 Q2318.51 1522.85 2318.51 1531.6 Q2318.51 1540.33 2315.43 1544.94 Q2312.38 1549.52 2306.57 1549.52 Q2300.76 1549.52 2297.68 1544.94 Q2294.62 1540.33 2294.62 1531.6 Q2294.62 1522.85 2297.68 1518.27 Q2300.76 1513.66 2306.57 1513.66 Z" fill="#000000" fill-rule="evenodd" fill-opacity="1" /><polyline clip-path="url(#clip492)" style="stroke:#000000; stroke-linecap:round; stroke-linejoin:round; stroke-width:2; stroke-opacity:0.1; fill:none" points="194.098,1249.89 2352.76,1249.89 "/>
<polyline clip-path="url(#clip492)" style="stroke:#000000; stroke-linecap:round; stroke-linejoin:round; stroke-width:2; stroke-opacity:0.1; fill:none" points="194.098,933.006 2352.76,933.006 "/>
<polyline clip-path="url(#clip492)" style="stroke:#000000; stroke-linecap:round; stroke-linejoin:round; stroke-width:2; stroke-opacity:0.1; fill:none" points="194.098,616.127 2352.76,616.127 "/>
<polyline clip-path="url(#clip492)" style="stroke:#000000; stroke-linecap:round; stroke-linejoin:round; stroke-width:2; stroke-opacity:0.1; fill:none" points="194.098,299.247 2352.76,299.247 "/>
<polyline clip-path="url(#clip490)" style="stroke:#000000; stroke-linecap:round; stroke-linejoin:round; stroke-width:4; stroke-opacity:1; fill:none" points="194.098,1486.45 194.098,47.2441 "/>
<polyline clip-path="url(#clip490)" style="stroke:#000000; stroke-linecap:round; stroke-linejoin:round; stroke-width:4; stroke-opacity:1; fill:none" points="194.098,1249.89 212.996,1249.89 "/>
<polyline clip-path="url(#clip490)" style="stroke:#000000; stroke-linecap:round; stroke-linejoin:round; stroke-width:4; stroke-opacity:1; fill:none" points="194.098,933.006 212.996,933.006 "/>
<polyline clip-path="url(#clip490)" style="stroke:#000000; stroke-linecap:round; stroke-linejoin:round; stroke-width:4; stroke-opacity:1; fill:none" points="194.098,616.127 212.996,616.127 "/>
<polyline clip-path="url(#clip490)" style="stroke:#000000; stroke-linecap:round; stroke-linejoin:round; stroke-width:4; stroke-opacity:1; fill:none" points="194.098,299.247 212.996,299.247 "/>
<path clip-path="url(#clip490)" d="M50.9921 1250.34 L80.6679 1250.34 L80.6679 1254.27 L50.9921 1254.27 L50.9921 1250.34 Z" fill="#000000" fill-rule="evenodd" fill-opacity="1" /><path clip-path="url(#clip490)" d="M100.76 1235.68 Q97.1493 1235.68 95.3206 1239.25 Q93.515 1242.79 93.515 1249.92 Q93.515 1257.03 95.3206 1260.59 Q97.1493 1264.13 100.76 1264.13 Q104.395 1264.13 106.2 1260.59 Q108.029 1257.03 108.029 1249.92 Q108.029 1242.79 106.2 1239.25 Q104.395 1235.68 100.76 1235.68 M100.76 1231.98 Q106.571 1231.98 109.626 1236.59 Q112.705 1241.17 112.705 1249.92 Q112.705 1258.65 109.626 1263.25 Q106.571 1267.84 100.76 1267.84 Q94.9502 1267.84 91.8715 1263.25 Q88.816 1258.65 88.816 1249.92 Q88.816 1241.17 91.8715 1236.59 Q94.9502 1231.98 100.76 1231.98 Z" fill="#000000" fill-rule="evenodd" fill-opacity="1" /><path clip-path="url(#clip490)" d="M120.922 1261.29 L125.807 1261.29 L125.807 1267.17 L120.922 1267.17 L120.922 1261.29 Z" fill="#000000" fill-rule="evenodd" fill-opacity="1" /><path clip-path="url(#clip490)" d="M146.57 1248.02 Q143.422 1248.02 141.57 1250.18 Q139.742 1252.33 139.742 1256.08 Q139.742 1259.8 141.57 1261.98 Q143.422 1264.13 146.57 1264.13 Q149.718 1264.13 151.547 1261.98 Q153.399 1259.8 153.399 1256.08 Q153.399 1252.33 151.547 1250.18 Q149.718 1248.02 146.57 1248.02 M155.853 1233.37 L155.853 1237.63 Q154.093 1236.8 152.288 1236.36 Q150.505 1235.92 148.746 1235.92 Q144.117 1235.92 141.663 1239.04 Q139.232 1242.17 138.885 1248.49 Q140.251 1246.47 142.311 1245.41 Q144.371 1244.32 146.848 1244.32 Q152.056 1244.32 155.066 1247.49 Q158.098 1250.64 158.098 1256.08 Q158.098 1261.4 154.95 1264.62 Q151.802 1267.84 146.57 1267.84 Q140.575 1267.84 137.404 1263.25 Q134.232 1258.65 134.232 1249.92 Q134.232 1241.73 138.121 1236.87 Q142.01 1231.98 148.561 1231.98 Q150.32 1231.98 152.103 1232.33 Q153.908 1232.68 155.853 1233.37 Z" fill="#000000" fill-rule="evenodd" fill-opacity="1" /><path clip-path="url(#clip490)" d="M51.8023 933.458 L81.4781 933.458 L81.4781 937.393 L51.8023 937.393 L51.8023 933.458 Z" fill="#000000" fill-rule="evenodd" fill-opacity="1" /><path clip-path="url(#clip490)" d="M101.571 918.805 Q97.9595 918.805 96.1308 922.37 Q94.3252 925.911 94.3252 933.041 Q94.3252 940.147 96.1308 943.712 Q97.9595 947.254 101.571 947.254 Q105.205 947.254 107.01 943.712 Q108.839 940.147 108.839 933.041 Q108.839 925.911 107.01 922.37 Q105.205 918.805 101.571 918.805 M101.571 915.101 Q107.381 915.101 110.436 919.708 Q113.515 924.291 113.515 933.041 Q113.515 941.768 110.436 946.374 Q107.381 950.958 101.571 950.958 Q95.7604 950.958 92.6817 946.374 Q89.6262 941.768 89.6262 933.041 Q89.6262 924.291 92.6817 919.708 Q95.7604 915.101 101.571 915.101 Z" fill="#000000" fill-rule="evenodd" fill-opacity="1" /><path clip-path="url(#clip490)" d="M121.732 944.407 L126.617 944.407 L126.617 950.286 L121.732 950.286 L121.732 944.407 Z" fill="#000000" fill-rule="evenodd" fill-opacity="1" /><path clip-path="url(#clip490)" d="M150.968 931.652 Q154.325 932.37 156.2 934.638 Q158.098 936.907 158.098 940.24 Q158.098 945.356 154.58 948.157 Q151.061 950.958 144.58 950.958 Q142.404 950.958 140.089 950.518 Q137.797 950.101 135.344 949.245 L135.344 944.731 Q137.288 945.865 139.603 946.444 Q141.918 947.022 144.441 947.022 Q148.839 947.022 151.13 945.286 Q153.445 943.55 153.445 940.24 Q153.445 937.185 151.293 935.472 Q149.163 933.735 145.343 933.735 L141.316 933.735 L141.316 929.893 L145.529 929.893 Q148.978 929.893 150.806 928.527 Q152.635 927.138 152.635 924.546 Q152.635 921.884 150.737 920.472 Q148.862 919.036 145.343 919.036 Q143.422 919.036 141.223 919.453 Q139.024 919.87 136.385 920.749 L136.385 916.583 Q139.047 915.842 141.362 915.472 Q143.7 915.101 145.76 915.101 Q151.084 915.101 154.186 917.532 Q157.288 919.939 157.288 924.06 Q157.288 926.93 155.644 928.921 Q154.001 930.888 150.968 931.652 Z" fill="#000000" fill-rule="evenodd" fill-opacity="1" /><path clip-path="url(#clip490)" d="M100.922 601.925 Q97.3113 601.925 95.4826 605.49 Q93.6771 609.032 93.6771 616.161 Q93.6771 623.268 95.4826 626.833 Q97.3113 630.374 100.922 630.374 Q104.557 630.374 106.362 626.833 Q108.191 623.268 108.191 616.161 Q108.191 609.032 106.362 605.49 Q104.557 601.925 100.922 601.925 M100.922 598.222 Q106.733 598.222 109.788 602.828 Q112.867 607.411 112.867 616.161 Q112.867 624.888 109.788 629.495 Q106.733 634.078 100.922 634.078 Q95.1123 634.078 92.0336 629.495 Q88.978 624.888 88.978 616.161 Q88.978 607.411 92.0336 602.828 Q95.1123 598.222 100.922 598.222 Z" fill="#000000" fill-rule="evenodd" fill-opacity="1" /><path clip-path="url(#clip490)" d="M121.084 627.527 L125.969 627.527 L125.969 633.407 L121.084 633.407 L121.084 627.527 Z" fill="#000000" fill-rule="evenodd" fill-opacity="1" /><path clip-path="url(#clip490)" d="M146.154 601.925 Q142.543 601.925 140.714 605.49 Q138.908 609.032 138.908 616.161 Q138.908 623.268 140.714 626.833 Q142.543 630.374 146.154 630.374 Q149.788 630.374 151.593 626.833 Q153.422 623.268 153.422 616.161 Q153.422 609.032 151.593 605.49 Q149.788 601.925 146.154 601.925 M146.154 598.222 Q151.964 598.222 155.019 602.828 Q158.098 607.411 158.098 616.161 Q158.098 624.888 155.019 629.495 Q151.964 634.078 146.154 634.078 Q140.343 634.078 137.265 629.495 Q134.209 624.888 134.209 616.161 Q134.209 607.411 137.265 602.828 Q140.343 598.222 146.154 598.222 Z" fill="#000000" fill-rule="evenodd" fill-opacity="1" /><path clip-path="url(#clip490)" d="M101.571 285.046 Q97.9595 285.046 96.1308 288.61 Q94.3252 292.152 94.3252 299.282 Q94.3252 306.388 96.1308 309.953 Q97.9595 313.495 101.571 313.495 Q105.205 313.495 107.01 309.953 Q108.839 306.388 108.839 299.282 Q108.839 292.152 107.01 288.61 Q105.205 285.046 101.571 285.046 M101.571 281.342 Q107.381 281.342 110.436 285.948 Q113.515 290.532 113.515 299.282 Q113.515 308.008 110.436 312.615 Q107.381 317.198 101.571 317.198 Q95.7604 317.198 92.6817 312.615 Q89.6262 308.008 89.6262 299.282 Q89.6262 290.532 92.6817 285.948 Q95.7604 281.342 101.571 281.342 Z" fill="#000000" fill-rule="evenodd" fill-opacity="1" /><path clip-path="url(#clip490)" d="M121.732 310.647 L126.617 310.647 L126.617 316.527 L121.732 316.527 L121.732 310.647 Z" fill="#000000" fill-rule="evenodd" fill-opacity="1" /><path clip-path="url(#clip490)" d="M150.968 297.893 Q154.325 298.61 156.2 300.879 Q158.098 303.147 158.098 306.481 Q158.098 311.596 154.58 314.397 Q151.061 317.198 144.58 317.198 Q142.404 317.198 140.089 316.758 Q137.797 316.342 135.344 315.485 L135.344 310.971 Q137.288 312.106 139.603 312.684 Q141.918 313.263 144.441 313.263 Q148.839 313.263 151.13 311.527 Q153.445 309.791 153.445 306.481 Q153.445 303.425 151.293 301.712 Q149.163 299.976 145.343 299.976 L141.316 299.976 L141.316 296.134 L145.529 296.134 Q148.978 296.134 150.806 294.768 Q152.635 293.379 152.635 290.786 Q152.635 288.124 150.737 286.712 Q148.862 285.277 145.343 285.277 Q143.422 285.277 141.223 285.694 Q139.024 286.11 136.385 286.99 L136.385 282.823 Q139.047 282.083 141.362 281.712 Q143.7 281.342 145.76 281.342 Q151.084 281.342 154.186 283.772 Q157.288 286.18 157.288 290.3 Q157.288 293.171 155.644 295.161 Q154.001 297.129 150.968 297.893 Z" fill="#000000" fill-rule="evenodd" fill-opacity="1" /><polyline clip-path="url(#clip492)" style="stroke:#009af9; stroke-linecap:round; stroke-linejoin:round; stroke-width:8; stroke-opacity:1; fill:none" points="255.192,1073.5 257.229,1089.57 259.265,1104.59 261.302,1118.61 263.338,1131.65 265.374,1143.73 267.411,1154.88 269.447,1165.11 271.484,1174.46 273.52,1182.94 275.557,1190.57 277.593,1197.37 279.63,1203.35 281.666,1208.54 283.703,1212.96 285.739,1216.61 287.776,1219.52 289.812,1221.71 291.849,1223.19 293.885,1223.98 295.922,1224.1 297.958,1223.57 299.994,1222.41 302.031,1220.63 304.067,1218.26 306.104,1215.32 308.14,1211.83 310.177,1207.81 312.213,1203.29 314.25,1198.28 316.286,1192.81 318.323,1186.91 320.359,1180.59 322.396,1173.89 324.432,1166.83 326.469,1159.44 328.505,1151.74 330.542,1143.76 332.578,1135.52 334.614,1127.06 336.651,1118.41 338.687,1109.58 340.724,1100.61 342.76,1091.52 344.797,1082.35 346.833,1073.12 348.87,1063.86 350.906,1054.59 352.943,1045.34 354.979,1036.15 357.016,1027.02 359.052,1018 361.089,1009.1 363.125,1000.34 365.161,991.758 367.198,983.365 369.234,975.185 371.271,967.237 373.307,959.54 375.344,952.112 377.38,944.97 379.417,938.129 381.453,931.602 383.49,925.403 385.526,919.543 387.563,914.032 389.599,908.878 391.636,904.087 393.672,899.664 395.709,895.614 397.745,891.937 399.781,888.632 401.818,885.698 403.854,883.131 405.891,880.924 407.927,879.07 409.964,877.559 412,876.379 414.037,875.519 416.073,874.963 418.11,874.695 420.146,874.699 422.183,874.955 424.219,875.443 426.256,876.145 428.292,877.038 430.329,878.103 432.365,879.318 434.401,880.66 436.438,882.108 438.474,883.641 440.511,885.236 442.547,886.876 444.584,888.54 446.62,890.21 448.657,891.868 450.693,893.496 452.73,895.077 454.766,896.597 456.803,898.039 458.839,899.392 460.876,900.645 462.912,901.788 464.949,902.808 466.985,903.697 469.021,904.444 471.058,905.041 473.094,905.479 475.131,905.752 477.167,905.853 479.204,905.777 481.24,905.52 483.277,905.078 485.313,904.444 487.35,903.612 489.386,902.577 491.423,901.334 493.459,899.882 495.496,898.217 497.532,896.339 499.568,894.246 501.605,891.936 503.641,889.41 505.678,886.669 507.714,883.71 509.751,880.535 511.787,877.144 513.824,873.544 515.86,869.74 517.897,865.739 519.933,861.549 521.97,857.179 524.006,852.636 526.043,847.928 528.079,843.068 530.116,838.066 532.152,832.934 534.188,827.684 536.225,822.332 538.261,816.894 540.298,811.384 542.334,805.819 544.371,800.213 546.407,794.581 548.444,788.935 550.48,783.288 552.517,777.658 554.553,772.061 556.59,766.51 558.626,761.021 560.663,755.61 562.699,750.29 564.736,745.076 566.772,739.979 568.808,735.01 570.845,730.178 572.881,725.491 574.918,720.959 576.954,716.594 578.991,712.407 581.027,708.41 583.064,704.61 585.1,701.017 587.137,697.637 589.173,694.475 591.21,691.537 593.246,688.827 595.283,686.348 597.319,684.104 599.356,682.094 601.392,680.32 603.428,678.788 605.465,677.501 607.501,676.458 609.538,675.657 611.574,675.093 613.611,674.76 615.647,674.65 617.684,674.756 619.72,675.069 621.757,675.582 623.793,676.288 625.83,677.175 627.866,678.23 629.903,679.444 631.939,680.807 633.975,682.305 636.012,683.924 638.048,685.648 640.085,687.463 642.121,689.352 644.158,691.301 646.194,693.296 648.231,695.327 650.267,697.382 652.304,699.451 654.34,701.518 656.377,703.571 658.413,705.599 660.45,707.588 662.486,709.528 664.523,711.406 666.559,713.213 668.595,714.938 670.632,716.575 672.668,718.116 674.705,719.556 676.741,720.893 678.778,722.125 680.814,723.243 682.851,724.238 684.887,725.1 686.924,725.824 688.96,726.403 690.997,726.832 693.033,727.108 695.07,727.229 697.106,727.193 699.143,726.998 701.179,726.643 703.215,726.127 705.252,725.449 707.288,724.612 709.325,723.616 711.361,722.456 713.398,721.128 715.434,719.634 717.471,717.976 719.507,716.159 721.544,714.189 723.58,712.074 725.617,709.823 727.653,707.442 729.69,704.941 731.726,702.326 733.763,699.604 735.799,696.78 737.835,693.869 739.872,690.878 741.908,687.817 743.945,684.697 745.981,681.529 748.018,678.325 750.054,675.099 752.091,671.863 754.127,668.628 756.164,665.405 758.2,662.202 760.237,659.027 762.273,655.885 764.31,652.782 766.346,649.731 768.382,646.743 770.419,643.827 772.455,640.994 774.492,638.252 776.528,635.61 778.565,633.075 780.601,630.655 782.638,628.354 784.674,626.177 786.711,624.128 788.747,622.209 790.784,620.421 792.82,618.764 794.857,617.243 796.893,615.866 798.93,614.641 800.966,613.574 803.002,612.668 805.039,611.923 807.075,611.341 809.112,610.919 811.148,610.655 813.185,610.546 815.221,610.59 817.258,610.784 819.294,611.126 821.331,611.615 823.367,612.239 825.404,612.997 827.44,613.886 829.477,614.904 831.513,616.046 833.55,617.303 835.586,618.665 837.622,620.122 839.659,621.663 841.695,623.277 843.732,624.952 845.768,626.68 847.805,628.45 849.841,630.258 851.878,632.099 853.914,633.963 855.951,635.837 857.987,637.714 860.024,639.583 862.06,641.436 864.097,643.263 866.133,645.054 868.17,646.801 870.206,648.496 872.242,650.133 874.279,651.705 876.315,653.21 878.352,654.645 880.388,656.01 882.425,657.305 884.461,658.522 886.498,659.651 888.534,660.685 890.571,661.617 892.607,662.441 894.644,663.155 896.68,663.754 898.717,664.237 900.753,664.605 902.789,664.855 904.826,664.989 906.862,665.006 908.899,664.907 910.935,664.69 912.972,664.358 915.008,663.915 917.045,663.357 919.081,662.679 921.118,661.879 923.154,660.958 925.191,659.921 927.227,658.772 929.264,657.518 931.3,656.167 933.337,654.726 935.373,653.204 937.409,651.608 939.446,649.942 941.482,648.211 943.519,646.416 945.555,644.569 947.592,642.678 949.628,640.749 951.665,638.789 953.701,636.807 955.738,634.81 957.774,632.81 959.811,630.815 961.847,628.833 963.884,626.873 965.92,624.941 967.957,623.042 969.993,621.178 972.029,619.351 974.066,617.56 976.102,615.814 978.139,614.121 980.175,612.489 982.212,610.926 984.248,609.439 986.285,608.033 988.321,606.713 990.358,605.482 992.394,604.343 994.431,603.298 996.467,602.348 998.504,601.493 1000.54,600.735 1002.58,600.071 1004.61,599.504 1006.65,599.028 1008.69,598.648 1010.72,598.372 1012.76,598.204 1014.8,598.149 1016.83,598.207 1018.87,598.375 1020.9,598.651 1022.94,599.031 1024.98,599.509 1027.01,600.08 1029.05,600.74 1031.09,601.484 1033.12,602.31 1035.16,603.215 1037.2,604.199 1039.23,605.248 1041.27,606.361 1043.31,607.535 1045.34,608.767 1047.38,610.048 1049.42,611.373 1051.45,612.731 1053.49,614.115 1055.52,615.516 1057.56,616.926 1059.6,618.338 1061.63,619.746 1063.67,621.148 1065.71,622.542 1067.74,623.929 1069.78,625.304 1071.82,626.656 1073.85,627.979 1075.89,629.266 1077.93,630.51 1079.96,631.706 1082,632.848 1084.04,633.932 1086.07,634.953 1088.11,635.909 1090.14,636.797 1092.18,637.617 1094.22,638.369 1096.25,639.053 1098.29,639.67 1100.33,640.224 1102.36,640.711 1104.4,641.122 1106.44,641.451 1108.47,641.693 1110.51,641.845 1112.55,641.907 1114.58,641.879 1116.62,641.763 1118.66,641.562 1120.69,641.28 1122.73,640.918 1124.76,640.48 1126.8,639.967 1128.84,639.379 1130.87,638.715 1132.91,637.986 1134.95,637.194 1136.98,636.336 1139.02,635.412 1141.06,634.425 1143.09,633.38 1145.13,632.282 1147.17,631.14 1149.2,629.961 1151.24,628.752 1153.28,627.522 1155.31,626.275 1157.35,625.017 1159.38,623.75 1161.42,622.476 1163.46,621.192 1165.49,619.905 1167.53,618.625 1169.57,617.356 1171.6,616.104 1173.64,614.876 1175.68,613.678 1177.71,612.514 1179.75,611.389 1181.79,610.309 1183.82,609.276 1185.86,608.292 1187.9,607.359 1189.93,606.476 1191.97,605.642 1194,604.855 1196.04,604.112 1198.08,603.419 1200.11,602.786 1202.15,602.217 1204.19,601.72 1206.22,601.295 1208.26,600.945 1210.3,600.67 1212.33,600.469 1214.37,600.339 1216.41,600.28 1218.44,600.289 1220.48,600.364 1222.52,600.505 1224.55,600.711 1226.59,600.985 1228.62,601.317 1230.66,601.706 1232.7,602.156 1234.73,602.672 1236.77,603.252 1238.81,603.894 1240.84,604.595 1242.88,605.348 1244.92,606.147 1246.95,606.985 1248.99,607.856 1251.03,608.753 1253.06,609.673 1255.1,610.61 1257.14,611.566 1259.17,612.541 1261.21,613.535 1263.24,614.537 1265.28,615.543 1267.32,616.549 1269.35,617.548 1271.39,618.537 1273.43,619.509 1275.46,620.46 1277.5,621.384 1279.54,622.277 1281.57,623.138 1283.61,623.964 1285.65,624.755 1287.68,625.511 1289.72,626.237 1291.76,626.935 1293.79,627.602 1295.83,628.231 1297.86,628.814 1299.9,629.345 1301.94,629.82 1303.97,630.238 1306.01,630.596 1308.05,630.894 1310.08,631.134 1312.12,631.316 1314.16,631.442 1316.19,631.514 1318.23,631.532 1320.27,631.498 1322.3,631.411 1324.34,631.27 1326.38,631.085 1328.41,630.852 1330.45,630.565 1332.48,630.22 1334.52,629.816 1336.56,629.355 1338.59,628.84 1340.63,628.276 1342.67,627.668 1344.7,627.022 1346.74,626.345 1348.78,625.64 1350.81,624.912 1352.85,624.163 1354.89,623.391 1356.92,622.595 1358.96,621.777 1361,620.947 1363.03,620.106 1365.07,619.258 1367.1,618.407 1369.14,617.559 1371.18,616.718 1373.21,615.888 1375.25,615.076 1377.29,614.284 1379.32,613.514 1381.36,612.769 1383.4,612.048 1385.43,611.349 1387.47,610.669 1389.51,610.004 1391.54,609.361 1393.58,608.746 1395.62,608.166 1397.65,607.627 1399.69,607.131 1401.72,606.682 1403.76,606.28 1405.8,605.927 1407.83,605.621 1409.87,605.363 1411.91,605.15 1413.94,604.981 1415.98,604.855 1418.02,604.771 1420.05,604.728 1422.09,604.728 1424.13,604.761 1426.16,604.833 1428.2,604.952 1430.24,605.122 1432.27,605.344 1434.31,605.618 1436.34,605.94 1438.38,606.308 1440.42,606.716 1442.45,607.159 1444.49,607.633 1446.53,608.133 1448.56,608.657 1450.6,609.203 1452.64,609.774 1454.67,610.372 1456.71,610.99 1458.75,611.625 1460.78,612.275 1462.82,612.939 1464.86,613.612 1466.89,614.291 1468.93,614.97 1470.96,615.646 1473,616.312 1475.04,616.967 1477.07,617.607 1479.11,618.231 1481.15,618.838 1483.18,619.432 1485.22,620.015 1487.26,620.593 1489.29,621.16 1491.33,621.708 1493.37,622.233 1495.4,622.728 1497.44,623.19 1499.48,623.616 1501.51,624.004 1503.55,624.354 1505.58,624.665 1507.62,624.938 1509.66,625.174 1511.69,625.374 1513.73,625.54 1515.77,625.673 1517.8,625.775 1519.84,625.846 1521.88,625.891 1523.91,625.908 1525.95,625.889 1527.99,625.827 1530.02,625.72 1532.06,625.569 1534.1,625.374 1536.13,625.139 1538.17,624.868 1540.2,624.564 1542.24,624.232 1544.28,623.876 1546.31,623.498 1548.35,623.099 1550.39,622.678 1552.42,622.231 1554.46,621.762 1556.5,621.277 1558.53,620.775 1560.57,620.256 1562.61,619.723 1564.64,619.178 1566.68,618.626 1568.72,618.071 1570.75,617.518 1572.79,616.972 1574.82,616.433 1576.86,615.906 1578.9,615.39 1580.93,614.883 1582.97,614.383 1585.01,613.883 1587.04,613.384 1589.08,612.895 1591.12,612.419 1593.15,611.964 1595.19,611.531 1597.23,611.126 1599.26,610.749 1601.3,610.404 1603.34,610.089 1605.37,609.807 1607.41,609.554 1609.44,609.332 1611.48,609.137 1613.52,608.969 1615.55,608.825 1617.59,608.703 1619.63,608.603 1621.66,608.519 1623.7,608.461 1625.74,608.435 1627.77,608.447 1629.81,608.496 1631.85,608.584 1633.88,608.708 1635.92,608.865 1637.96,609.051 1639.99,609.263 1642.03,609.497 1644.06,609.75 1646.1,610.022 1648.14,610.313 1650.17,610.625 1652.21,610.961 1654.25,611.311 1656.28,611.677 1658.32,612.061 1660.36,612.462 1662.39,612.879 1664.43,613.308 1666.47,613.745 1668.5,614.186 1670.54,614.627 1672.58,615.065 1674.61,615.496 1676.65,615.919 1678.68,616.335 1680.72,616.746 1682.76,617.157 1684.79,617.574 1686.83,617.991 1688.87,618.402 1690.9,618.803 1692.94,619.189 1694.98,619.556 1697.01,619.902 1699.05,620.225 1701.09,620.523 1703.12,620.795 1705.16,621.041 1707.2,621.263 1709.23,621.461 1711.27,621.638 1713.3,621.796 1715.34,621.936 1717.38,622.06 1719.41,622.173 1721.45,622.273 1723.49,622.35 1725.52,622.399 1727.56,622.417 1729.6,622.402 1731.63,622.355 1733.67,622.279 1735.71,622.176 1737.74,622.05 1739.78,621.904 1741.81,621.74 1743.85,621.561 1745.89,621.368 1747.92,621.157 1749.96,620.925 1752,620.678 1754.03,620.419 1756.07,620.145 1758.11,619.853 1760.14,619.544 1762.18,619.219 1764.22,618.881 1766.25,618.535 1768.29,618.183 1770.33,617.831 1772.36,617.482 1774.4,617.137 1776.43,616.798 1778.47,616.463 1780.51,616.129 1782.54,615.791 1784.58,615.444 1786.62,615.095 1788.65,614.75 1790.69,614.413 1792.73,614.086 1794.76,613.774 1796.8,613.479 1798.84,613.203 1800.87,612.947 1802.91,612.712 1804.95,612.497 1806.98,612.303 1809.02,612.127 1811.05,611.967 1813.09,611.822 1815.13,611.688 1817.16,611.563 1819.2,611.443 1821.24,611.335 1823.27,611.248 1825.31,611.184 1827.35,611.147 1829.38,611.137 1831.42,611.154 1833.46,611.194 1835.49,611.255 1837.53,611.335 1839.57,611.429 1841.6,611.537 1843.64,611.656 1845.67,611.789 1847.71,611.937 1849.75,612.103 1851.78,612.276 1853.82,612.46 1855.86,612.659 1857.89,612.876 1859.93,613.111 1861.97,613.36 1864,613.623 1866.04,613.893 1868.08,614.169 1870.11,614.446 1872.15,614.72 1874.19,614.992 1876.22,615.259 1878.26,615.524 1880.29,615.791 1882.33,616.067 1884.37,616.354 1886.4,616.641 1888.44,616.927 1890.48,617.208 1892.51,617.48 1894.55,617.741 1896.59,617.989 1898.62,618.221 1900.66,618.437 1902.7,618.635 1904.73,618.817 1906.77,618.983 1908.81,619.135 1910.84,619.275 1912.88,619.406 1914.91,619.531 1916.95,619.654 1918.99,619.774 1921.02,619.882 1923.06,619.973 1925.1,620.041 1927.13,620.087 1929.17,620.111 1931.21,620.113 1933.24,620.095 1935.28,620.062 1937.32,620.014 1939.35,619.956 1941.39,619.888 1943.43,619.811 1945.46,619.724 1947.5,619.622 1949.53,619.509 1951.57,619.393 1953.61,619.266 1955.64,619.124 1957.68,618.965 1959.72,618.789 1961.75,618.598 1963.79,618.396 1965.83,618.185 1967.86,617.97 1969.9,617.754 1971.94,617.539 1973.97,617.328 1976.01,617.12 1978.05,616.911 1980.08,616.699 1982.12,616.474 1984.15,616.24 1986.19,616.004 1988.23,615.769 1990.26,615.537 1992.3,615.311 1994.34,615.093 1996.37,614.886 1998.41,614.692 2000.45,614.512 2002.48,614.346 2004.52,614.194 2006.56,614.054 2008.59,613.925 2010.63,613.805 2012.67,613.688 2014.7,613.573 2016.74,613.454 2018.77,613.339 2020.81,613.234 2022.85,613.145 2024.88,613.075 2026.92,613.025 2028.96,612.993 2030.99,612.98 2033.03,612.982 2035.07,612.997 2037.1,613.022 2039.14,613.055 2041.18,613.094 2043.21,613.14 2045.25,613.195 2047.29,613.261 2049.32,613.333 2051.36,613.406 2053.39,613.489 2055.43,613.586 2057.47,613.698 2059.5,613.827 2061.54,613.97 2063.58,614.125 2065.61,614.287 2067.65,614.453 2069.69,614.621 2071.72,614.786 2073.76,614.949 2075.8,615.109 2077.83,615.269 2079.87,615.436 2081.91,615.615 2083.94,615.804 2085.98,615.995 2088.01,616.187 2090.05,616.377 2092.09,616.564 2094.12,616.744 2096.16,616.915 2098.2,617.077 2100.23,617.226 2102.27,617.363 2104.31,617.489 2106.34,617.605 2108.38,617.712 2110.42,617.814 2112.45,617.914 2114.49,618.018 2116.53,618.128 2118.56,618.235 2120.6,618.334 2122.63,618.419 2124.67,618.488 2126.71,618.54 2128.74,618.575 2130.78,618.596 2132.82,618.603 2134.85,618.6 2136.89,618.589 2138.93,618.573 2140.96,618.552 2143,618.527 2145.04,618.496 2147.07,618.456 2149.11,618.414 2151.15,618.372 2153.18,618.324 2155.22,618.263 2157.25,618.187 2159.29,618.096 2161.33,617.991 2163.36,617.874 2165.4,617.751 2167.44,617.623 2169.47,617.495 2171.51,617.368 2173.55,617.244 2175.58,617.123 2177.62,617.002 2179.66,616.875 2181.69,616.735 2183.73,616.586 2185.77,616.433 2187.8,616.278 2189.84,616.123 2191.87,615.97 2193.91,615.822 2195.95,615.68 2197.98,615.547 2200.02,615.424 2202.06,615.311 2204.09,615.208 2206.13,615.114 2208.17,615.027 2210.2,614.943 2212.24,614.858 2214.28,614.768 2216.31,614.67 2218.35,614.572 2220.39,614.48 2222.42,614.4 2224.46,614.333 2226.49,614.281 2228.53,614.244 2230.57,614.22 2232.6,614.207 2234.64,614.203 2236.68,614.205 2238.71,614.212 2240.75,614.22 2242.79,614.231 2244.82,614.245 2246.86,614.266 2248.9,614.289 2250.93,614.307 2252.97,614.329 2255.01,614.362 2257.04,614.408 2259.08,614.469 2261.11,614.543 2263.15,614.628 2265.19,614.721 2267.22,614.818 2269.26,614.916 2271.3,615.012 2273.33,615.104 2275.37,615.194 2277.41,615.282 2279.44,615.376 2281.48,615.481 2283.52,615.595 2285.55,615.709 2287.59,615.821 2289.63,615.932 2291.66,616.041 "/>
<polyline clip-path="url(#clip492)" style="stroke:#e26f46; stroke-linecap:round; stroke-linejoin:round; stroke-width:8; stroke-opacity:1; fill:none" points="255.192,1445.72 257.229,1393.13 259.265,1342.02 261.302,1292.3 263.338,1243.87 265.374,1196.65 267.411,1150.57 269.447,1105.58 271.484,1061.62 273.52,1018.65 275.557,976.636 277.593,935.544 279.63,895.355 281.666,856.056 283.703,817.637 285.739,780.095 287.776,743.431 289.812,707.651 291.849,672.767 293.885,638.792 295.922,605.744 297.958,573.643 299.994,542.512 302.031,512.376 304.067,483.262 306.104,455.196 308.14,428.209 310.177,402.328 312.213,377.584 314.25,354.007 316.286,331.624 318.323,310.462 320.359,290.549 322.396,271.909 324.432,254.565 326.469,238.539 328.505,223.85 330.542,210.514 332.578,198.545 334.614,187.954 336.651,178.749 338.687,170.934 340.724,164.51 342.76,159.476 344.797,155.826 346.833,153.548 348.87,152.633 350.906,153.065 352.943,154.823 354.979,157.883 357.016,162.213 359.052,167.781 361.089,174.548 363.125,182.474 365.161,191.517 367.198,201.628 369.234,212.759 371.271,224.859 373.307,237.873 375.344,251.745 377.38,266.414 379.417,281.818 381.453,297.892 383.49,314.565 385.526,331.767 387.563,349.42 389.599,367.447 391.636,385.764 393.672,404.286 395.709,422.926 397.745,441.592 399.781,460.193 401.818,478.635 403.854,496.827 405.891,514.674 407.927,532.085 409.964,548.973 412,565.252 414.037,580.84 416.073,595.665 418.11,609.657 420.146,622.755 422.183,634.907 424.219,646.068 426.256,656.199 428.292,665.272 430.329,673.272 432.365,680.193 434.401,686.036 436.438,690.809 438.474,694.53 440.511,697.219 442.547,698.907 444.584,699.627 446.62,699.423 448.657,698.34 450.693,696.427 452.73,693.733 454.766,690.309 456.803,686.203 458.839,681.461 460.876,676.126 462.912,670.245 464.949,663.86 466.985,657.006 469.021,649.719 471.058,642.034 473.094,633.985 475.131,625.602 477.167,616.91 479.204,607.928 481.24,598.666 483.277,589.149 485.313,579.394 487.35,569.415 489.386,559.227 491.423,548.855 493.459,538.324 495.496,527.663 497.532,516.902 499.568,506.068 501.605,495.189 503.641,484.294 505.678,473.431 507.714,462.642 509.751,451.968 511.787,441.459 513.824,431.162 515.86,421.129 517.897,411.414 519.933,402.068 521.97,393.145 524.006,384.697 526.043,376.777 528.079,369.429 530.116,362.691 532.152,356.595 534.188,351.17 536.225,346.441 538.261,342.427 540.298,339.147 542.334,336.614 544.371,334.841 546.407,333.838 548.444,333.616 550.48,334.168 552.517,335.47 554.553,337.512 556.59,340.275 558.626,343.738 560.663,347.877 562.699,352.667 564.736,358.081 566.772,364.096 568.808,370.69 570.845,377.846 572.881,385.554 574.918,393.775 576.954,402.477 578.991,411.643 581.027,421.249 583.064,431.266 585.1,441.659 587.137,452.391 589.173,463.422 591.21,474.715 593.246,486.234 595.283,497.944 597.319,509.817 599.356,521.81 601.392,533.863 603.428,545.936 605.465,557.978 607.501,569.939 609.538,581.765 611.574,593.4 613.611,604.788 615.647,615.874 617.684,626.603 619.72,636.921 621.757,646.778 623.793,656.126 625.83,664.917 627.866,673.113 629.903,680.69 631.939,687.624 633.975,693.899 636.012,699.501 638.048,704.42 640.085,708.651 642.121,712.188 644.158,715.032 646.194,717.184 648.231,718.646 650.267,719.421 652.304,719.534 654.34,719.029 656.377,717.927 658.413,716.256 660.45,714.047 662.486,711.333 664.523,708.145 666.559,704.516 668.595,700.473 670.632,696.043 672.668,691.244 674.705,686.089 676.741,680.582 678.778,674.733 680.814,668.598 682.851,662.182 684.887,655.492 686.924,648.541 688.96,641.349 690.997,633.94 693.033,626.34 695.07,618.576 697.106,610.676 699.143,602.665 701.179,594.563 703.215,586.389 705.252,578.154 707.288,569.886 709.325,561.644 711.361,553.454 713.398,545.349 715.434,537.362 717.471,529.531 719.507,521.895 721.544,514.494 723.58,507.367 725.617,500.556 727.653,494.1 729.69,488.037 731.726,482.408 733.763,477.247 735.799,472.589 737.835,468.446 739.872,464.829 741.908,461.744 743.945,459.194 745.981,457.179 748.018,455.696 750.054,454.74 752.091,454.307 754.127,454.39 756.164,454.985 758.2,456.091 760.237,457.706 762.273,459.837 764.31,462.451 766.346,465.5 768.382,468.976 770.419,472.868 772.455,477.157 774.492,481.819 776.528,486.829 778.565,492.162 780.601,497.791 782.638,503.693 784.674,509.85 786.711,516.247 788.747,522.878 790.784,529.745 792.82,536.852 794.857,544.141 796.893,551.59 798.93,559.189 800.966,566.916 803.002,574.746 805.039,582.649 807.075,590.59 809.112,598.533 811.148,606.442 813.185,614.279 815.221,622.009 817.258,629.598 819.294,637.015 821.331,644.233 823.367,651.195 825.404,657.862 827.44,664.213 829.477,670.227 831.513,675.883 833.55,681.163 835.586,686.048 837.622,690.519 839.659,694.562 841.695,698.16 843.732,701.297 845.768,703.958 847.805,706.127 849.841,707.787 851.878,708.917 853.914,709.549 855.951,709.725 857.987,709.456 860.024,708.76 862.06,707.657 864.097,706.168 866.133,704.318 868.17,702.129 870.206,699.624 872.242,696.82 874.279,693.732 876.315,690.368 878.352,686.727 880.388,682.802 882.425,678.607 884.461,674.202 886.498,669.583 888.534,664.749 890.571,659.71 892.607,654.48 894.644,649.079 896.68,643.53 898.717,637.855 900.753,632.081 902.789,626.229 904.826,620.32 906.862,614.369 908.899,608.387 910.935,602.377 912.972,596.35 915.008,590.373 917.045,584.467 919.081,578.651 921.118,572.944 923.154,567.371 925.191,561.958 927.227,556.729 929.264,551.714 931.3,546.94 933.337,542.435 935.373,538.226 937.409,534.342 939.446,530.81 941.482,527.658 943.519,524.913 945.555,522.574 947.592,520.631 949.628,519.081 951.665,517.919 953.701,517.136 955.738,516.719 957.774,516.656 959.811,516.936 961.847,517.546 963.884,518.478 965.92,519.724 967.957,521.283 969.993,523.16 972.029,525.364 974.066,527.894 976.102,530.673 978.139,533.698 980.175,536.969 982.212,540.481 984.248,544.22 986.285,548.168 988.321,552.305 990.358,556.609 992.394,561.06 994.431,565.636 996.467,570.323 998.504,575.11 1000.54,579.993 1002.58,584.975 1004.61,590.07 1006.65,595.257 1008.69,600.479 1010.72,605.731 1012.76,610.999 1014.8,616.269 1016.83,621.519 1018.87,626.725 1020.9,631.861 1022.94,636.9 1024.98,641.814 1027.01,646.576 1029.05,651.159 1031.09,655.537 1033.12,659.687 1035.16,663.586 1037.2,667.211 1039.23,670.532 1041.27,673.547 1043.31,676.254 1045.34,678.654 1047.38,680.751 1049.42,682.546 1051.45,684.043 1053.49,685.245 1055.52,686.155 1057.56,686.772 1059.6,687.093 1061.63,687.113 1063.67,686.82 1065.71,686.197 1067.74,685.223 1069.78,683.965 1071.82,682.466 1073.85,680.724 1075.89,678.744 1077.93,676.539 1079.96,674.123 1082,671.515 1084.04,668.736 1086.07,665.804 1088.11,662.737 1090.14,659.547 1092.18,656.244 1094.22,652.828 1096.25,649.292 1098.29,645.619 1100.33,641.8 1102.36,637.9 1104.4,633.923 1106.44,629.867 1108.47,625.742 1110.51,621.558 1112.55,617.335 1114.58,613.091 1116.62,608.849 1118.66,604.632 1120.69,600.463 1122.73,596.362 1124.76,592.351 1126.8,588.445 1128.84,584.658 1130.87,581 1132.91,577.523 1134.95,574.248 1136.98,571.174 1139.02,568.306 1141.06,565.644 1143.09,563.191 1145.13,560.952 1147.17,558.931 1149.2,557.132 1151.24,555.565 1153.28,554.237 1155.31,553.16 1157.35,552.352 1159.38,551.83 1161.42,551.621 1163.46,551.752 1165.49,552.157 1167.53,552.795 1169.57,553.665 1171.6,554.76 1173.64,556.068 1175.68,557.575 1177.71,559.263 1179.75,561.115 1181.79,563.114 1183.82,565.246 1185.86,567.501 1187.9,569.876 1189.93,572.373 1191.97,575.005 1194,577.794 1196.04,580.722 1198.08,583.733 1200.11,586.841 1202.15,590.046 1204.19,593.346 1206.22,596.731 1208.26,600.185 1210.3,603.691 1212.33,607.231 1214.37,610.784 1216.41,614.332 1218.44,617.859 1220.48,621.351 1222.52,624.799 1224.55,628.199 1226.59,631.553 1228.62,634.818 1230.66,637.953 1232.7,640.959 1234.73,643.837 1236.77,646.583 1238.81,649.194 1240.84,651.663 1242.88,653.984 1244.92,656.146 1246.95,658.139 1248.99,659.951 1251.03,661.567 1253.06,662.969 1255.1,664.137 1257.14,665.047 1259.17,665.669 1261.21,666.002 1263.24,666.119 1265.28,666.024 1267.32,665.722 1269.35,665.222 1271.39,664.537 1273.43,663.682 1275.46,662.673 1277.5,661.522 1279.54,660.244 1281.57,658.848 1283.61,657.336 1285.65,655.706 1287.68,653.947 1289.72,652.038 1291.76,649.966 1293.79,647.807 1295.83,645.557 1297.86,643.206 1299.9,640.754 1301.94,638.205 1303.97,635.57 1306.01,632.864 1308.05,630.103 1310.08,627.304 1312.12,624.483 1314.16,621.656 1316.19,618.832 1318.23,616.019 1320.27,613.217 1322.3,610.419 1324.34,607.616 1326.38,604.87 1328.41,602.201 1330.45,599.605 1332.48,597.081 1334.52,594.632 1336.56,592.264 1338.59,589.984 1340.63,587.802 1342.67,585.728 1344.7,583.776 1346.74,581.96 1348.78,580.295 1350.81,578.801 1352.85,577.497 1354.89,576.406 1356.92,575.556 1358.96,574.931 1361,574.493 1363.03,574.238 1365.07,574.162 1367.1,574.254 1369.14,574.503 1371.18,574.896 1373.21,575.421 1375.25,576.067 1377.29,576.824 1379.32,577.688 1381.36,578.661 1383.4,579.75 1385.43,580.972 1387.47,582.353 1389.51,583.876 1391.54,585.474 1393.58,587.161 1395.62,588.947 1397.65,590.833 1399.69,592.812 1401.72,594.873 1403.76,597.003 1405.8,599.186 1407.83,601.407 1409.87,603.65 1411.91,605.905 1413.94,608.163 1415.98,610.423 1418.02,612.691 1420.05,614.98 1422.09,617.304 1424.13,619.601 1426.16,621.857 1428.2,624.079 1430.24,626.266 1432.27,628.416 1434.31,630.524 1436.34,632.581 1438.38,634.578 1440.42,636.502 1442.45,638.341 1444.49,640.081 1446.53,641.706 1448.56,643.201 1450.6,644.548 1452.64,645.728 1454.67,646.723 1456.71,647.543 1458.75,648.204 1460.78,648.71 1462.82,649.068 1464.86,649.288 1466.89,649.378 1468.93,649.351 1470.96,649.217 1473,648.984 1475.04,648.657 1477.07,648.238 1479.11,647.722 1481.15,647.099 1483.18,646.348 1485.22,645.44 1487.26,644.376 1489.29,643.243 1491.33,642.032 1493.37,640.73 1495.4,639.336 1497.44,637.853 1499.48,636.291 1501.51,634.663 1503.55,632.983 1505.58,631.267 1507.62,629.527 1509.66,627.775 1511.69,626.017 1513.73,624.253 1515.77,622.477 1517.8,620.674 1519.84,618.819 1521.88,616.952 1523.91,615.108 1525.95,613.278 1527.99,611.457 1530.02,609.647 1532.06,607.852 1534.1,606.079 1536.13,604.338 1538.17,602.64 1540.2,600.996 1542.24,599.419 1544.28,597.923 1546.31,596.52 1548.35,595.223 1550.39,594.047 1552.42,593.004 1554.46,592.101 1556.5,591.332 1558.53,590.69 1560.57,590.17 1562.61,589.762 1564.64,589.456 1566.68,589.244 1568.72,589.115 1570.75,589.063 1572.79,589.085 1574.82,589.18 1576.86,589.354 1578.9,589.618 1580.93,589.993 1582.97,590.506 1585.01,591.195 1587.04,591.981 1589.08,592.827 1591.12,593.749 1593.15,594.754 1595.19,595.842 1597.23,597.005 1599.26,598.235 1601.3,599.516 1603.34,600.835 1605.37,602.179 1607.41,603.536 1609.44,604.898 1611.48,606.265 1613.52,607.639 1615.55,609.036 1617.59,610.477 1619.63,611.973 1621.66,613.46 1623.7,614.943 1625.74,616.428 1627.77,617.917 1629.81,619.41 1631.85,620.899 1633.88,622.379 1635.92,623.838 1637.96,625.267 1639.99,626.653 1642.03,627.987 1644.06,629.258 1646.1,630.455 1648.14,631.569 1650.17,632.592 1652.21,633.515 1654.25,634.325 1656.28,635.026 1658.32,635.628 1660.36,636.14 1662.39,636.572 1664.43,636.932 1666.47,637.229 1668.5,637.47 1670.54,637.659 1672.58,637.795 1674.61,637.874 1676.65,637.886 1678.68,637.813 1680.72,637.629 1682.76,637.299 1684.79,636.798 1686.83,636.233 1688.87,635.613 1690.9,634.923 1692.94,634.16 1694.98,633.325 1697.01,632.426 1699.05,631.473 1701.09,630.48 1703.12,629.459 1705.16,628.423 1707.2,627.382 1709.23,626.339 1711.27,625.293 1713.3,624.236 1715.34,623.149 1717.38,622.004 1719.41,620.823 1721.45,619.649 1723.49,618.469 1725.52,617.278 1727.56,616.074 1729.6,614.858 1731.63,613.639 1733.67,612.422 1735.71,611.219 1737.74,610.038 1739.78,608.889 1741.81,607.783 1743.85,606.725 1745.89,605.724 1747.92,604.783 1749.96,603.905 1752,603.109 1754.03,602.409 1756.07,601.793 1758.11,601.251 1760.14,600.772 1762.18,600.345 1764.22,599.963 1766.25,599.619 1768.29,599.308 1770.33,599.028 1772.36,598.784 1774.4,598.583 1776.43,598.441 1778.47,598.378 1780.51,598.426 1782.54,598.625 1784.58,598.981 1786.62,599.381 1788.65,599.832 1790.69,600.344 1792.73,600.92 1794.76,601.558 1796.8,602.249 1798.84,602.982 1800.87,603.745 1802.91,604.527 1804.95,605.315 1806.98,606.104 1809.02,606.892 1811.05,607.683 1813.09,608.489 1815.13,609.334 1817.16,610.245 1819.2,611.166 1821.24,612.089 1823.27,613.024 1825.31,613.977 1827.35,614.947 1829.38,615.933 1831.42,616.926 1833.46,617.919 1835.49,618.902 1837.53,619.867 1839.57,620.806 1841.6,621.711 1843.64,622.577 1845.67,623.403 1847.71,624.19 1849.75,624.933 1851.78,625.597 1853.82,626.185 1855.86,626.71 1857.89,627.186 1859.93,627.624 1861.97,628.033 1864,628.421 1866.04,628.793 1868.08,629.151 1870.11,629.494 1872.15,629.813 1874.19,630.099 1876.22,630.33 1878.26,630.483 1880.29,630.521 1882.33,630.4 1884.37,630.157 1886.4,629.881 1888.44,629.558 1890.48,629.181 1892.51,628.749 1894.55,628.266 1896.59,627.741 1898.62,627.186 1900.66,626.61 1902.7,626.027 1904.73,625.443 1906.77,624.863 1908.81,624.284 1910.84,623.699 1912.88,623.088 1914.91,622.423 1916.95,621.708 1918.99,620.998 1921.02,620.279 1923.06,619.541 1925.1,618.781 1927.13,618.001 1929.17,617.205 1931.21,616.401 1933.24,615.597 1935.28,614.801 1937.32,614.023 1939.35,613.269 1941.39,612.542 1943.43,611.844 1945.46,611.173 1947.5,610.523 1949.53,609.909 1951.57,609.369 1953.61,608.887 1955.64,608.449 1957.68,608.04 1959.72,607.65 1961.75,607.27 1963.79,606.893 1965.83,606.516 1967.86,606.139 1969.9,605.766 1971.94,605.406 1973.97,605.074 1976.01,604.792 1978.05,604.588 1980.08,604.499 1982.12,604.57 1984.15,604.724 1986.19,604.908 1988.23,605.135 1990.26,605.41 1992.3,605.731 1994.34,606.093 1996.37,606.486 1998.41,606.9 2000.45,607.324 2002.48,607.75 2004.52,608.17 2006.56,608.584 2008.59,608.997 2010.63,609.422 2012.67,609.882 2014.7,610.409 2016.74,610.956 2018.77,611.501 2020.81,612.06 2022.85,612.641 2024.88,613.246 2026.92,613.871 2028.96,614.512 2030.99,615.161 2033.03,615.808 2035.07,616.446 2037.1,617.066 2039.14,617.665 2041.18,618.24 2043.21,618.792 2045.25,619.329 2047.29,619.861 2049.32,620.358 2051.36,620.79 2053.39,621.176 2055.43,621.533 2057.47,621.875 2059.5,622.211 2061.54,622.552 2063.58,622.902 2065.61,623.265 2067.65,623.637 2069.69,624.015 2071.72,624.388 2073.76,624.74 2075.8,625.048 2077.83,625.284 2079.87,625.411 2081.91,625.385 2083.94,625.295 2085.98,625.178 2088.01,625.023 2090.05,624.828 2092.09,624.594 2094.12,624.327 2096.16,624.037 2098.2,623.733 2100.23,623.427 2102.27,623.125 2104.31,622.832 2106.34,622.547 2108.38,622.263 2110.42,621.964 2112.45,621.625 2114.49,621.216 2116.53,620.8 2118.56,620.385 2120.6,619.953 2122.63,619.499 2124.67,619.021 2126.71,618.522 2128.74,618.008 2130.78,617.487 2132.82,616.969 2134.85,616.461 2136.89,615.971 2138.93,615.502 2140.96,615.055 2143,614.625 2145.04,614.205 2147.07,613.778 2149.11,613.38 2151.15,613.04 2153.18,612.738 2155.22,612.457 2157.25,612.182 2159.29,611.903 2161.33,611.611 2163.36,611.3 2165.4,610.968 2167.44,610.619 2169.47,610.256 2171.51,609.89 2173.55,609.538 2175.58,609.22 2177.62,608.964 2179.66,608.806 2181.69,608.788 2183.73,608.835 2185.77,608.904 2187.8,609.005 2189.84,609.14 2191.87,609.307 2193.91,609.501 2195.95,609.712 2197.98,609.93 2200.02,610.147 2202.06,610.354 2204.09,610.55 2206.13,610.734 2208.17,610.917 2210.2,611.115 2212.24,611.354 2214.28,611.664 2216.31,611.978 2218.35,612.292 2220.39,612.62 2222.42,612.971 2224.46,613.346 2226.49,613.742 2228.53,614.152 2230.57,614.569 2232.6,614.983 2234.64,615.386 2236.68,615.771 2238.71,616.134 2240.75,616.476 2242.79,616.801 2244.82,617.121 2246.86,617.451 2248.9,617.77 2250.93,618.034 2252.97,618.262 2255.01,618.474 2257.04,618.684 2259.08,618.905 2261.11,619.145 2263.15,619.408 2265.19,619.698 2267.22,620.012 2269.26,620.346 2271.3,620.689 2273.33,621.028 2275.37,621.344 2277.41,621.609 2279.44,621.791 2281.48,621.85 2283.52,621.825 2285.55,621.78 2287.59,621.716 2289.63,621.634 2291.66,621.535 "/>
<polyline clip-path="url(#clip492)" style="stroke:#3da44d; stroke-linecap:round; stroke-linejoin:round; stroke-width:8; stroke-opacity:1; fill:none" points="255.192,87.9938 257.229,88.0422 259.265,88.0137 261.302,87.9985 263.338,88.0072 265.374,88.0666 267.411,88.0741 269.447,88.0539 271.484,88.0034 273.52,88.0143 275.557,87.9797 277.593,87.9981 279.63,87.993 281.666,87.9958 283.703,87.9939 285.739,87.9987 287.776,88.0052 289.812,87.9817 291.849,87.9763 293.885,87.9947 295.922,87.9904 297.958,87.9961 299.994,88.0015 302.031,88.0021 304.067,87.9942 306.104,87.9999 308.14,87.9959 310.177,87.9996 312.213,88.081 314.25,88.017 316.286,88.0047 318.323,88.0263 320.359,88.0447 322.396,87.9978 324.432,88.0095 326.469,88.0799 328.505,88.0144 330.542,88.0468 332.578,88.0561 334.614,88.0506 336.651,88.0382 338.687,88.0187 340.724,88.0894 342.76,88.0515 344.797,88.0385 346.833,88.0364 348.87,88.1851 350.906,88.4375 352.943,88.7499 354.979,89.0838 357.016,89.4055 359.052,89.6876 361.089,89.9088 363.125,90.0546 365.161,90.1171 367.198,90.0954 369.234,89.9957 371.271,89.8307 373.307,89.6193 375.344,89.3867 377.38,89.1638 379.417,88.986 381.453,88.8929 383.49,88.9279 385.526,89.1368 387.563,89.5665 389.599,90.265 391.636,91.2798 393.672,92.6572 395.709,94.4403 397.745,96.6688 399.781,99.3781 401.818,102.599 403.854,106.355 405.891,110.663 407.927,115.533 409.964,120.967 412,126.958 414.037,133.492 416.073,140.546 418.11,148.09 420.146,156.087 422.183,164.493 424.219,173.255 426.256,182.318 428.292,191.62 430.329,201.096 432.365,210.677 434.401,220.296 436.438,229.884 438.474,239.373 440.511,248.695 442.547,257.782 444.584,266.569 446.62,275.002 448.657,283.024 450.693,290.587 452.73,297.649 454.766,304.171 456.803,310.122 458.839,315.476 460.876,320.211 462.912,324.315 464.949,327.785 466.985,330.621 469.021,332.832 471.058,334.429 473.094,335.429 475.131,335.855 477.167,335.735 479.204,335.1 481.24,333.99 483.277,332.443 485.313,330.509 487.35,328.238 489.386,325.681 491.423,322.891 493.459,319.919 495.496,316.821 497.532,313.647 499.568,310.454 501.605,307.296 503.641,304.224 505.678,301.283 507.714,298.521 509.751,295.98 511.787,293.698 513.824,291.703 515.86,290.021 517.897,288.67 519.933,287.661 521.97,287.002 524.006,286.693 526.043,286.727 528.079,287.097 530.116,287.781 532.152,288.758 534.188,290.001 536.225,291.48 538.261,293.166 540.298,295.021 542.334,297.01 544.371,299.09 546.407,301.219 548.444,303.35 550.48,305.444 552.517,307.475 554.553,309.409 556.59,311.215 558.626,312.868 560.663,314.344 562.699,315.625 564.736,316.695 566.772,317.541 568.808,318.157 570.845,318.537 572.881,318.681 574.918,318.598 576.954,318.31 578.991,317.836 581.027,317.2 583.064,316.428 585.1,315.547 587.137,314.587 589.173,313.58 591.21,312.56 593.246,311.563 595.283,310.629 597.319,309.799 599.356,309.108 601.392,308.591 603.428,308.288 605.465,308.232 607.501,308.453 609.538,308.974 611.574,309.814 613.611,310.988 615.647,312.504 617.684,314.367 619.72,316.576 621.757,319.124 623.793,322.002 625.83,325.193 627.866,328.672 629.903,332.411 631.939,336.379 633.975,340.542 636.012,344.864 638.048,349.308 640.085,353.835 642.121,358.403 644.158,362.968 646.194,367.485 648.231,371.904 650.267,376.178 652.304,380.269 654.34,384.156 656.377,387.808 658.413,391.199 660.45,394.305 662.486,397.109 664.523,399.592 666.559,401.742 668.595,403.551 670.632,405.012 672.668,406.122 674.705,406.883 676.741,407.299 678.778,407.381 680.814,407.156 682.851,406.65 684.887,405.891 686.924,404.903 688.96,403.717 690.997,402.361 693.033,400.867 695.07,399.267 697.106,397.594 699.143,395.884 701.179,394.172 703.215,392.496 705.252,390.895 707.288,389.402 709.325,388.044 711.361,386.854 713.398,385.859 715.434,385.082 717.471,384.541 719.507,384.251 721.544,384.221 723.58,384.456 725.617,384.957 727.653,385.721 729.69,386.737 731.726,387.995 733.763,389.476 735.799,391.16 737.835,393.026 739.872,395.046 741.908,397.192 743.945,399.435 745.981,401.746 748.018,404.097 750.054,406.458 752.091,408.799 754.127,411.089 756.164,413.298 758.2,415.396 760.237,417.351 762.273,419.132 764.31,420.722 766.346,422.124 768.382,423.329 770.419,424.33 772.455,425.125 774.492,425.711 776.528,426.09 778.565,426.267 780.601,426.248 782.638,426.042 784.674,425.66 786.711,425.116 788.747,424.428 790.784,423.615 792.82,422.698 794.857,421.715 796.893,420.698 798.93,419.68 800.966,418.688 803.002,417.752 805.039,416.898 807.075,416.15 809.112,415.531 811.148,415.065 813.185,414.77 815.221,414.666 817.258,414.77 819.294,415.099 821.331,415.665 823.367,416.47 825.404,417.508 827.44,418.775 829.477,420.266 831.513,421.97 833.55,423.875 835.586,425.965 837.622,428.221 839.659,430.621 841.695,433.142 843.732,435.756 845.768,438.432 847.805,441.137 849.841,443.835 851.878,446.486 853.914,449.066 855.951,451.563 857.987,453.954 860.024,456.218 862.06,458.336 864.097,460.291 866.133,462.068 868.17,463.654 870.206,465.038 872.242,466.211 874.279,467.163 876.315,467.891 878.352,468.39 880.388,468.658 882.425,468.704 884.461,468.558 886.498,468.238 888.534,467.758 890.571,467.138 892.607,466.395 894.644,465.548 896.68,464.619 898.717,463.626 900.753,462.594 902.789,461.544 904.826,460.501 906.862,459.489 908.899,458.534 910.935,457.662 912.972,456.899 915.008,456.261 917.045,455.767 919.081,455.431 921.118,455.268 923.154,455.286 925.191,455.492 927.227,455.889 929.264,456.479 931.3,457.257 933.337,458.219 935.373,459.355 937.409,460.653 939.446,462.098 941.482,463.672 943.519,465.353 945.555,467.12 947.592,468.952 949.628,470.828 951.665,472.726 953.701,474.625 955.738,476.505 957.774,478.345 959.811,480.125 961.847,481.825 963.884,483.427 965.92,484.911 967.957,486.259 969.993,487.452 972.029,488.473 974.066,489.311 976.102,489.984 978.139,490.498 980.175,490.856 982.212,491.063 984.248,491.123 986.285,491.044 988.321,490.835 990.358,490.506 992.394,490.067 994.431,489.53 996.467,488.911 998.504,488.225 1000.54,487.487 1002.58,486.716 1004.61,485.931 1006.65,485.158 1008.69,484.425 1010.72,483.754 1012.76,483.163 1014.8,482.668 1016.83,482.286 1018.87,482.027 1020.9,481.905 1022.94,481.927 1024.98,482.101 1027.01,482.432 1029.05,482.923 1031.09,483.576 1033.12,484.389 1035.16,485.361 1037.2,486.483 1039.23,487.738 1041.27,489.111 1043.31,490.587 1045.34,492.152 1047.38,493.79 1049.42,495.485 1051.45,497.219 1053.49,498.973 1055.52,500.728 1057.56,502.464 1059.6,504.159 1061.63,505.793 1063.67,507.341 1065.71,508.78 1067.74,510.086 1069.78,511.261 1071.82,512.311 1073.85,513.231 1075.89,514.018 1077.93,514.671 1079.96,515.189 1082,515.573 1084.04,515.822 1086.07,515.941 1088.11,515.932 1090.14,515.801 1092.18,515.552 1094.22,515.193 1096.25,514.731 1098.29,514.176 1100.33,513.543 1102.36,512.868 1104.4,512.172 1106.44,511.472 1108.47,510.783 1110.51,510.121 1112.55,509.501 1114.58,508.936 1116.62,508.44 1118.66,508.026 1120.69,507.706 1122.73,507.49 1124.76,507.391 1126.8,507.418 1128.84,507.58 1130.87,507.886 1132.91,508.328 1134.95,508.899 1136.98,509.596 1139.02,510.413 1141.06,511.342 1143.09,512.376 1145.13,513.503 1147.17,514.713 1149.2,515.993 1151.24,517.327 1153.28,518.699 1155.31,520.093 1157.35,521.487 1159.38,522.862 1161.42,524.195 1163.46,525.464 1165.49,526.661 1167.53,527.786 1169.57,528.832 1171.6,529.793 1173.64,530.661 1175.68,531.432 1177.71,532.102 1179.75,532.665 1181.79,533.12 1183.82,533.463 1185.86,533.692 1187.9,533.806 1189.93,533.803 1191.97,533.684 1194,533.45 1196.04,533.118 1198.08,532.724 1200.11,532.278 1202.15,531.791 1204.19,531.274 1206.22,530.738 1208.26,530.196 1210.3,529.659 1212.33,529.139 1214.37,528.648 1216.41,528.199 1218.44,527.803 1220.48,527.475 1222.52,527.226 1224.55,527.071 1226.59,527.022 1228.62,527.083 1230.66,527.251 1232.7,527.528 1234.73,527.913 1236.77,528.406 1238.81,529.003 1240.84,529.7 1242.88,530.491 1244.92,531.368 1246.95,532.323 1248.99,533.345 1251.03,534.423 1253.06,535.544 1255.1,536.692 1257.14,537.853 1259.17,539.007 1261.21,540.139 1263.24,541.241 1265.28,542.305 1267.32,543.324 1269.35,544.291 1271.39,545.197 1273.43,546.037 1275.46,546.802 1277.5,547.487 1279.54,548.085 1281.57,548.589 1283.61,548.995 1285.65,549.296 1287.68,549.487 1289.72,549.561 1291.76,549.522 1293.79,549.406 1295.83,549.222 1297.86,548.979 1299.9,548.681 1301.94,548.338 1303.97,547.956 1306.01,547.544 1308.05,547.11 1310.08,546.666 1312.12,546.219 1314.16,545.781 1316.19,545.364 1318.23,544.977 1320.27,544.635 1322.3,544.349 1324.34,544.132 1326.38,543.992 1328.41,543.933 1330.45,543.957 1332.48,544.068 1334.52,544.266 1336.56,544.551 1338.59,544.923 1340.63,545.38 1342.67,545.917 1344.7,546.531 1346.74,547.216 1348.78,547.965 1350.81,548.77 1352.85,549.622 1354.89,550.51 1356.92,551.425 1358.96,552.35 1361,553.274 1363.03,554.19 1365.07,555.09 1367.1,555.968 1369.14,556.816 1371.18,557.625 1373.21,558.389 1375.25,559.1 1377.29,559.748 1379.32,560.328 1381.36,560.829 1383.4,561.243 1385.43,561.563 1387.47,561.779 1389.51,561.9 1391.54,561.955 1393.58,561.95 1395.62,561.886 1397.65,561.767 1399.69,561.599 1401.72,561.385 1403.76,561.131 1405.8,560.843 1407.83,560.528 1409.87,560.192 1411.91,559.844 1413.94,559.492 1415.98,559.143 1418.02,558.809 1420.05,558.498 1422.09,558.221 1424.13,557.993 1426.16,557.821 1428.2,557.709 1430.24,557.659 1432.27,557.676 1434.31,557.76 1436.34,557.913 1438.38,558.135 1440.42,558.427 1442.45,558.785 1444.49,559.21 1446.53,559.698 1448.56,560.245 1450.6,560.848 1452.64,561.501 1454.67,562.2 1456.71,562.927 1458.75,563.671 1460.78,564.428 1462.82,565.191 1464.86,565.954 1466.89,566.711 1468.93,567.455 1470.96,568.177 1473,568.87 1475.04,569.525 1477.07,570.133 1479.11,570.685 1481.15,571.17 1483.18,571.579 1485.22,571.9 1487.26,572.133 1489.29,572.311 1491.33,572.435 1493.37,572.508 1495.4,572.531 1497.44,572.507 1499.48,572.437 1501.51,572.327 1503.55,572.178 1505.58,571.994 1507.62,571.78 1509.66,571.541 1511.69,571.281 1513.73,571.005 1515.77,570.721 1517.8,570.433 1519.84,570.148 1521.88,569.886 1523.91,569.658 1525.95,569.469 1527.99,569.322 1530.02,569.219 1532.06,569.165 1534.1,569.161 1536.13,569.208 1538.17,569.309 1540.2,569.465 1542.24,569.676 1544.28,569.943 1546.31,570.266 1548.35,570.644 1550.39,571.077 1552.42,571.563 1554.46,572.091 1556.5,572.646 1558.53,573.226 1560.57,573.827 1562.61,574.443 1564.64,575.071 1566.68,575.704 1568.72,576.336 1570.75,576.96 1572.79,577.567 1574.82,578.149 1576.86,578.696 1578.9,579.2 1580.93,579.649 1582.97,580.032 1585.01,580.337 1587.04,580.585 1589.08,580.791 1591.12,580.955 1593.15,581.077 1595.19,581.16 1597.23,581.204 1599.26,581.21 1601.3,581.181 1603.34,581.118 1605.37,581.022 1607.41,580.896 1609.44,580.742 1611.48,580.563 1613.52,580.36 1615.55,580.138 1617.59,579.898 1619.63,579.649 1621.66,579.418 1623.7,579.209 1625.74,579.025 1627.77,578.869 1629.81,578.744 1631.85,578.651 1633.88,578.594 1635.92,578.574 1637.96,578.595 1639.99,578.657 1642.03,578.763 1644.06,578.916 1646.1,579.118 1648.14,579.37 1650.17,579.674 1652.21,580.029 1654.25,580.416 1656.28,580.832 1658.32,581.276 1660.36,581.744 1662.39,582.234 1664.43,582.741 1666.47,583.261 1668.5,583.787 1670.54,584.314 1672.58,584.834 1674.61,585.339 1676.65,585.82 1678.68,586.268 1680.72,586.672 1682.76,587.022 1684.79,587.308 1686.83,587.555 1688.87,587.77 1690.9,587.952 1692.94,588.102 1694.98,588.222 1697.01,588.312 1699.05,588.372 1701.09,588.402 1703.12,588.403 1705.16,588.376 1707.2,588.32 1709.23,588.236 1711.27,588.124 1713.3,587.983 1715.34,587.814 1717.38,587.616 1719.41,587.408 1721.45,587.212 1723.49,587.03 1725.52,586.862 1727.56,586.711 1729.6,586.578 1731.63,586.467 1733.67,586.379 1735.71,586.317 1737.74,586.283 1739.78,586.281 1741.81,586.313 1743.85,586.383 1745.89,586.494 1747.92,586.651 1749.96,586.856 1752,587.101 1754.03,587.375 1756.07,587.678 1758.11,588.007 1760.14,588.363 1762.18,588.742 1764.22,589.141 1766.25,589.557 1768.29,589.984 1770.33,590.417 1772.36,590.85 1774.4,591.275 1776.43,591.685 1778.47,592.072 1780.51,592.424 1782.54,592.734 1784.58,592.995 1786.62,593.229 1788.65,593.438 1790.69,593.623 1792.73,593.786 1794.76,593.926 1796.8,594.044 1798.84,594.139 1800.87,594.212 1802.91,594.261 1804.95,594.285 1806.98,594.283 1809.02,594.254 1811.05,594.195 1813.09,594.104 1815.13,593.979 1817.16,593.819 1819.2,593.654 1821.24,593.495 1823.27,593.343 1825.31,593.198 1827.35,593.061 1829.38,592.934 1831.42,592.819 1833.46,592.718 1835.49,592.634 1837.53,592.569 1839.57,592.528 1841.6,592.512 1843.64,592.528 1845.67,592.578 1847.71,592.668 1849.75,592.8 1851.78,592.961 1853.82,593.148 1855.86,593.361 1857.89,593.6 1859.93,593.863 1861.97,594.15 1864,594.457 1866.04,594.781 1868.08,595.119 1870.11,595.465 1872.15,595.814 1874.19,596.162 1876.22,596.5 1878.26,596.822 1880.29,597.12 1882.33,597.384 1884.37,597.617 1886.4,597.83 1888.44,598.026 1890.48,598.206 1892.51,598.37 1894.55,598.52 1896.59,598.654 1898.62,598.772 1900.66,598.874 1902.7,598.956 1904.73,599.018 1906.77,599.055 1908.81,599.066 1910.84,599.045 1912.88,598.989 1914.91,598.893 1916.95,598.769 1918.99,598.646 1921.02,598.526 1923.06,598.407 1925.1,598.29 1927.13,598.175 1929.17,598.063 1931.21,597.954 1933.24,597.853 1935.28,597.76 1937.32,597.679 1939.35,597.613 1941.39,597.567 1943.43,597.545 1945.46,597.552 1947.5,597.595 1949.53,597.671 1951.57,597.769 1953.61,597.891 1955.64,598.035 1957.68,598.203 1959.72,598.392 1961.75,598.601 1963.79,598.829 1965.83,599.073 1967.86,599.33 1969.9,599.597 1971.94,599.869 1973.97,600.143 1976.01,600.412 1978.05,600.672 1980.08,600.917 1982.12,601.139 1984.15,601.342 1986.19,601.531 1988.23,601.708 1990.26,601.877 1992.3,602.036 1994.34,602.187 1996.37,602.33 1998.41,602.462 2000.45,602.583 2002.48,602.689 2004.52,602.777 2006.56,602.844 2008.59,602.884 2010.63,602.893 2012.67,602.864 2014.7,602.791 2016.74,602.704 2018.77,602.62 2020.81,602.536 2022.85,602.45 2024.88,602.362 2026.92,602.271 2028.96,602.179 2030.99,602.085 2033.03,601.991 2035.07,601.901 2037.1,601.816 2039.14,601.74 2041.18,601.677 2043.21,601.633 2045.25,601.613 2047.29,601.622 2049.32,601.658 2051.36,601.713 2053.39,601.786 2055.43,601.879 2057.47,601.991 2059.5,602.12 2061.54,602.267 2063.58,602.429 2065.61,602.605 2067.65,602.793 2069.69,602.99 2071.72,603.194 2073.76,603.401 2075.8,603.609 2077.83,603.813 2079.87,604.01 2081.91,604.194 2083.94,604.366 2085.98,604.529 2088.01,604.685 2090.05,604.838 2092.09,604.987 2094.12,605.133 2096.16,605.276 2098.2,605.414 2100.23,605.545 2102.27,605.665 2104.31,605.772 2106.34,605.859 2108.38,605.923 2110.42,605.954 2112.45,605.948 2114.49,605.899 2116.53,605.843 2118.56,605.79 2120.6,605.737 2122.63,605.681 2124.67,605.621 2126.71,605.556 2128.74,605.485 2130.78,605.41 2132.82,605.331 2134.85,605.251 2136.89,605.171 2138.93,605.095 2140.96,605.028 2143,604.973 2145.04,604.936 2147.07,604.922 2149.11,604.931 2151.15,604.954 2153.18,604.994 2155.22,605.048 2157.25,605.117 2159.29,605.2 2161.33,605.297 2163.36,605.405 2165.4,605.525 2167.44,605.655 2169.47,605.793 2171.51,605.938 2173.55,606.088 2175.58,606.241 2177.62,606.395 2179.66,606.549 2181.69,606.698 2183.73,606.84 2185.77,606.976 2187.8,607.109 2189.84,607.242 2191.87,607.376 2193.91,607.512 2195.95,607.648 2197.98,607.785 2200.02,607.918 2202.06,608.046 2204.09,608.163 2206.13,608.265 2208.17,608.345 2210.2,608.396 2212.24,608.41 2214.28,608.382 2216.31,608.35 2218.35,608.322 2220.39,608.294 2222.42,608.264 2224.46,608.229 2226.49,608.189 2228.53,608.141 2230.57,608.087 2232.6,608.027 2234.64,607.962 2236.68,607.894 2238.71,607.826 2240.75,607.761 2242.79,607.703 2244.82,607.658 2246.86,607.63 2248.9,607.62 2250.93,607.623 2252.97,607.639 2255.01,607.666 2257.04,607.704 2259.08,607.753 2261.11,607.81 2263.15,607.877 2265.19,607.952 2267.22,608.034 2269.26,608.123 2271.3,608.219 2273.33,608.32 2275.37,608.425 2277.41,608.536 2279.44,608.649 2281.48,608.766 2283.52,608.882 2285.55,608.992 2287.59,609.095 2289.63,609.191 2291.66,609.279 "/>
<path clip-path="url(#clip490)" d="M1934.1 770.518 L2280.8 770.518 L2280.8 95.2176 L1934.1 95.2176  Z" fill="#ffffff" fill-rule="evenodd" fill-opacity="1"/>
<polyline clip-path="url(#clip490)" style="stroke:#000000; stroke-linecap:round; stroke-linejoin:round; stroke-width:4; stroke-opacity:1; fill:none" points="1934.1,770.518 2280.8,770.518 2280.8,95.2176 1934.1,95.2176 1934.1,770.518 "/>
<polyline clip-path="url(#clip490)" style="stroke:#009af9; stroke-linecap:round; stroke-linejoin:round; stroke-width:15; stroke-opacity:1; fill:none" points="1958.08,264.043 2102,264.043 "/>
<path clip-path="url(#clip490)" d="M2167.43 233.392 Q2167.43 233.454 2167.37 233.515 Q2166.97 236.774 2166.2 238.587 Q2165.43 240.371 2163.71 241.201 Q2162.45 241.815 2160.88 241.815 Q2158.51 241.815 2155.1 240.248 Q2154.98 240.186 2154.3 239.879 Q2153.63 239.571 2153.38 239.479 Q2153.13 239.387 2152.61 239.202 Q2152.09 238.987 2151.69 238.926 Q2151.29 238.864 2150.89 238.864 Q2150.03 238.864 2149.29 239.233 Q2147.78 239.971 2146.86 241.078 Q2145.91 242.154 2145.66 244.09 Q2145.6 244.336 2145.39 244.521 Q2145.17 244.705 2144.89 244.705 Q2144.62 244.705 2144.37 244.49 Q2144.13 244.275 2144.13 243.967 Q2144.13 243.906 2144.19 243.844 Q2144.59 240.586 2145.36 238.803 Q2146.12 236.989 2147.85 236.159 Q2149.2 235.513 2150.67 235.513 Q2152.98 235.513 2156.48 237.112 Q2156.61 237.173 2157.28 237.481 Q2157.96 237.788 2158.21 237.88 Q2158.45 237.973 2158.97 238.188 Q2159.5 238.372 2159.9 238.434 Q2160.3 238.495 2160.7 238.495 Q2161.46 238.495 2162.26 238.096 Q2163.77 237.358 2164.72 236.282 Q2165.68 235.206 2165.92 233.269 Q2165.98 233.023 2166.2 232.839 Q2166.41 232.624 2166.69 232.624 Q2166.97 232.624 2167.21 232.869 Q2167.43 233.085 2167.43 233.392 Z" fill="#000000" fill-rule="evenodd" fill-opacity="1" /><path clip-path="url(#clip490)" d="M2171.78 260.189 Q2171.78 262.648 2170.24 264.054 Q2168.7 265.415 2166.94 265.415 Q2165.28 265.415 2164.4 264.449 Q2163.52 263.483 2163.52 262.253 Q2163.52 260.584 2164.75 259.135 Q2165.98 257.686 2167.82 257.378 Q2166.02 256.236 2163.34 256.236 Q2161.59 256.236 2160.05 257.159 Q2158.56 258.081 2157.63 259.267 Q2156.76 260.452 2155.97 262.165 Q2155.22 263.834 2154.91 264.844 Q2154.65 265.81 2154.43 266.864 L2151.35 279.161 Q2149.86 285.002 2149.86 287.066 Q2149.86 289.613 2151.09 291.326 Q2152.32 292.995 2154.78 292.995 Q2155.75 292.995 2156.84 292.731 Q2157.94 292.424 2159.35 291.634 Q2160.8 290.799 2162.07 289.569 Q2163.39 288.296 2164.66 286.144 Q2165.93 283.992 2166.77 281.225 Q2167.03 280.259 2167.91 280.259 Q2169.01 280.259 2169.01 281.137 Q2169.01 281.884 2168.39 283.465 Q2167.82 285.002 2166.55 287.022 Q2165.32 288.999 2163.7 290.799 Q2162.07 292.556 2159.65 293.785 Q2157.24 295.015 2154.6 295.015 Q2150.83 295.015 2148.32 292.995 Q2145.82 290.975 2144.9 288.164 Q2144.68 288.559 2144.37 289.086 Q2144.06 289.613 2143.14 290.799 Q2142.26 291.941 2141.25 292.819 Q2140.24 293.654 2138.66 294.312 Q2137.13 295.015 2135.46 295.015 Q2133.35 295.015 2131.46 294.4 Q2129.62 293.785 2128.3 292.38 Q2126.98 290.975 2126.98 289.042 Q2126.98 286.89 2128.43 285.397 Q2129.92 283.86 2131.94 283.86 Q2133.22 283.86 2134.23 284.607 Q2135.28 285.353 2135.28 286.978 Q2135.28 288.779 2134.05 290.14 Q2132.82 291.502 2131.06 291.853 Q2132.87 292.995 2135.54 292.995 Q2138.44 292.995 2140.73 290.448 Q2143.01 287.901 2144.11 283.641 Q2146.83 273.408 2147.88 268.841 Q2148.94 264.229 2148.94 262.253 Q2148.94 260.408 2148.46 259.135 Q2147.97 257.861 2147.14 257.29 Q2146.35 256.676 2145.6 256.456 Q2144.9 256.236 2144.11 256.236 Q2142.79 256.236 2141.3 256.763 Q2139.85 257.29 2138.09 258.52 Q2136.38 259.706 2134.75 262.165 Q2133.13 264.625 2132.03 268.006 Q2131.81 269.016 2130.85 269.016 Q2129.79 268.972 2129.79 268.094 Q2129.79 267.347 2130.36 265.81 Q2130.98 264.229 2132.21 262.253 Q2133.48 260.277 2135.11 258.52 Q2136.77 256.719 2139.19 255.49 Q2141.65 254.26 2144.28 254.26 Q2145.47 254.26 2146.61 254.524 Q2147.8 254.743 2149.2 255.402 Q2150.65 256.061 2151.93 257.51 Q2153.2 258.959 2153.99 261.067 Q2154.52 260.057 2155.22 259.091 Q2155.97 258.125 2157.11 256.939 Q2158.29 255.709 2159.92 255.007 Q2161.59 254.26 2163.43 254.26 Q2165.23 254.26 2166.99 254.743 Q2168.75 255.182 2170.24 256.632 Q2171.78 258.037 2171.78 260.189 Z" fill="#000000" fill-rule="evenodd" fill-opacity="1" /><polyline clip-path="url(#clip490)" style="stroke:#e26f46; stroke-linecap:round; stroke-linejoin:round; stroke-width:15; stroke-opacity:1; fill:none" points="1958.08,432.868 2102,432.868 "/>
<path clip-path="url(#clip490)" d="M2188 348.828 L2175.04 400.825 Q2174.52 403.153 2174.52 405.129 Q2174.52 409.257 2177.2 409.257 Q2178.51 409.257 2179.57 408.423 Q2180.62 407.589 2181.46 405.832 Q2182.29 404.075 2182.82 402.45 Q2183.34 400.781 2184.05 398.146 Q2184.27 397.092 2184.44 396.829 Q2184.66 396.522 2185.28 396.522 Q2186.37 396.522 2186.37 397.4 Q2185.19 403.065 2183.65 406.315 Q2181.19 411.278 2177.02 411.278 Q2173.86 411.278 2171.62 409.345 Q2169.38 407.413 2168.85 404.514 Q2163.1 411.278 2157.13 411.278 Q2151.86 411.278 2148.52 407.281 Q2145.18 403.241 2145.18 396.873 Q2145.18 390.461 2148.34 384.313 Q2151.55 378.164 2156.6 374.343 Q2161.65 370.523 2166.83 370.523 Q2172.32 370.523 2175.13 376.276 L2180.53 354.932 L2180.8 353.175 Q2180.8 352.648 2180.58 352.385 Q2180.4 352.077 2179.35 351.858 Q2178.34 351.638 2176.32 351.638 Q2175.48 351.638 2175.09 351.594 Q2174.74 351.55 2174.43 351.331 Q2174.12 351.067 2174.12 350.54 Q2174.12 349.003 2175.4 348.828 Q2183.83 347.861 2186.81 347.861 Q2187.34 347.861 2187.65 348.125 Q2187.96 348.344 2187.96 348.608 L2188 348.828 M2174.03 380.404 Q2174.03 380.009 2173.73 378.911 Q2173.42 377.813 2172.72 376.276 Q2172.01 374.739 2170.48 373.641 Q2168.98 372.499 2166.96 372.499 Q2164.24 372.499 2161.39 374.826 Q2158.58 377.154 2156.51 381.107 Q2154.93 384.269 2153.22 390.9 Q2151.55 397.532 2151.55 400.825 Q2151.55 402.846 2151.99 404.646 Q2152.47 406.403 2153.83 407.852 Q2155.19 409.257 2157.3 409.257 Q2162.44 409.257 2167.49 402.889 Q2168.46 401.792 2168.68 401.352 Q2168.94 400.869 2169.29 399.552 L2173.77 381.941 Q2174.03 380.624 2174.03 380.404 Z" fill="#000000" fill-rule="evenodd" fill-opacity="1" /><path clip-path="url(#clip490)" d="M2232.91 349.655 Q2232.91 349.716 2232.85 349.778 Q2232.45 353.036 2231.68 354.85 Q2230.91 356.633 2229.19 357.463 Q2227.93 358.078 2226.36 358.078 Q2223.99 358.078 2220.58 356.51 Q2220.46 356.449 2219.78 356.141 Q2219.1 355.834 2218.86 355.741 Q2218.61 355.649 2218.09 355.465 Q2217.57 355.25 2217.17 355.188 Q2216.77 355.127 2216.37 355.127 Q2215.51 355.127 2214.77 355.496 Q2213.26 356.233 2212.34 357.34 Q2211.39 358.416 2211.14 360.353 Q2211.08 360.599 2210.87 360.783 Q2210.65 360.968 2210.37 360.968 Q2210.1 360.968 2209.85 360.752 Q2209.6 360.537 2209.6 360.23 Q2209.6 360.168 2209.67 360.107 Q2210.07 356.848 2210.83 355.065 Q2211.6 353.251 2213.32 352.421 Q2214.68 351.776 2216.15 351.776 Q2218.46 351.776 2221.96 353.374 Q2222.09 353.436 2222.76 353.743 Q2223.44 354.051 2223.68 354.143 Q2223.93 354.235 2224.45 354.45 Q2224.98 354.635 2225.38 354.696 Q2225.77 354.758 2226.17 354.758 Q2226.94 354.758 2227.74 354.358 Q2229.25 353.62 2230.2 352.544 Q2231.15 351.468 2231.4 349.532 Q2231.46 349.286 2231.68 349.101 Q2231.89 348.886 2232.17 348.886 Q2232.45 348.886 2232.69 349.132 Q2232.91 349.347 2232.91 349.655 Z" fill="#000000" fill-rule="evenodd" fill-opacity="1" /><path clip-path="url(#clip490)" d="M2237.25 376.451 Q2237.25 378.911 2235.72 380.316 Q2234.18 381.678 2232.42 381.678 Q2230.76 381.678 2229.88 380.711 Q2229 379.745 2229 378.516 Q2229 376.847 2230.23 375.397 Q2231.46 373.948 2233.3 373.641 Q2231.5 372.499 2228.82 372.499 Q2227.07 372.499 2225.53 373.421 Q2224.04 374.343 2223.11 375.529 Q2222.24 376.715 2221.44 378.428 Q2220.7 380.097 2220.39 381.107 Q2220.13 382.073 2219.91 383.127 L2216.83 395.424 Q2215.34 401.265 2215.34 403.329 Q2215.34 405.876 2216.57 407.589 Q2217.8 409.257 2220.26 409.257 Q2221.22 409.257 2222.32 408.994 Q2223.42 408.687 2224.83 407.896 Q2226.28 407.062 2227.55 405.832 Q2228.87 404.558 2230.14 402.406 Q2231.41 400.254 2232.25 397.488 Q2232.51 396.522 2233.39 396.522 Q2234.49 396.522 2234.49 397.4 Q2234.49 398.146 2233.87 399.727 Q2233.3 401.265 2232.03 403.285 Q2230.8 405.261 2229.17 407.062 Q2227.55 408.818 2225.13 410.048 Q2222.72 411.278 2220.08 411.278 Q2216.31 411.278 2213.8 409.257 Q2211.3 407.237 2210.38 404.427 Q2210.16 404.822 2209.85 405.349 Q2209.54 405.876 2208.62 407.062 Q2207.74 408.203 2206.73 409.082 Q2205.72 409.916 2204.14 410.575 Q2202.6 411.278 2200.94 411.278 Q2198.83 411.278 2196.94 410.663 Q2195.09 410.048 2193.78 408.643 Q2192.46 407.237 2192.46 405.305 Q2192.46 403.153 2193.91 401.66 Q2195.4 400.123 2197.42 400.123 Q2198.7 400.123 2199.71 400.869 Q2200.76 401.616 2200.76 403.241 Q2200.76 405.041 2199.53 406.403 Q2198.3 407.764 2196.54 408.116 Q2198.34 409.257 2201.02 409.257 Q2203.92 409.257 2206.21 406.71 Q2208.49 404.163 2209.59 399.903 Q2212.31 389.67 2213.36 385.103 Q2214.42 380.492 2214.42 378.516 Q2214.42 376.671 2213.93 375.397 Q2213.45 374.124 2212.62 373.553 Q2211.83 372.938 2211.08 372.718 Q2210.38 372.499 2209.59 372.499 Q2208.27 372.499 2206.78 373.026 Q2205.33 373.553 2203.57 374.783 Q2201.86 375.968 2200.23 378.428 Q2198.61 380.887 2197.51 384.269 Q2197.29 385.279 2196.32 385.279 Q2195.27 385.235 2195.27 384.356 Q2195.27 383.61 2195.84 382.073 Q2196.46 380.492 2197.69 378.516 Q2198.96 376.539 2200.58 374.783 Q2202.25 372.982 2204.67 371.752 Q2207.13 370.523 2209.76 370.523 Q2210.95 370.523 2212.09 370.786 Q2213.28 371.006 2214.68 371.664 Q2216.13 372.323 2217.4 373.772 Q2218.68 375.222 2219.47 377.33 Q2220 376.32 2220.7 375.353 Q2221.44 374.387 2222.59 373.202 Q2223.77 371.972 2225.4 371.269 Q2227.07 370.523 2228.91 370.523 Q2230.71 370.523 2232.47 371.006 Q2234.22 371.445 2235.72 372.894 Q2237.25 374.299 2237.25 376.451 Z" fill="#000000" fill-rule="evenodd" fill-opacity="1" /><path clip-path="url(#clip490)" d="M2145.18 435.268 L2247.22 435.268 L2247.22 430.468 L2145.18 430.468  Z" fill="#000000" fill-rule="evenodd" fill-opacity="1"/>
<path clip-path="url(#clip490)" d="M2198 454.84 L2185.04 506.838 Q2184.52 509.165 2184.52 511.142 Q2184.52 515.27 2187.2 515.27 Q2188.51 515.27 2189.57 514.436 Q2190.62 513.601 2191.46 511.844 Q2192.29 510.088 2192.82 508.463 Q2193.34 506.794 2194.05 504.159 Q2194.27 503.105 2194.44 502.841 Q2194.66 502.534 2195.28 502.534 Q2196.37 502.534 2196.37 503.412 Q2195.19 509.078 2193.65 512.328 Q2191.19 517.29 2187.02 517.29 Q2183.86 517.29 2181.62 515.358 Q2179.38 513.425 2178.85 510.527 Q2173.1 517.29 2167.13 517.29 Q2161.86 517.29 2158.52 513.294 Q2155.18 509.253 2155.18 502.885 Q2155.18 496.473 2158.34 490.325 Q2161.55 484.177 2166.6 480.356 Q2171.65 476.535 2176.83 476.535 Q2182.32 476.535 2185.13 482.288 L2190.53 460.945 L2190.8 459.188 Q2190.8 458.661 2190.58 458.397 Q2190.4 458.09 2189.35 457.87 Q2188.34 457.651 2186.32 457.651 Q2185.48 457.651 2185.09 457.607 Q2184.74 457.563 2184.43 457.343 Q2184.12 457.08 2184.12 456.553 Q2184.12 455.016 2185.4 454.84 Q2193.83 453.874 2196.81 453.874 Q2197.34 453.874 2197.65 454.137 Q2197.96 454.357 2197.96 454.62 L2198 454.84 M2184.03 486.416 Q2184.03 486.021 2183.73 484.923 Q2183.42 483.825 2182.72 482.288 Q2182.01 480.751 2180.48 479.653 Q2178.98 478.511 2176.96 478.511 Q2174.24 478.511 2171.39 480.839 Q2168.58 483.167 2166.51 487.119 Q2164.93 490.281 2163.22 496.913 Q2161.55 503.544 2161.55 506.838 Q2161.55 508.858 2161.99 510.659 Q2162.47 512.415 2163.83 513.865 Q2165.19 515.27 2167.3 515.27 Q2172.44 515.27 2177.49 508.902 Q2178.46 507.804 2178.68 507.365 Q2178.94 506.882 2179.29 505.564 L2183.77 487.954 Q2184.03 486.636 2184.03 486.416 Z" fill="#000000" fill-rule="evenodd" fill-opacity="1" /><path clip-path="url(#clip490)" d="M2227.64 478.511 Q2227.64 479.741 2227.07 480.048 Q2226.5 480.312 2224.92 480.312 L2216.49 480.312 L2209.81 506.838 Q2209.29 509.165 2209.29 511.142 Q2209.29 513.338 2209.94 514.304 Q2210.65 515.27 2212.1 515.27 Q2214.95 515.27 2218.03 512.679 Q2221.14 510.088 2223.78 503.764 Q2224.13 502.929 2224.31 502.754 Q2224.53 502.534 2225.1 502.534 Q2226.19 502.534 2226.19 503.412 Q2226.19 503.72 2225.58 505.125 Q2225.01 506.53 2223.73 508.595 Q2222.5 510.659 2220.88 512.591 Q2219.3 514.523 2216.88 515.929 Q2214.47 517.29 2211.88 517.29 Q2208.23 517.29 2205.9 514.963 Q2203.62 512.635 2203.62 508.99 Q2203.62 507.804 2204.54 504.027 Q2205.47 500.206 2210.47 480.312 L2202.52 480.312 Q2201.42 480.312 2200.99 480.268 Q2200.59 480.224 2200.28 480.005 Q2200.02 479.741 2200.02 479.214 Q2200.02 478.38 2200.37 478.028 Q2200.72 477.633 2201.16 477.589 Q2201.64 477.501 2202.74 477.501 L2211.17 477.501 L2214.69 463.228 Q2215.04 461.823 2215.92 461.032 Q2216.84 460.198 2217.37 460.11 Q2217.89 459.978 2218.29 459.978 Q2219.47 459.978 2220.18 460.637 Q2220.88 461.252 2220.88 462.394 Q2220.88 463.009 2217.19 477.501 L2225.1 477.501 Q2226.11 477.501 2226.5 477.545 Q2226.94 477.589 2227.29 477.809 Q2227.64 478.028 2227.64 478.511 Z" fill="#000000" fill-rule="evenodd" fill-opacity="1" /><polyline clip-path="url(#clip490)" style="stroke:#3da44d; stroke-linecap:round; stroke-linejoin:round; stroke-width:15; stroke-opacity:1; fill:none" points="1958.08,601.693 2102,601.693 "/>
<path clip-path="url(#clip490)" d="M2167.43 559.816 Q2167.43 559.877 2167.37 559.938 Q2166.97 563.197 2166.2 565.011 Q2165.43 566.794 2163.71 567.624 Q2162.45 568.239 2160.88 568.239 Q2158.51 568.239 2155.1 566.671 Q2154.98 566.609 2154.3 566.302 Q2153.63 565.995 2153.38 565.902 Q2153.13 565.81 2152.61 565.626 Q2152.09 565.411 2151.69 565.349 Q2151.29 565.288 2150.89 565.288 Q2150.03 565.288 2149.29 565.656 Q2147.78 566.394 2146.86 567.501 Q2145.91 568.577 2145.66 570.514 Q2145.6 570.76 2145.39 570.944 Q2145.17 571.129 2144.89 571.129 Q2144.62 571.129 2144.37 570.913 Q2144.13 570.698 2144.13 570.391 Q2144.13 570.329 2144.19 570.268 Q2144.59 567.009 2145.36 565.226 Q2146.12 563.412 2147.85 562.582 Q2149.2 561.937 2150.67 561.937 Q2152.98 561.937 2156.48 563.535 Q2156.61 563.597 2157.28 563.904 Q2157.96 564.212 2158.21 564.304 Q2158.45 564.396 2158.97 564.611 Q2159.5 564.796 2159.9 564.857 Q2160.3 564.919 2160.7 564.919 Q2161.46 564.919 2162.26 564.519 Q2163.77 563.781 2164.72 562.705 Q2165.68 561.629 2165.92 559.693 Q2165.98 559.447 2166.2 559.262 Q2166.41 559.047 2166.69 559.047 Q2166.97 559.047 2167.21 559.293 Q2167.43 559.508 2167.43 559.816 Z" fill="#000000" fill-rule="evenodd" fill-opacity="1" /><path clip-path="url(#clip490)" d="M2166.09 617.498 Q2166.09 623.822 2162.89 630.014 Q2159.73 636.162 2154.63 640.027 Q2149.58 643.892 2144.4 643.892 Q2139.35 643.892 2136.14 640.027 Q2132.98 636.118 2132.98 629.75 Q2132.98 627.511 2133.24 625.93 Q2133.51 624.349 2134.43 620.66 L2141.81 591.323 Q2143.08 585.833 2143.08 585.789 Q2143.08 585.262 2142.86 584.999 Q2142.69 584.691 2141.63 584.472 Q2140.58 584.252 2138.56 584.252 Q2137.72 584.252 2137.33 584.208 Q2136.98 584.164 2136.67 583.945 Q2136.41 583.681 2136.41 583.154 Q2136.41 582.408 2136.71 582.013 Q2137.06 581.573 2137.33 581.486 Q2137.59 581.398 2138.12 581.354 Q2138.87 581.31 2141.37 581.09 Q2143.87 580.827 2146.02 580.651 Q2148.18 580.475 2149.1 580.475 Q2149.63 580.475 2149.89 580.739 Q2150.2 580.959 2150.2 581.222 L2150.24 581.442 L2143.61 608.538 Q2148.83 603.137 2154.15 603.137 Q2159.46 603.137 2162.76 607.221 Q2166.09 611.305 2166.09 617.498 M2159.59 613.545 Q2159.59 609.373 2158.01 607.265 Q2156.48 605.113 2153.93 605.113 Q2151.78 605.113 2148.97 606.738 Q2146.16 608.363 2143.17 612.315 Q2142.6 613.062 2142.38 613.501 Q2142.2 613.94 2141.81 615.433 L2139.83 623.734 Q2138.38 629.399 2138.38 632.825 Q2138.38 637.48 2140.1 639.676 Q2141.81 641.872 2144.4 641.872 Q2147.12 641.872 2149.98 639.456 Q2152.83 637.041 2155.03 632.649 Q2156.39 629.75 2157.97 623.514 Q2159.59 617.234 2159.59 613.545 Z" fill="#000000" fill-rule="evenodd" fill-opacity="1" /></svg>
