<?xml version="1.0" encoding="utf-8"?>
<svg xmlns="http://www.w3.org/2000/svg" xmlns:xlink="http://www.w3.org/1999/xlink" width="600" height="400" viewBox="0 0 2400 1600">
<defs>
  <clipPath id="clip520">
    <rect x="0" y="0" width="2400" height="1600"/>
  </clipPath>
</defs>
<path clip-path="url(#clip520)" d="M0 1600 L2400 1600 L2400 0 L0 0  Z" fill="#ffffff" fill-rule="evenodd" fill-opacity="1"/>
<defs>
  <clipPath id="clip521">
    <rect x="480" y="0" width="1681" height="1600"/>
  </clipPath>
</defs>
<defs>
  <clipPath id="clip522">
    <rect x="194" y="47" width="2160" height="1440"/>
  </clipPath>
</defs>
<path clip-path="url(#clip520)" d="M192.941 1486.45 L2352.76 1486.45 L2352.76 47.2441 L192.941 47.2441  Z" fill="#ffffff" fill-rule="evenodd" fill-opacity="1"/>
<defs>
  <clipPath id="clip523">
    <rect x="192" y="47" width="2161" height="1440"/>
  </clipPath>
</defs>
<polyline clip-path="url(#clip523)" style="stroke:#000000; stroke-linecap:round; stroke-linejoin:round; stroke-width:2; stroke-opacity:0.1; fill:none" points="254.067,1486.45 254.067,47.2441 "/>
<polyline clip-path="url(#clip523)" style="stroke:#000000; stroke-linecap:round; stroke-linejoin:round; stroke-width:2; stroke-opacity:0.1; fill:none" points="763.458,1486.45 763.458,47.2441 "/>
<polyline clip-path="url(#clip523)" style="stroke:#000000; stroke-linecap:round; stroke-linejoin:round; stroke-width:2; stroke-opacity:0.1; fill:none" points="1272.85,1486.45 1272.85,47.2441 "/>
<polyline clip-path="url(#clip523)" style="stroke:#000000; stroke-linecap:round; stroke-linejoin:round; stroke-width:2; stroke-opacity:0.1; fill:none" points="1782.24,1486.45 1782.24,47.2441 "/>
<polyline clip-path="url(#clip523)" style="stroke:#000000; stroke-linecap:round; stroke-linejoin:round; stroke-width:2; stroke-opacity:0.1; fill:none" points="2291.63,1486.45 2291.63,47.2441 "/>
<polyline clip-path="url(#clip520)" style="stroke:#000000; stroke-linecap:round; stroke-linejoin:round; stroke-width:4; stroke-opacity:1; fill:none" points="192.941,1486.45 2352.76,1486.45 "/>
<polyline clip-path="url(#clip520)" style="stroke:#000000; stroke-linecap:round; stroke-linejoin:round; stroke-width:4; stroke-opacity:1; fill:none" points="254.067,1486.45 254.067,1467.55 "/>
<polyline clip-path="url(#clip520)" style="stroke:#000000; stroke-linecap:round; stroke-linejoin:round; stroke-width:4; stroke-opacity:1; fill:none" points="763.458,1486.45 763.458,1467.55 "/>
<polyline clip-path="url(#clip520)" style="stroke:#000000; stroke-linecap:round; stroke-linejoin:round; stroke-width:4; stroke-opacity:1; fill:none" points="1272.85,1486.45 1272.85,1467.55 "/>
<polyline clip-path="url(#clip520)" style="stroke:#000000; stroke-linecap:round; stroke-linejoin:round; stroke-width:4; stroke-opacity:1; fill:none" points="1782.24,1486.45 1782.24,1467.55 "/>
<polyline clip-path="url(#clip520)" style="stroke:#000000; stroke-linecap:round; stroke-linejoin:round; stroke-width:4; stroke-opacity:1; fill:none" points="2291.63,1486.45 2291.63,1467.55 "/>
<path clip-path="url(#clip520)" d="M254.067 1517.37 Q250.456 1517.37 248.628 1520.93 Q246.822 1524.47 246.822 1531.6 Q246.822 1538.71 248.628 1542.27 Q250.456 1545.82 254.067 1545.82 Q257.702 1545.82 259.507 1542.27 Q261.336 1538.71 261.336 1531.6 Q261.336 1524.47 259.507 1520.93 Q257.702 1517.37 254.067 1517.37 M254.067 1513.66 Q259.878 1513.66 262.933 1518.27 Q266.012 1522.85 266.012 1531.6 Q266.012 1540.33 262.933 1544.94 Q259.878 1549.52 254.067 1549.52 Q248.257 1549.52 245.179 1544.94 Q242.123 1540.33 242.123 1531.6 Q242.123 1522.85 245.179 1518.27 Q248.257 1513.66 254.067 1513.66 Z" fill="#000000" fill-rule="evenodd" fill-opacity="1" /><path clip-path="url(#clip520)" d="M753.736 1514.29 L772.092 1514.29 L772.092 1518.22 L758.018 1518.22 L758.018 1526.7 Q759.037 1526.35 760.055 1526.19 Q761.074 1526 762.092 1526 Q767.879 1526 771.259 1529.17 Q774.638 1532.34 774.638 1537.76 Q774.638 1543.34 771.166 1546.44 Q767.694 1549.52 761.375 1549.52 Q759.199 1549.52 756.93 1549.15 Q754.685 1548.78 752.277 1548.04 L752.277 1543.34 Q754.361 1544.47 756.583 1545.03 Q758.805 1545.58 761.282 1545.58 Q765.287 1545.58 767.625 1543.48 Q769.962 1541.37 769.962 1537.76 Q769.962 1534.15 767.625 1532.04 Q765.287 1529.94 761.282 1529.94 Q759.407 1529.94 757.532 1530.35 Q755.68 1530.77 753.736 1531.65 L753.736 1514.29 Z" fill="#000000" fill-rule="evenodd" fill-opacity="1" /><path clip-path="url(#clip520)" d="M1247.54 1544.91 L1255.17 1544.91 L1255.17 1518.55 L1246.86 1520.21 L1246.86 1515.95 L1255.13 1514.29 L1259.8 1514.29 L1259.8 1544.91 L1267.44 1544.91 L1267.44 1548.85 L1247.54 1548.85 L1247.54 1544.91 Z" fill="#000000" fill-rule="evenodd" fill-opacity="1" /><path clip-path="url(#clip520)" d="M1286.89 1517.37 Q1283.28 1517.37 1281.45 1520.93 Q1279.64 1524.47 1279.64 1531.6 Q1279.64 1538.71 1281.45 1542.27 Q1283.28 1545.82 1286.89 1545.82 Q1290.52 1545.82 1292.33 1542.27 Q1294.16 1538.71 1294.16 1531.6 Q1294.16 1524.47 1292.33 1520.93 Q1290.52 1517.37 1286.89 1517.37 M1286.89 1513.66 Q1292.7 1513.66 1295.75 1518.27 Q1298.83 1522.85 1298.83 1531.6 Q1298.83 1540.33 1295.75 1544.94 Q1292.7 1549.52 1286.89 1549.52 Q1281.08 1549.52 1278 1544.94 Q1274.94 1540.33 1274.94 1531.6 Q1274.94 1522.85 1278 1518.27 Q1281.08 1513.66 1286.89 1513.66 Z" fill="#000000" fill-rule="evenodd" fill-opacity="1" /><path clip-path="url(#clip520)" d="M1757.42 1544.91 L1765.06 1544.91 L1765.06 1518.55 L1756.75 1520.21 L1756.75 1515.95 L1765.02 1514.29 L1769.69 1514.29 L1769.69 1544.91 L1777.33 1544.91 L1777.33 1548.85 L1757.42 1548.85 L1757.42 1544.91 Z" fill="#000000" fill-rule="evenodd" fill-opacity="1" /><path clip-path="url(#clip520)" d="M1786.82 1514.29 L1805.18 1514.29 L1805.18 1518.22 L1791.1 1518.22 L1791.1 1526.7 Q1792.12 1526.35 1793.14 1526.19 Q1794.16 1526 1795.18 1526 Q1800.97 1526 1804.35 1529.17 Q1807.72 1532.34 1807.72 1537.76 Q1807.72 1543.34 1804.25 1546.44 Q1800.78 1549.52 1794.46 1549.52 Q1792.28 1549.52 1790.02 1549.15 Q1787.77 1548.78 1785.36 1548.04 L1785.36 1543.34 Q1787.45 1544.47 1789.67 1545.03 Q1791.89 1545.58 1794.37 1545.58 Q1798.37 1545.58 1800.71 1543.48 Q1803.05 1541.37 1803.05 1537.76 Q1803.05 1534.15 1800.71 1532.04 Q1798.37 1529.94 1794.37 1529.94 Q1792.49 1529.94 1790.62 1530.35 Q1788.77 1530.77 1786.82 1531.65 L1786.82 1514.29 Z" fill="#000000" fill-rule="evenodd" fill-opacity="1" /><path clip-path="url(#clip520)" d="M2270.4 1544.91 L2286.72 1544.91 L2286.72 1548.85 L2264.78 1548.85 L2264.78 1544.91 Q2267.44 1542.16 2272.02 1537.53 Q2276.63 1532.88 2277.81 1531.53 Q2280.06 1529.01 2280.93 1527.27 Q2281.84 1525.51 2281.84 1523.82 Q2281.84 1521.07 2279.89 1519.33 Q2277.97 1517.6 2274.87 1517.6 Q2272.67 1517.6 2270.22 1518.36 Q2267.79 1519.13 2265.01 1520.68 L2265.01 1515.95 Q2267.83 1514.82 2270.29 1514.24 Q2272.74 1513.66 2274.78 1513.66 Q2280.15 1513.66 2283.34 1516.35 Q2286.54 1519.03 2286.54 1523.52 Q2286.54 1525.65 2285.73 1527.57 Q2284.94 1529.47 2282.83 1532.07 Q2282.25 1532.74 2279.15 1535.95 Q2276.05 1539.15 2270.4 1544.91 Z" fill="#000000" fill-rule="evenodd" fill-opacity="1" /><path clip-path="url(#clip520)" d="M2306.54 1517.37 Q2302.93 1517.37 2301.1 1520.93 Q2299.29 1524.47 2299.29 1531.6 Q2299.29 1538.71 2301.1 1542.27 Q2302.93 1545.82 2306.54 1545.82 Q2310.17 1545.82 2311.98 1542.27 Q2313.8 1538.71 2313.8 1531.6 Q2313.8 1524.47 2311.98 1520.93 Q2310.17 1517.37 2306.54 1517.37 M2306.54 1513.66 Q2312.35 1513.66 2315.4 1518.27 Q2318.48 1522.85 2318.48 1531.6 Q2318.48 1540.33 2315.4 1544.94 Q2312.35 1549.52 2306.54 1549.52 Q2300.73 1549.52 2297.65 1544.94 Q2294.59 1540.33 2294.59 1531.6 Q2294.59 1522.85 2297.65 1518.27 Q2300.73 1513.66 2306.54 1513.66 Z" fill="#000000" fill-rule="evenodd" fill-opacity="1" /><polyline clip-path="url(#clip523)" style="stroke:#000000; stroke-linecap:round; stroke-linejoin:round; stroke-width:2; stroke-opacity:0.1; fill:none" points="192.941,1398.91 2352.76,1398.91 "/>
<polyline clip-path="url(#clip523)" style="stroke:#000000; stroke-linecap:round; stroke-linejoin:round; stroke-width:2; stroke-opacity:0.1; fill:none" points="192.941,963.857 2352.76,963.857 "/>
<polyline clip-path="url(#clip523)" style="stroke:#000000; stroke-linecap:round; stroke-linejoin:round; stroke-width:2; stroke-opacity:0.1; fill:none" points="192.941,528.804 2352.76,528.804 "/>
<polyline clip-path="url(#clip523)" style="stroke:#000000; stroke-linecap:round; stroke-linejoin:round; stroke-width:2; stroke-opacity:0.1; fill:none" points="192.941,93.7507 2352.76,93.7507 "/>
<polyline clip-path="url(#clip520)" style="stroke:#000000; stroke-linecap:round; stroke-linejoin:round; stroke-width:4; stroke-opacity:1; fill:none" points="192.941,1486.45 192.941,47.2441 "/>
<polyline clip-path="url(#clip520)" style="stroke:#000000; stroke-linecap:round; stroke-linejoin:round; stroke-width:4; stroke-opacity:1; fill:none" points="192.941,1398.91 211.838,1398.91 "/>
<polyline clip-path="url(#clip520)" style="stroke:#000000; stroke-linecap:round; stroke-linejoin:round; stroke-width:4; stroke-opacity:1; fill:none" points="192.941,963.857 211.838,963.857 "/>
<polyline clip-path="url(#clip520)" style="stroke:#000000; stroke-linecap:round; stroke-linejoin:round; stroke-width:4; stroke-opacity:1; fill:none" points="192.941,528.804 211.838,528.804 "/>
<polyline clip-path="url(#clip520)" style="stroke:#000000; stroke-linecap:round; stroke-linejoin:round; stroke-width:4; stroke-opacity:1; fill:none" points="192.941,93.7507 211.838,93.7507 "/>
<path clip-path="url(#clip520)" d="M50.9921 1399.36 L80.6679 1399.36 L80.6679 1403.3 L50.9921 1403.3 L50.9921 1399.36 Z" fill="#000000" fill-rule="evenodd" fill-opacity="1" /><path clip-path="url(#clip520)" d="M100.76 1384.71 Q97.1493 1384.71 95.3206 1388.27 Q93.515 1391.82 93.515 1398.95 Q93.515 1406.05 95.3206 1409.62 Q97.1493 1413.16 100.76 1413.16 Q104.395 1413.16 106.2 1409.62 Q108.029 1406.05 108.029 1398.95 Q108.029 1391.82 106.2 1388.27 Q104.395 1384.71 100.76 1384.71 M100.76 1381.01 Q106.571 1381.01 109.626 1385.61 Q112.705 1390.2 112.705 1398.95 Q112.705 1407.67 109.626 1412.28 Q106.571 1416.86 100.76 1416.86 Q94.9502 1416.86 91.8715 1412.28 Q88.816 1407.67 88.816 1398.95 Q88.816 1390.2 91.8715 1385.61 Q94.9502 1381.01 100.76 1381.01 Z" fill="#000000" fill-rule="evenodd" fill-opacity="1" /><path clip-path="url(#clip520)" d="M120.922 1410.31 L125.807 1410.31 L125.807 1416.19 L120.922 1416.19 L120.922 1410.31 Z" fill="#000000" fill-rule="evenodd" fill-opacity="1" /><path clip-path="url(#clip520)" d="M136.038 1381.63 L154.394 1381.63 L154.394 1385.57 L140.32 1385.57 L140.32 1394.04 Q141.339 1393.69 142.357 1393.53 Q143.376 1393.34 144.394 1393.34 Q150.181 1393.34 153.561 1396.51 Q156.941 1399.69 156.941 1405.1 Q156.941 1410.68 153.468 1413.78 Q149.996 1416.86 143.677 1416.86 Q141.501 1416.86 139.232 1416.49 Q136.987 1416.12 134.58 1415.38 L134.58 1410.68 Q136.663 1411.82 138.885 1412.37 Q141.107 1412.93 143.584 1412.93 Q147.589 1412.93 149.927 1410.82 Q152.265 1408.71 152.265 1405.1 Q152.265 1401.49 149.927 1399.39 Q147.589 1397.28 143.584 1397.28 Q141.709 1397.28 139.834 1397.7 Q137.982 1398.11 136.038 1398.99 L136.038 1381.63 Z" fill="#000000" fill-rule="evenodd" fill-opacity="1" /><path clip-path="url(#clip520)" d="M99.765 949.656 Q96.1539 949.656 94.3252 953.221 Q92.5197 956.762 92.5197 963.892 Q92.5197 970.999 94.3252 974.563 Q96.1539 978.105 99.765 978.105 Q103.399 978.105 105.205 974.563 Q107.033 970.999 107.033 963.892 Q107.033 956.762 105.205 953.221 Q103.399 949.656 99.765 949.656 M99.765 945.952 Q105.575 945.952 108.631 950.559 Q111.709 955.142 111.709 963.892 Q111.709 972.619 108.631 977.225 Q105.575 981.809 99.765 981.809 Q93.9549 981.809 90.8762 977.225 Q87.8206 972.619 87.8206 963.892 Q87.8206 955.142 90.8762 950.559 Q93.9549 945.952 99.765 945.952 Z" fill="#000000" fill-rule="evenodd" fill-opacity="1" /><path clip-path="url(#clip520)" d="M119.927 975.258 L124.811 975.258 L124.811 981.137 L119.927 981.137 L119.927 975.258 Z" fill="#000000" fill-rule="evenodd" fill-opacity="1" /><path clip-path="url(#clip520)" d="M144.996 949.656 Q141.385 949.656 139.556 953.221 Q137.751 956.762 137.751 963.892 Q137.751 970.999 139.556 974.563 Q141.385 978.105 144.996 978.105 Q148.63 978.105 150.436 974.563 Q152.265 970.999 152.265 963.892 Q152.265 956.762 150.436 953.221 Q148.63 949.656 144.996 949.656 M144.996 945.952 Q150.806 945.952 153.862 950.559 Q156.941 955.142 156.941 963.892 Q156.941 972.619 153.862 977.225 Q150.806 981.809 144.996 981.809 Q139.186 981.809 136.107 977.225 Q133.052 972.619 133.052 963.892 Q133.052 955.142 136.107 950.559 Q139.186 945.952 144.996 945.952 Z" fill="#000000" fill-rule="evenodd" fill-opacity="1" /><path clip-path="url(#clip520)" d="M100.76 514.603 Q97.1493 514.603 95.3206 518.168 Q93.515 521.709 93.515 528.839 Q93.515 535.945 95.3206 539.51 Q97.1493 543.052 100.76 543.052 Q104.395 543.052 106.2 539.51 Q108.029 535.945 108.029 528.839 Q108.029 521.709 106.2 518.168 Q104.395 514.603 100.76 514.603 M100.76 510.899 Q106.571 510.899 109.626 515.505 Q112.705 520.089 112.705 528.839 Q112.705 537.566 109.626 542.172 Q106.571 546.755 100.76 546.755 Q94.9502 546.755 91.8715 542.172 Q88.816 537.566 88.816 528.839 Q88.816 520.089 91.8715 515.505 Q94.9502 510.899 100.76 510.899 Z" fill="#000000" fill-rule="evenodd" fill-opacity="1" /><path clip-path="url(#clip520)" d="M120.922 540.204 L125.807 540.204 L125.807 546.084 L120.922 546.084 L120.922 540.204 Z" fill="#000000" fill-rule="evenodd" fill-opacity="1" /><path clip-path="url(#clip520)" d="M136.038 511.524 L154.394 511.524 L154.394 515.459 L140.32 515.459 L140.32 523.931 Q141.339 523.584 142.357 523.422 Q143.376 523.237 144.394 523.237 Q150.181 523.237 153.561 526.408 Q156.941 529.579 156.941 534.996 Q156.941 540.575 153.468 543.677 Q149.996 546.755 143.677 546.755 Q141.501 546.755 139.232 546.385 Q136.987 546.015 134.58 545.274 L134.58 540.575 Q136.663 541.709 138.885 542.265 Q141.107 542.82 143.584 542.82 Q147.589 542.82 149.927 540.714 Q152.265 538.607 152.265 534.996 Q152.265 531.385 149.927 529.279 Q147.589 527.172 143.584 527.172 Q141.709 527.172 139.834 527.589 Q137.982 528.005 136.038 528.885 L136.038 511.524 Z" fill="#000000" fill-rule="evenodd" fill-opacity="1" /><path clip-path="url(#clip520)" d="M90.5752 107.096 L98.2141 107.096 L98.2141 80.73 L89.904 82.3966 L89.904 78.1374 L98.1678 76.4707 L102.844 76.4707 L102.844 107.096 L110.483 107.096 L110.483 111.031 L90.5752 111.031 L90.5752 107.096 Z" fill="#000000" fill-rule="evenodd" fill-opacity="1" /><path clip-path="url(#clip520)" d="M119.927 105.151 L124.811 105.151 L124.811 111.031 L119.927 111.031 L119.927 105.151 Z" fill="#000000" fill-rule="evenodd" fill-opacity="1" /><path clip-path="url(#clip520)" d="M144.996 79.5494 Q141.385 79.5494 139.556 83.1142 Q137.751 86.6558 137.751 93.7854 Q137.751 100.892 139.556 104.457 Q141.385 107.998 144.996 107.998 Q148.63 107.998 150.436 104.457 Q152.265 100.892 152.265 93.7854 Q152.265 86.6558 150.436 83.1142 Q148.63 79.5494 144.996 79.5494 M144.996 75.8457 Q150.806 75.8457 153.862 80.4522 Q156.941 85.0355 156.941 93.7854 Q156.941 102.512 153.862 107.119 Q150.806 111.702 144.996 111.702 Q139.186 111.702 136.107 107.119 Q133.052 102.512 133.052 93.7854 Q133.052 85.0355 136.107 80.4522 Q139.186 75.8457 144.996 75.8457 Z" fill="#000000" fill-rule="evenodd" fill-opacity="1" /><polyline clip-path="url(#clip523)" style="stroke:#009af9; stroke-linecap:round; stroke-linejoin:round; stroke-width:8; stroke-opacity:1; fill:none" points="254.067,963.857 256.105,964.408 258.143,966.002 260.18,968.537 262.218,971.893 264.255,975.941 266.293,980.542 268.33,985.554 270.368,990.837 272.406,996.257 274.443,1001.69 276.481,1007.03 278.518,1012.18 280.556,1017.09 282.593,1021.71 284.631,1026.03 286.668,1030.07 288.706,1033.88 290.744,1037.51 292.781,1041.07 294.819,1044.65 296.856,1048.37 298.894,1052.33 300.931,1056.66 302.969,1061.45 305.007,1066.8 307.044,1072.77 309.082,1079.42 311.119,1086.77 313.157,1094.84 315.194,1103.61 317.232,1113.04 319.269,1123.08 321.307,1133.68 323.345,1144.75 325.382,1156.21 327.42,1167.98 329.457,1179.95 331.495,1192.06 333.532,1204.19 335.57,1216.29 337.608,1228.26 339.645,1240.06 341.683,1251.61 343.72,1262.88 345.758,1273.83 347.795,1284.43 349.833,1294.66 351.87,1304.52 353.908,1314.01 355.946,1323.11 357.983,1331.83 360.021,1340.16 362.058,1348.1 364.096,1355.62 366.133,1362.71 368.171,1369.3 370.208,1375.36 372.246,1380.81 374.284,1385.56 376.321,1389.5 378.359,1392.52 380.396,1394.51 382.434,1395.33 384.471,1394.86 386.509,1393.01 388.547,1389.67 390.584,1384.75 392.622,1378.19 394.659,1369.95 396.697,1360.01 398.734,1348.4 400.772,1335.13 402.809,1320.27 404.847,1303.89 406.885,1286.09 408.922,1266.97 410.96,1246.67 412.997,1225.32 415.035,1203.06 417.072,1180.03 419.11,1156.4 421.148,1132.32 423.185,1107.94 425.223,1083.43 427.26,1058.92 429.298,1034.59 431.335,1010.55 433.373,986.959 435.41,963.934 437.448,941.598 439.486,920.065 441.523,899.44 443.561,879.802 445.598,861.24 447.636,843.828 449.673,827.628 451.711,812.685 453.749,799.03 455.786,786.681 457.824,775.638 459.861,765.887 461.899,757.409 463.936,750.198 465.974,744.223 468.011,739.455 470.049,735.861 472.087,733.411 474.124,732.075 476.162,731.823 478.199,732.626 480.237,734.461 482.274,737.322 484.312,741.206 486.349,746.114 488.387,752.046 490.425,759.005 492.462,766.998 494.5,776.028 496.537,786.106 498.575,797.24 500.612,809.436 502.65,822.681 504.688,836.956 506.725,852.231 508.763,868.47 510.8,885.624 512.838,903.641 514.875,922.455 516.913,941.995 518.95,962.178 520.988,982.912 523.026,1004.1 525.063,1025.65 527.101,1047.45 529.138,1069.42 531.176,1091.45 533.213,1113.44 535.251,1135.29 537.289,1156.9 539.326,1178.16 541.364,1199 543.401,1219.32 545.439,1239.04 547.476,1258.08 549.514,1276.37 551.551,1293.82 553.589,1310.39 555.627,1326 557.664,1340.59 559.702,1354.1 561.739,1366.5 563.777,1377.7 565.814,1387.66 567.852,1396.33 569.89,1403.66 571.927,1409.59 573.965,1414.08 576.002,1417.08 578.04,1418.54 580.077,1418.43 582.115,1416.7 584.152,1413.3 586.19,1408.23 588.228,1401.48 590.265,1393.05 592.303,1382.94 594.34,1371.19 596.378,1357.81 598.415,1342.85 600.453,1326.36 602.491,1308.38 604.528,1289.01 606.566,1268.32 608.603,1246.4 610.641,1223.34 612.678,1199.26 614.716,1174.25 616.753,1148.42 618.791,1121.88 620.829,1094.76 622.866,1067.17 624.904,1039.24 626.941,1011.11 628.979,982.881 631.016,954.68 633.054,926.631 635.091,898.856 637.129,871.475 639.167,844.604 641.204,818.357 643.242,792.846 645.279,768.18 647.317,744.467 649.354,721.804 651.392,700.273 653.43,679.973 655.467,660.998 657.505,643.432 659.542,627.35 661.58,612.821 663.617,599.901 665.655,588.642 667.692,579.083 669.73,571.259 671.768,565.192 673.805,560.898 675.843,558.383 677.88,557.637 679.918,558.647 681.955,561.398 683.993,565.866 686.031,572.023 688.068,579.836 690.106,589.264 692.143,600.261 694.181,612.774 696.218,626.747 698.256,642.118 700.293,658.83 702.331,676.818 704.369,696.016 706.406,716.353 708.444,737.755 710.481,760.145 712.519,783.44 714.556,807.556 716.594,832.404 718.632,857.892 720.669,883.923 722.707,910.403 724.744,937.242 726.782,964.344 728.819,991.608 730.857,1018.94 732.894,1046.23 734.932,1073.39 736.97,1100.32 739.007,1126.91 741.045,1153.07 743.082,1178.69 745.12,1203.67 747.157,1227.92 749.195,1251.35 751.233,1273.85 753.27,1295.34 755.308,1315.73 757.345,1334.92 759.383,1352.83 761.42,1369.39 763.458,1384.5 765.495,1398.11 767.533,1410.13 769.571,1420.51 771.608,1429.18 773.646,1436.08 775.683,1441.15 777.721,1444.36 779.758,1445.72 781.796,1445.21 783.833,1442.84 785.871,1438.62 787.909,1432.55 789.946,1424.67 791.984,1415.01 794.021,1403.61 796.059,1390.52 798.096,1375.8 800.134,1359.53 802.172,1341.78 804.209,1322.62 806.247,1302.14 808.284,1280.43 810.322,1257.57 812.359,1233.66 814.397,1208.79 816.434,1183.07 818.472,1156.6 820.51,1129.49 822.547,1101.86 824.585,1073.81 826.622,1045.44 828.66,1016.87 830.697,988.205 832.735,959.557 834.773,931.036 836.81,902.75 838.848,874.808 840.885,847.318 842.923,820.386 844.96,794.119 846.998,768.624 849.035,743.996 851.073,720.318 853.111,697.693 855.148,676.22 857.186,655.99 859.223,637.086 861.261,619.584 863.298,603.553 865.336,589.056 867.374,576.147 869.411,564.872 871.449,555.272 873.486,547.38 875.524,541.219 877.561,536.8 879.599,534.134 881.636,533.224 883.674,534.064 885.712,536.644 887.749,540.946 889.787,546.943 891.824,554.604 893.862,563.888 895.899,574.751 897.937,587.145 899.975,601.017 902.012,616.31 904.05,632.961 906.087,650.905 908.125,670.072 910.162,690.387 912.2,711.772 914.237,734.144 916.275,757.417 918.313,781.5 920.35,806.3 922.388,831.723 924.425,857.674 926.463,884.056 928.5,910.771 930.538,937.718 932.575,964.797 934.613,991.905 936.651,1018.94 938.688,1045.8 940.726,1072.37 942.763,1098.56 944.801,1124.24 946.838,1149.35 948.876,1173.79 950.914,1197.45 952.951,1220.24 954.989,1242.06 957.026,1262.84 959.064,1282.48 961.101,1300.91 963.139,1318.07 965.176,1333.87 967.214,1348.28 969.252,1361.23 971.289,1372.66 973.327,1382.54 975.364,1390.83 977.402,1397.49 979.439,1402.49 981.477,1405.8 983.515,1407.41 985.552,1407.31 987.59,1405.5 989.627,1401.97 991.665,1396.75 993.702,1389.83 995.74,1381.26 997.777,1371.06 999.815,1359.28 1001.85,1345.96 1003.89,1331.16 1005.93,1314.92 1007.97,1297.32 1010,1278.42 1012.04,1258.31 1014.08,1237.05 1016.12,1214.74 1018.15,1191.46 1020.19,1167.33 1022.23,1142.42 1024.27,1116.85 1026.3,1090.71 1028.34,1064.11 1030.38,1037.14 1032.42,1009.92 1034.45,982.551 1036.49,955.148 1038.53,927.823 1040.57,900.692 1042.6,873.872 1044.64,847.466 1046.68,821.56 1048.72,796.265 1050.75,771.689 1052.79,747.933 1054.83,725.095 1056.87,703.263 1058.9,682.523 1060.94,662.953 1062.98,644.626 1065.02,627.608 1067.05,611.96 1069.09,597.737 1071.13,584.992 1073.17,573.774 1075.2,564.123 1077.24,556.077 1079.28,549.664 1081.32,544.906 1083.36,541.821 1085.39,540.418 1087.43,540.7 1089.47,542.665 1091.51,546.302 1093.54,551.596 1095.58,558.526 1097.62,567.063 1099.66,577.173 1101.69,588.818 1103.73,601.954 1105.77,616.53 1107.81,632.493 1109.84,649.782 1111.88,668.332 1113.92,688.073 1115.96,708.925 1117.99,730.803 1120.03,753.622 1122.07,777.295 1124.11,801.732 1126.14,826.842 1128.18,852.527 1130.22,878.689 1132.26,905.228 1134.29,932.037 1136.33,959.009 1138.37,986.033 1140.41,1013 1142.44,1039.78 1144.48,1066.28 1146.52,1092.41 1148.56,1118.07 1150.59,1143.14 1152.63,1167.52 1154.67,1191.12 1156.71,1213.84 1158.74,1235.6 1160.78,1256.31 1162.82,1275.89 1164.86,1294.27 1166.9,1311.37 1168.93,1327.14 1170.97,1341.5 1173.01,1354.41 1175.05,1365.81 1177.08,1375.65 1179.12,1383.89 1181.16,1390.5 1183.2,1395.45 1185.23,1398.71 1187.27,1400.27 1189.31,1400.12 1191.35,1398.26 1193.38,1394.69 1195.42,1389.43 1197.46,1382.5 1199.5,1373.92 1201.53,1363.72 1203.57,1351.96 1205.61,1338.66 1207.65,1323.88 1209.68,1307.68 1211.72,1290.13 1213.76,1271.28 1215.8,1251.21 1217.83,1230.02 1219.87,1207.78 1221.91,1184.59 1223.95,1160.52 1225.98,1135.68 1228.02,1110.15 1230.06,1084.05 1232.1,1057.47 1234.13,1030.51 1236.17,1003.3 1238.21,975.929 1240.25,948.528 1242.28,921.213 1244.32,894.078 1246.36,867.223 1248.4,840.761 1250.44,814.801 1252.47,789.45 1254.51,764.808 1256.55,740.972 1258.59,718.034 1260.62,696.085 1262.66,675.209 1264.7,655.486 1266.74,636.993 1268.77,619.799 1270.81,603.971 1272.85,589.575 1274.89,576.67 1276.92,565.308 1278.96,555.535 1281,547.39 1283.04,540.904 1285.07,536.103 1287.11,533.006 1289.15,531.624 1291.19,531.963 1293.22,534.02 1295.26,537.781 1297.3,543.228 1299.34,550.34 1301.37,559.088 1303.41,569.435 1305.45,581.343 1307.49,594.765 1309.52,609.649 1311.56,625.937 1313.6,643.564 1315.64,662.459 1317.67,682.545 1319.71,703.742 1321.75,725.972 1323.79,749.149 1325.82,773.184 1327.86,797.987 1329.9,823.46 1331.94,849.506 1333.98,876.022 1336.01,902.9 1338.05,930.031 1340.09,957.301 1342.13,984.598 1344.16,1011.83 1346.2,1038.89 1348.24,1065.67 1350.28,1092.05 1352.31,1117.94 1354.35,1143.23 1356.39,1167.83 1358.43,1191.63 1360.46,1214.55 1362.5,1236.5 1364.54,1257.39 1366.58,1277.14 1368.61,1295.67 1370.65,1312.92 1372.69,1328.8 1374.73,1343.26 1376.76,1356.24 1378.8,1367.67 1380.84,1377.52 1382.88,1385.74 1384.91,1392.29 1386.95,1397.16 1388.99,1400.32 1391.03,1401.75 1393.06,1401.45 1395.1,1399.42 1397.14,1395.68 1399.18,1390.24 1401.21,1383.12 1403.25,1374.35 1405.29,1363.97 1407.33,1352.01 1409.36,1338.52 1411.4,1323.56 1413.44,1307.18 1415.48,1289.46 1417.52,1270.46 1419.55,1250.26 1421.59,1228.94 1423.63,1206.57 1425.67,1183.26 1427.7,1159.08 1429.74,1134.14 1431.78,1108.52 1433.82,1082.33 1435.85,1055.68 1437.89,1028.68 1439.93,1001.43 1441.97,974.051 1444,946.634 1446.04,919.291 1448.08,892.133 1450.12,865.268 1452.15,838.804 1454.19,812.842 1456.23,787.484 1458.27,762.829 1460.3,738.972 1462.34,716.008 1464.38,694.026 1466.42,673.114 1468.45,653.344 1470.49,634.796 1472.53,617.55 1474.57,601.676 1476.6,587.239 1478.64,574.298 1480.68,562.906 1482.72,553.107 1484.75,544.941 1486.79,538.442 1488.83,533.635 1490.87,530.542 1492.9,529.175 1494.94,529.532 1496.98,531.605 1499.02,535.384 1501.06,540.854 1503.09,547.991 1505.13,556.768 1507.17,567.149 1509.21,579.095 1511.24,592.558 1513.28,607.485 1515.32,623.817 1517.36,641.485 1519.39,660.419 1521.43,680.547 1523.47,701.79 1525.51,724.067 1527.54,747.293 1529.58,771.377 1531.62,796.227 1533.66,821.746 1535.69,847.83 1537.73,874.376 1539.77,901.273 1541.81,928.409 1543.84,955.689 1545.88,983.006 1547.92,1010.25 1549.96,1037.31 1551.99,1064.08 1554.03,1090.46 1556.07,1116.34 1558.11,1141.62 1560.14,1166.21 1562.18,1190.01 1564.22,1212.92 1566.26,1234.86 1568.29,1255.74 1570.33,1275.49 1572.37,1294.02 1574.41,1311.25 1576.44,1327.13 1578.48,1341.57 1580.52,1354.52 1582.56,1365.94 1584.6,1375.76 1586.63,1383.96 1588.67,1390.5 1590.71,1395.35 1592.75,1398.48 1594.78,1399.89 1596.82,1399.57 1598.86,1397.54 1600.9,1393.81 1602.93,1388.38 1604.97,1381.28 1607.01,1372.54 1609.05,1362.19 1611.08,1350.27 1613.12,1336.83 1615.16,1321.93 1617.2,1305.61 1619.23,1287.95 1621.27,1269.02 1623.31,1248.9 1625.35,1227.65 1627.38,1205.37 1629.42,1182.13 1631.46,1158.03 1633.5,1133.16 1635.53,1107.63 1637.57,1081.52 1639.61,1054.95 1641.65,1028.03 1643.68,1000.87 1645.72,973.569 1647.76,946.229 1649.8,918.964 1651.83,891.883 1653.87,865.092 1655.91,838.697 1657.95,812.8 1659.98,787.503 1662.02,762.903 1664.06,739.097 1666.1,716.179 1668.14,694.242 1670.17,673.362 1672.21,653.619 1674.25,635.095 1676.29,617.867 1678.32,602.006 1680.36,587.576 1682.4,574.637 1684.44,563.239 1686.47,553.43 1688.51,545.25 1690.55,538.731 1692.59,533.902 1694.62,530.784 1696.66,529.392 1698.7,529.722 1700.74,531.763 1702.77,535.507 1704.81,540.939 1706.85,548.036 1708.89,556.771 1710.92,567.109 1712.96,579.012 1715,592.432 1717.04,607.317 1719.07,623.608 1721.11,641.236 1723.15,660.132 1725.19,680.224 1727.22,701.433 1729.26,723.679 1731.3,746.875 1733.34,770.933 1735.37,795.758 1737.41,821.255 1739.45,847.319 1741.49,873.847 1743.52,900.729 1745.56,927.85 1747.6,955.116 1749.64,982.42 1751.68,1009.65 1753.71,1036.7 1755.75,1063.46 1757.79,1089.83 1759.83,1115.7 1761.86,1140.97 1763.9,1165.55 1765.94,1189.34 1767.98,1212.24 1770.01,1234.17 1772.05,1255.04 1774.09,1274.77 1776.13,1293.29 1778.16,1310.52 1780.2,1326.39 1782.24,1340.82 1784.28,1353.77 1786.31,1365.18 1788.35,1375 1790.39,1383.2 1792.43,1389.73 1794.46,1394.58 1796.5,1397.72 1798.54,1399.13 1800.58,1398.82 1802.61,1396.79 1804.65,1393.06 1806.69,1387.64 1808.73,1380.55 1810.76,1371.82 1812.8,1361.49 1814.84,1349.59 1816.88,1336.17 1818.91,1321.28 1820.95,1304.98 1822.99,1287.34 1825.03,1268.43 1827.07,1248.32 1829.1,1227.09 1831.14,1204.83 1833.18,1181.61 1835.22,1157.53 1837.25,1132.69 1839.29,1107.17 1841.33,1081.08 1843.37,1054.52 1845.4,1027.62 1847.44,1000.47 1849.48,973.178 1851.52,945.849 1853.55,918.593 1855.59,891.52 1857.63,864.736 1859.67,838.348 1861.7,812.458 1863.74,787.166 1865.78,762.572 1867.82,738.77 1869.85,715.855 1871.89,693.919 1873.93,673.043 1875.97,653.302 1878,634.779 1880.04,617.55 1882.08,601.687 1884.12,587.255 1886.15,574.311 1888.19,562.908 1890.23,553.093 1892.27,544.906 1894.3,538.38 1896.34,533.544 1898.38,530.418 1900.42,529.018 1902.45,529.341 1904.49,531.379 1906.53,535.12 1908.57,540.55 1910.61,547.647 1912.64,556.384 1914.68,566.726 1916.72,578.634 1918.76,592.06 1920.79,606.954 1922.83,623.254 1924.87,640.893 1926.91,659.802 1928.94,679.906 1930.98,701.129 1933.02,723.389 1935.06,746.6 1937.09,770.672 1939.13,795.514 1941.17,821.026 1943.21,847.107 1945.24,873.652 1947.28,900.551 1949.32,927.691 1951.36,954.972 1953.39,982.292 1955.43,1009.54 1957.47,1036.61 1959.51,1063.38 1961.54,1089.77 1963.58,1115.65 1965.62,1140.94 1967.66,1165.53 1969.69,1189.33 1971.73,1212.24 1973.77,1234.17 1975.81,1255.05 1977.84,1274.79 1979.88,1293.31 1981.92,1310.55 1983.96,1326.41 1985.99,1340.85 1988.03,1353.8 1990.07,1365.2 1992.11,1375.02 1994.15,1383.22 1996.18,1389.75 1998.22,1394.59 2000.26,1397.72 2002.3,1399.13 2004.33,1398.81 2006.37,1396.78 2008.41,1393.04 2010.45,1387.61 2012.48,1380.51 2014.52,1371.78 2016.56,1361.43 2018.6,1349.52 2020.63,1336.09 2022.67,1321.19 2024.71,1304.88 2026.75,1287.24 2028.78,1268.32 2030.82,1248.2 2032.86,1226.97 2034.9,1204.7 2036.93,1181.48 2038.97,1157.39 2041.01,1132.54 2043.05,1107.02 2045.08,1080.92 2047.12,1054.37 2049.16,1027.46 2051.2,1000.31 2053.23,973.014 2055.27,945.683 2057.31,918.425 2059.35,891.349 2061.38,864.564 2063.42,838.173 2065.46,812.281 2067.5,786.987 2069.53,762.39 2071.57,738.586 2073.61,715.669 2075.65,693.73 2077.69,672.852 2079.72,653.109 2081.76,634.584 2083.8,617.353 2085.84,601.487 2087.87,587.052 2089.91,574.107 2091.95,562.702 2093.99,552.886 2096.02,544.697 2098.06,538.17 2100.1,533.333 2102.14,530.206 2104.17,528.806 2106.21,529.129 2108.25,531.167 2110.29,534.91 2112.32,540.342 2114.36,547.441 2116.4,556.181 2118.44,566.527 2120.47,578.439 2122.51,591.87 2124.55,606.768 2126.59,623.073 2128.62,640.718 2130.66,659.632 2132.7,679.743 2134.74,700.972 2136.77,723.237 2138.81,746.454 2140.85,770.533 2142.89,795.381 2144.92,820.898 2146.96,846.985 2149,873.536 2151.04,900.44 2153.07,927.585 2155.11,954.87 2157.15,982.195 2159.19,1009.45 2161.23,1036.52 2163.26,1063.3 2165.3,1089.68 2167.34,1115.57 2169.38,1140.86 2171.41,1165.45 2173.45,1189.25 2175.49,1212.17 2177.53,1234.1 2179.56,1254.98 2181.6,1274.72 2183.64,1293.25 2185.68,1310.48 2187.71,1326.34 2189.75,1340.78 2191.79,1353.73 2193.83,1365.13 2195.86,1374.95 2197.9,1383.14 2199.94,1389.67 2201.98,1394.51 2204.01,1397.64 2206.05,1399.04 2208.09,1398.72 2210.13,1396.69 2212.16,1392.95 2214.2,1387.52 2216.24,1380.42 2218.28,1371.68 2220.31,1361.34 2222.35,1349.43 2224.39,1336 2226.43,1321.1 2228.46,1304.8 2230.5,1287.15 2232.54,1268.24 2234.58,1248.12 2236.61,1226.89 2238.65,1204.62 2240.69,1181.41 2242.73,1157.32 2244.77,1132.47 2246.8,1106.95 2248.84,1080.86 2250.88,1054.31 2252.92,1027.4 2254.95,1000.26 2256.99,972.967 2259.03,945.64 2261.07,918.385 2263.1,891.313 2265.14,864.53 2267.18,838.143 2269.22,812.254 2271.25,786.962 2273.29,762.368 2275.33,738.567 2277.37,715.652 2279.4,693.715 2281.44,672.843 2283.48,653.119 2285.52,634.619 2287.55,617.418 2289.59,601.584 2291.63,587.176 "/>
<polyline clip-path="url(#clip523)" style="stroke:#e26f46; stroke-linecap:round; stroke-linejoin:round; stroke-width:8; stroke-opacity:1; fill:none" points="254.067,963.857 256.105,964.408 258.143,966.002 260.18,968.537 262.218,971.893 264.255,975.941 266.293,980.542 268.33,985.554 270.368,990.837 272.406,996.257 274.443,1001.69 276.481,1007.03 278.518,1012.18 280.556,1017.09 282.593,1021.71 284.631,1026.03 286.668,1030.07 288.706,1033.88 290.744,1037.51 292.781,1041.07 294.819,1044.65 296.856,1048.37 298.894,1052.33 300.931,1056.66 302.969,1061.45 305.007,1066.8 307.044,1072.77 309.082,1079.42 311.119,1086.77 313.157,1094.84 315.194,1103.61 317.232,1113.04 319.269,1123.08 321.307,1133.68 323.345,1144.75 325.382,1156.21 327.42,1167.98 329.457,1179.95 331.495,1192.06 333.532,1204.19 335.57,1216.29 337.608,1228.26 339.645,1240.06 341.683,1251.61 343.72,1262.88 345.758,1273.83 347.795,1284.43 349.833,1294.66 351.87,1304.52 353.908,1314.01 355.946,1323.11 357.983,1331.83 360.021,1340.16 362.058,1348.1 364.096,1355.62 366.133,1362.71 368.171,1369.3 370.208,1375.36 372.246,1380.81 374.284,1385.56 376.321,1389.5 378.359,1392.52 380.396,1394.51 382.434,1395.33 384.471,1394.86 386.509,1393.01 388.547,1389.67 390.584,1384.75 392.622,1378.19 394.659,1369.95 396.697,1360.01 398.734,1348.4 400.772,1335.13 402.809,1320.27 404.847,1303.89 406.885,1286.09 408.922,1266.97 410.96,1246.67 412.997,1225.32 415.035,1203.06 417.072,1180.03 419.11,1156.4 421.148,1132.32 423.185,1107.94 425.223,1083.43 427.26,1058.92 429.298,1034.59 431.335,1010.55 433.373,986.959 435.41,963.934 437.448,941.598 439.486,920.065 441.523,899.44 443.561,879.802 445.598,861.24 447.636,843.828 449.673,827.628 451.711,812.685 453.749,799.03 455.786,786.681 457.824,775.638 459.861,765.887 461.899,757.409 463.936,750.198 465.974,744.223 468.011,739.455 470.049,735.861 472.087,733.411 474.124,732.075 476.162,731.823 478.199,732.626 480.237,734.461 482.274,737.322 484.312,741.206 486.349,746.114 488.387,752.046 490.425,759.005 492.462,766.998 494.5,776.028 496.537,786.106 498.575,797.24 500.612,809.436 502.65,822.681 504.688,836.956 506.725,852.231 508.763,868.47 510.8,885.624 512.838,903.641 514.875,922.455 516.913,941.995 518.95,962.178 520.988,982.912 523.026,1004.1 525.063,1025.65 527.101,1047.45 529.138,1069.42 531.176,1091.45 533.213,1113.44 535.251,1135.29 537.289,1156.9 539.326,1178.16 541.364,1199 543.401,1219.32 545.439,1239.04 547.476,1258.08 549.514,1276.37 551.551,1293.82 553.589,1310.39 555.627,1326 557.664,1340.59 559.702,1354.1 561.739,1366.5 563.777,1377.7 565.814,1387.66 567.852,1396.33 569.89,1403.66 571.927,1409.59 573.965,1414.08 576.002,1417.08 578.04,1418.54 580.077,1418.43 582.115,1416.7 584.152,1413.3 586.19,1408.23 588.228,1401.48 590.265,1393.05 592.303,1382.94 594.34,1371.19 596.378,1357.81 598.415,1342.85 600.453,1326.36 602.491,1308.38 604.528,1289.01 606.566,1268.32 608.603,1246.4 610.641,1223.34 612.678,1199.26 614.716,1174.25 616.753,1148.42 618.791,1121.88 620.829,1094.76 622.866,1067.17 624.904,1039.24 626.941,1011.11 628.979,982.881 631.016,954.68 633.054,926.631 635.091,898.856 637.129,871.475 639.167,844.604 641.204,818.357 643.242,792.846 645.279,768.18 647.317,744.467 649.354,721.804 651.392,700.273 653.43,679.973 655.467,660.998 657.505,643.432 659.542,627.35 661.58,612.821 663.617,599.901 665.655,588.642 667.692,579.083 669.73,571.259 671.768,565.192 673.805,560.898 675.843,558.383 677.88,557.637 679.918,558.647 681.955,561.398 683.993,565.866 686.031,572.023 688.068,579.836 690.106,589.264 692.143,600.261 694.181,612.774 696.218,626.747 698.256,642.118 700.293,658.83 702.331,676.818 704.369,696.016 706.406,716.353 708.444,737.755 710.481,760.145 712.519,783.44 714.556,807.556 716.594,832.404 718.632,857.892 720.669,883.923 722.707,910.403 724.744,937.242 726.782,964.344 728.819,991.608 730.857,1018.94 732.894,1046.23 734.932,1073.39 736.97,1100.32 739.007,1126.91 741.045,1153.07 743.082,1178.69 745.12,1203.67 747.157,1227.92 749.195,1251.35 751.233,1273.85 753.27,1295.34 755.308,1315.73 757.345,1334.92 759.383,1352.83 761.42,1369.39 763.458,1384.5 765.495,1398.11 767.533,1410.13 769.571,1420.51 771.608,1429.18 773.646,1436.08 775.683,1441.15 777.721,1444.36 779.758,1445.72 781.796,1445.21 783.833,1442.84 785.871,1438.62 787.909,1432.55 789.946,1424.67 791.984,1415.01 794.021,1403.61 796.059,1390.52 798.096,1375.8 800.134,1359.53 802.172,1341.78 804.209,1322.62 806.247,1302.14 808.284,1280.43 810.322,1257.57 812.359,1233.66 814.397,1208.79 816.434,1183.07 818.472,1156.6 820.51,1129.49 822.547,1101.86 824.585,1073.81 826.622,1045.44 828.66,1016.87 830.697,988.205 832.735,959.557 834.773,931.036 836.81,902.75 838.848,874.808 840.885,847.318 842.923,820.386 844.96,794.119 846.998,768.624 849.035,743.996 851.073,720.318 853.111,697.693 855.148,676.22 857.186,655.99 859.223,637.086 861.261,619.584 863.298,603.553 865.336,589.056 867.374,576.147 869.411,564.872 871.449,555.272 873.486,547.38 875.524,541.219 877.561,536.8 879.599,534.134 881.636,533.224 883.674,534.064 885.712,536.644 887.749,540.946 889.787,546.943 891.824,554.604 893.862,563.888 895.899,574.751 897.937,587.145 899.975,601.017 902.012,616.31 904.05,632.961 906.087,650.905 908.125,670.072 910.162,690.387 912.2,711.772 914.237,734.144 916.275,757.417 918.313,781.5 920.35,806.3 922.388,831.723 924.425,857.674 926.463,884.056 928.5,910.771 930.538,937.718 932.575,964.797 934.613,991.905 936.651,1018.94 938.688,1045.8 940.726,1072.37 942.763,1098.56 944.801,1124.24 946.838,1149.35 948.876,1173.79 950.914,1197.45 952.951,1220.24 954.989,1242.06 957.026,1262.84 959.064,1282.48 961.101,1300.91 963.139,1318.07 965.176,1333.87 967.214,1348.28 969.252,1361.23 971.289,1372.66 973.327,1382.54 975.364,1390.83 977.402,1397.49 979.439,1402.49 981.477,1405.8 983.515,1407.41 985.552,1407.31 987.59,1405.5 989.627,1401.97 991.665,1396.75 993.702,1389.83 995.74,1381.26 997.777,1371.06 999.815,1359.28 1001.85,1345.96 1003.89,1331.16 1005.93,1314.92 1007.97,1297.32 1010,1278.42 1012.04,1258.31 1014.08,1237.05 1016.12,1214.74 1018.15,1191.46 1020.19,1167.33 1022.23,1142.42 1024.27,1116.85 1026.3,1090.71 1028.34,1064.11 1030.38,1037.14 1032.42,1009.92 1034.45,982.551 1036.49,955.148 1038.53,927.823 1040.57,900.692 1042.6,873.872 1044.64,847.466 1046.68,821.56 1048.72,796.265 1050.75,771.689 1052.79,747.933 1054.83,725.095 1056.87,703.263 1058.9,682.523 1060.94,662.953 1062.98,644.626 1065.02,627.608 1067.05,611.96 1069.09,597.737 1071.13,584.992 1073.17,573.774 1075.2,564.123 1077.24,556.077 1079.28,549.664 1081.32,544.906 1083.36,541.821 1085.39,540.418 1087.43,540.7 1089.47,542.665 1091.51,546.302 1093.54,551.596 1095.58,558.526 1097.62,567.063 1099.66,577.173 1101.69,588.818 1103.73,601.954 1105.77,616.53 1107.81,632.493 1109.84,649.782 1111.88,668.332 1113.92,688.073 1115.96,708.925 1117.99,730.803 1120.03,753.622 1122.07,777.295 1124.11,801.732 1126.14,826.842 1128.18,852.527 1130.22,878.689 1132.26,905.228 1134.29,932.037 1136.33,959.009 1138.37,986.033 1140.41,1013 1142.44,1039.78 1144.48,1066.28 1146.52,1092.41 1148.56,1118.07 1150.59,1143.14 1152.63,1167.52 1154.67,1191.12 1156.71,1213.84 1158.74,1235.6 1160.78,1256.31 1162.82,1275.89 1164.86,1294.27 1166.9,1311.37 1168.93,1327.14 1170.97,1341.5 1173.01,1354.41 1175.05,1365.81 1177.08,1375.65 1179.12,1383.89 1181.16,1390.5 1183.2,1395.45 1185.23,1398.71 1187.27,1400.27 1189.31,1400.12 1191.35,1398.26 1193.38,1394.69 1195.42,1389.43 1197.46,1382.5 1199.5,1373.92 1201.53,1363.72 1203.57,1351.96 1205.61,1338.66 1207.65,1323.88 1209.68,1307.68 1211.72,1290.13 1213.76,1271.28 1215.8,1251.21 1217.83,1230.02 1219.87,1207.78 1221.91,1184.59 1223.95,1160.52 1225.98,1135.68 1228.02,1110.15 1230.06,1084.05 1232.1,1057.47 1234.13,1030.51 1236.17,1003.3 1238.21,975.929 1240.25,948.528 1242.28,921.213 1244.32,894.078 1246.36,867.223 1248.4,840.761 1250.44,814.801 1252.47,789.45 1254.51,764.808 1256.55,740.972 1258.59,718.034 1260.62,696.085 1262.66,675.209 1264.7,655.486 1266.74,636.993 1268.77,619.799 1270.81,603.971 1272.85,589.575 1274.89,576.67 1276.92,565.308 1278.96,555.535 1281,547.39 1283.04,540.904 1285.07,536.103 1287.11,533.006 1289.15,531.624 1291.19,531.963 1293.22,534.02 1295.26,537.781 1297.3,543.228 1299.34,550.34 1301.37,559.088 1303.41,569.435 1305.45,581.343 1307.49,594.765 1309.52,609.649 1311.56,625.937 1313.6,643.564 1315.64,662.459 1317.67,682.545 1319.71,703.742 1321.75,725.972 1323.79,749.149 1325.82,773.184 1327.86,797.987 1329.9,823.46 1331.94,849.506 1333.98,876.022 1336.01,902.9 1338.05,930.031 1340.09,957.301 1342.13,984.598 1344.16,1011.83 1346.2,1038.89 1348.24,1065.67 1350.28,1092.05 1352.31,1117.94 1354.35,1143.23 1356.39,1167.83 1358.43,1191.63 1360.46,1214.55 1362.5,1236.5 1364.54,1257.39 1366.58,1277.14 1368.61,1295.67 1370.65,1312.92 1372.69,1328.8 1374.73,1343.26 1376.76,1356.24 1378.8,1367.67 1380.84,1377.52 1382.88,1385.74 1384.91,1392.29 1386.95,1397.16 1388.99,1400.32 1391.03,1401.75 1393.06,1401.45 1395.1,1399.42 1397.14,1395.68 1399.18,1390.24 1401.21,1383.12 1403.25,1374.35 1405.29,1363.97 1407.33,1352.01 1409.36,1338.52 1411.4,1323.56 1413.44,1307.18 1415.48,1289.46 1417.52,1270.46 1419.55,1250.26 1421.59,1228.94 1423.63,1206.57 1425.67,1183.26 1427.7,1159.08 1429.74,1134.14 1431.78,1108.52 1433.82,1082.33 1435.85,1055.68 1437.89,1028.68 1439.93,1001.43 1441.97,974.051 1444,946.634 1446.04,919.291 1448.08,892.133 1450.12,865.268 1452.15,838.804 1454.19,812.842 1456.23,787.484 1458.27,762.829 1460.3,738.972 1462.34,716.008 1464.38,694.026 1466.42,673.114 1468.45,653.344 1470.49,634.796 1472.53,617.55 1474.57,601.676 1476.6,587.239 1478.64,574.298 1480.68,562.906 1482.72,553.107 1484.75,544.941 1486.79,538.442 1488.83,533.635 1490.87,530.542 1492.9,529.175 1494.94,529.532 1496.98,531.605 1499.02,535.384 1501.06,540.854 1503.09,547.991 1505.13,556.768 1507.17,567.149 1509.21,579.095 1511.24,592.558 1513.28,607.485 1515.32,623.817 1517.36,641.485 1519.39,660.419 1521.43,680.547 1523.47,701.79 1525.51,724.067 1527.54,747.293 1529.58,771.377 1531.62,796.227 1533.66,821.746 1535.69,847.83 1537.73,874.376 1539.77,901.273 1541.81,928.409 1543.84,955.689 1545.88,983.006 1547.92,1010.25 1549.96,1037.31 1551.99,1064.08 1554.03,1090.46 1556.07,1116.34 1558.11,1141.62 1560.14,1166.21 1562.18,1190.01 1564.22,1212.92 1566.26,1234.86 1568.29,1255.74 1570.33,1275.49 1572.37,1294.02 1574.41,1311.25 1576.44,1327.13 1578.48,1341.57 1580.52,1354.52 1582.56,1365.94 1584.6,1375.76 1586.63,1383.96 1588.67,1390.5 1590.71,1395.35 1592.75,1398.48 1594.78,1399.89 1596.82,1399.57 1598.86,1397.54 1600.9,1393.81 1602.93,1388.38 1604.97,1381.28 1607.01,1372.54 1609.05,1362.19 1611.08,1350.27 1613.12,1336.83 1615.16,1321.93 1617.2,1305.61 1619.23,1287.95 1621.27,1269.02 1623.31,1248.9 1625.35,1227.65 1627.38,1205.37 1629.42,1182.13 1631.46,1158.03 1633.5,1133.16 1635.53,1107.63 1637.57,1081.52 1639.61,1054.95 1641.65,1028.03 1643.68,1000.87 1645.72,973.569 1647.76,946.229 1649.8,918.964 1651.83,891.883 1653.87,865.092 1655.91,838.697 1657.95,812.8 1659.98,787.503 1662.02,762.903 1664.06,739.097 1666.1,716.179 1668.14,694.242 1670.17,673.362 1672.21,653.619 1674.25,635.095 1676.29,617.867 1678.32,602.006 1680.36,587.576 1682.4,574.637 1684.44,563.239 1686.47,553.43 1688.51,545.25 1690.55,538.731 1692.59,533.902 1694.62,530.784 1696.66,529.392 1698.7,529.722 1700.74,531.763 1702.77,535.507 1704.81,540.939 1706.85,548.036 1708.89,556.771 1710.92,567.109 1712.96,579.012 1715,592.432 1717.04,607.317 1719.07,623.608 1721.11,641.236 1723.15,660.132 1725.19,680.224 1727.22,701.433 1729.26,723.679 1731.3,746.875 1733.34,770.933 1735.37,795.758 1737.41,821.255 1739.45,847.319 1741.49,873.847 1743.52,900.729 1745.56,927.85 1747.6,955.116 1749.64,982.42 1751.68,1009.65 1753.71,1036.7 1755.75,1063.46 1757.79,1089.83 1759.83,1115.7 1761.86,1140.97 1763.9,1165.55 1765.94,1189.34 1767.98,1212.24 1770.01,1234.17 1772.05,1255.04 1774.09,1274.77 1776.13,1293.29 1778.16,1310.52 1780.2,1326.39 1782.24,1340.82 1784.28,1353.77 1786.31,1365.18 1788.35,1375 1790.39,1383.2 1792.43,1389.73 1794.46,1394.58 1796.5,1397.72 1798.54,1399.13 1800.58,1398.82 1802.61,1396.79 1804.65,1393.06 1806.69,1387.64 1808.73,1380.55 1810.76,1371.82 1812.8,1361.49 1814.84,1349.59 1816.88,1336.17 1818.91,1321.28 1820.95,1304.98 1822.99,1287.34 1825.03,1268.43 1827.07,1248.32 1829.1,1227.09 1831.14,1204.83 1833.18,1181.61 1835.22,1157.53 1837.25,1132.69 1839.29,1107.17 1841.33,1081.08 1843.37,1054.52 1845.4,1027.62 1847.44,1000.47 1849.48,973.178 1851.52,945.849 1853.55,918.593 1855.59,891.52 1857.63,864.736 1859.67,838.348 1861.7,812.458 1863.74,787.166 1865.78,762.572 1867.82,738.77 1869.85,715.855 1871.89,693.919 1873.93,673.043 1875.97,653.302 1878,634.779 1880.04,617.55 1882.08,601.687 1884.12,587.255 1886.15,574.311 1888.19,562.908 1890.23,553.093 1892.27,544.906 1894.3,538.38 1896.34,533.544 1898.38,530.418 1900.42,529.018 1902.45,529.341 1904.49,531.379 1906.53,535.12 1908.57,540.55 1910.61,547.647 1912.64,556.384 1914.68,566.726 1916.72,578.634 1918.76,592.06 1920.79,606.954 1922.83,623.254 1924.87,640.893 1926.91,659.802 1928.94,679.906 1930.98,701.129 1933.02,723.389 1935.06,746.6 1937.09,770.672 1939.13,795.514 1941.17,821.026 1943.21,847.107 1945.24,873.652 1947.28,900.551 1949.32,927.691 1951.36,954.972 1953.39,982.292 1955.43,1009.54 1957.47,1036.61 1959.51,1063.38 1961.54,1089.77 1963.58,1115.65 1965.62,1140.94 1967.66,1165.53 1969.69,1189.33 1971.73,1212.24 1973.77,1234.17 1975.81,1255.05 1977.84,1274.79 1979.88,1293.31 1981.92,1310.55 1983.96,1326.41 1985.99,1340.85 1988.03,1353.8 1990.07,1365.2 1992.11,1375.02 1994.15,1383.22 1996.18,1389.75 1998.22,1394.59 2000.26,1397.72 2002.3,1399.13 2004.33,1398.81 2006.37,1396.78 2008.41,1393.04 2010.45,1387.61 2012.48,1380.51 2014.52,1371.78 2016.56,1361.43 2018.6,1349.52 2020.63,1336.09 2022.67,1321.19 2024.71,1304.88 2026.75,1287.24 2028.78,1268.32 2030.82,1248.2 2032.86,1226.97 2034.9,1204.7 2036.93,1181.48 2038.97,1157.39 2041.01,1132.54 2043.05,1107.02 2045.08,1080.92 2047.12,1054.37 2049.16,1027.46 2051.2,1000.31 2053.23,973.014 2055.27,945.683 2057.31,918.425 2059.35,891.349 2061.38,864.564 2063.42,838.173 2065.46,812.281 2067.5,786.987 2069.53,762.39 2071.57,738.586 2073.61,715.669 2075.65,693.73 2077.69,672.852 2079.72,653.109 2081.76,634.584 2083.8,617.353 2085.84,601.487 2087.87,587.052 2089.91,574.107 2091.95,562.702 2093.99,552.886 2096.02,544.697 2098.06,538.17 2100.1,533.333 2102.14,530.206 2104.17,528.806 2106.21,529.129 2108.25,531.167 2110.29,534.91 2112.32,540.342 2114.36,547.441 2116.4,556.181 2118.44,566.527 2120.47,578.439 2122.51,591.87 2124.55,606.768 2126.59,623.073 2128.62,640.718 2130.66,659.632 2132.7,679.743 2134.74,700.972 2136.77,723.237 2138.81,746.454 2140.85,770.533 2142.89,795.381 2144.92,820.898 2146.96,846.985 2149,873.536 2151.04,900.44 2153.07,927.585 2155.11,954.87 2157.15,982.195 2159.19,1009.45 2161.23,1036.52 2163.26,1063.3 2165.3,1089.68 2167.34,1115.57 2169.38,1140.86 2171.41,1165.45 2173.45,1189.25 2175.49,1212.17 2177.53,1234.1 2179.56,1254.98 2181.6,1274.72 2183.64,1293.25 2185.68,1310.48 2187.71,1326.34 2189.75,1340.78 2191.79,1353.73 2193.83,1365.13 2195.86,1374.95 2197.9,1383.14 2199.94,1389.67 2201.98,1394.51 2204.01,1397.64 2206.05,1399.04 2208.09,1398.72 2210.13,1396.69 2212.16,1392.95 2214.2,1387.52 2216.24,1380.42 2218.28,1371.68 2220.31,1361.34 2222.35,1349.43 2224.39,1336 2226.43,1321.1 2228.46,1304.8 2230.5,1287.15 2232.54,1268.24 2234.58,1248.12 2236.61,1226.89 2238.65,1204.62 2240.69,1181.41 2242.73,1157.32 2244.77,1132.47 2246.8,1106.95 2248.84,1080.86 2250.88,1054.31 2252.92,1027.4 2254.95,1000.26 2256.99,972.967 2259.03,945.64 2261.07,918.385 2263.1,891.313 2265.14,864.53 2267.18,838.143 2269.22,812.254 2271.25,786.962 2273.29,762.368 2275.33,738.567 2277.37,715.652 2279.4,693.715 2281.44,672.843 2283.48,653.119 2285.52,634.619 2287.55,617.418 2289.59,601.584 2291.63,587.176 "/>
<polyline clip-path="url(#clip523)" style="stroke:#3da44d; stroke-linecap:round; stroke-linejoin:round; stroke-width:8; stroke-opacity:1; fill:none" points="254.067,963.857 256.105,964.526 258.143,966.44 260.18,969.425 262.218,973.272 264.255,977.739 266.293,982.573 268.33,987.519 270.368,992.341 272.406,996.833 274.443,1000.83 276.481,1004.22 278.518,1006.95 280.556,1009 282.593,1010.4 284.631,1011.2 286.668,1011.5 288.706,1011.36 290.744,1010.83 292.781,1009.96 294.819,1008.76 296.856,1007.21 298.894,1005.26 300.931,1002.87 302.969,999.962 305.007,996.489 307.044,992.408 309.082,987.694 311.119,982.342 313.157,976.373 315.194,969.828 317.232,962.762 319.269,955.244 321.307,947.357 323.345,939.185 325.382,930.821 327.42,922.351 329.457,913.864 331.495,905.445 333.532,897.176 335.57,889.133 337.608,881.39 339.645,874.014 341.683,867.064 343.72,860.592 345.758,854.644 347.795,849.257 349.833,844.458 351.87,840.269 353.908,836.706 355.946,833.776 357.983,831.476 360.021,829.795 362.058,828.713 364.096,828.194 366.133,828.192 368.171,828.651 370.208,829.491 372.246,830.612 374.284,831.892 376.321,833.189 378.359,834.339 380.396,835.172 382.434,835.532 384.471,835.286 386.509,834.323 388.547,832.556 390.584,829.92 392.622,826.381 394.659,821.98 396.697,816.794 398.734,810.906 400.772,804.414 402.809,797.424 404.847,790.053 406.885,782.416 408.922,774.596 410.96,766.672 412.997,758.705 415.035,750.741 417.072,742.809 419.11,734.921 421.148,727.072 423.185,719.247 425.223,711.446 427.26,703.653 429.298,695.853 431.335,688.044 433.373,680.234 435.41,672.438 437.448,664.683 439.486,657.006 441.523,649.447 443.561,642.049 445.598,634.881 447.636,628.011 449.673,621.502 451.711,615.413 453.749,609.797 455.786,604.703 457.824,600.173 459.861,596.246 461.899,592.948 463.936,590.257 465.974,588.139 468.011,586.556 470.049,585.456 472.087,584.78 474.124,584.457 476.162,584.407 478.199,584.538 480.237,584.763 482.274,584.991 484.312,585.134 486.349,585.11 488.387,584.849 490.425,584.293 492.462,583.392 494.5,582.108 496.537,580.413 498.575,578.289 500.612,575.724 502.65,572.719 504.688,569.295 506.725,565.479 508.763,561.306 510.8,556.815 512.838,552.055 514.875,547.077 516.913,541.94 518.95,536.687 520.988,531.37 523.026,526.04 525.063,520.747 527.101,515.538 529.138,510.453 531.176,505.53 533.213,500.803 535.251,496.302 537.289,492.053 539.326,488.077 541.364,484.407 543.401,481.069 545.439,478.085 547.476,475.465 549.514,473.218 551.551,471.346 553.589,469.843 555.627,468.701 557.664,467.903 559.702,467.428 561.739,467.241 563.777,467.284 565.814,467.505 567.852,467.852 569.89,468.275 571.927,468.72 573.965,469.137 576.002,469.474 578.04,469.679 580.077,469.702 582.115,469.492 584.152,469.004 586.19,468.251 588.228,467.252 590.265,466.031 592.303,464.615 594.34,463.038 596.378,461.336 598.415,459.553 600.453,457.736 602.491,455.938 604.528,454.204 606.566,452.559 608.603,451.041 610.641,449.685 612.678,448.513 614.716,447.544 616.753,446.783 618.791,446.23 620.829,445.878 622.866,445.708 624.904,445.694 626.941,445.808 628.979,446.045 631.016,446.383 633.054,446.794 635.091,447.251 637.129,447.729 639.167,448.206 641.204,448.66 643.242,449.072 645.279,449.426 647.317,449.704 649.354,449.885 651.392,449.936 653.43,449.87 655.467,449.71 657.505,449.473 659.542,449.178 661.58,448.843 663.617,448.486 665.655,448.123 667.692,447.769 669.73,447.441 671.768,447.152 673.805,446.918 675.843,446.754 677.88,446.699 679.918,446.773 681.955,446.981 683.993,447.329 686.031,447.814 688.068,448.432 690.106,449.172 692.143,450.019 694.181,450.956 696.218,451.959 698.256,453.008 700.293,454.09 702.331,455.193 704.369,456.307 706.406,457.423 708.444,458.535 710.481,459.637 712.519,460.725 714.556,461.799 716.594,462.857 718.632,463.901 720.669,464.935 722.707,465.964 724.744,467.003 726.782,468.069 728.819,469.177 730.857,470.338 732.894,471.56 734.932,472.85 736.97,474.212 739.007,475.647 741.045,477.152 743.082,478.723 745.12,480.354 747.157,482.033 749.195,483.705 751.233,485.347 753.27,486.964 755.308,488.553 757.345,490.11 759.383,491.626 761.42,493.089 763.458,494.484 765.495,495.791 767.533,496.987 769.571,498.044 771.608,498.934 773.646,499.621 775.683,500.068 777.721,500.262 779.758,500.314 781.796,500.276 783.833,500.187 785.871,500.083 787.909,499.998 789.946,499.962 791.984,500.004 794.021,500.148 796.059,500.416 798.096,500.829 800.134,501.388 802.172,502.094 804.209,502.952 806.247,503.961 808.284,505.119 810.322,506.418 812.359,507.848 814.397,509.392 816.434,511.033 818.472,512.748 820.51,514.511 822.547,516.292 824.585,518.071 826.622,519.85 828.66,521.615 830.697,523.351 832.735,525.044 834.773,526.684 836.81,528.257 838.848,529.753 840.885,531.162 842.923,532.475 844.96,533.684 846.998,534.781 849.035,535.752 851.073,536.581 853.111,537.276 855.148,537.846 857.186,538.301 859.223,538.65 861.261,538.903 863.298,539.069 865.336,539.158 867.374,539.179 869.411,539.142 871.449,539.057 873.486,538.932 875.524,538.787 877.561,538.658 879.599,538.567 881.636,538.53 883.674,538.557 885.712,538.657 887.749,538.833 889.787,539.084 891.824,539.405 893.862,539.788 895.899,540.224 897.937,540.702 899.975,541.208 902.012,541.731 904.05,542.26 906.087,542.782 908.125,543.289 910.162,543.771 912.2,544.218 914.237,544.624 916.275,544.981 918.313,545.282 920.35,545.52 922.388,545.698 924.425,545.824 926.463,545.908 928.5,545.955 930.538,545.972 932.575,545.966 934.613,545.941 936.651,545.902 938.688,545.853 940.726,545.796 942.763,545.735 944.801,545.671 946.838,545.614 948.876,545.575 950.914,545.556 952.951,545.56 954.989,545.59 957.026,545.645 959.064,545.725 961.101,545.828 963.139,545.95 965.176,546.088 967.214,546.235 969.252,546.385 971.289,546.53 973.327,546.661 975.364,546.775 977.402,546.87 979.439,546.946 981.477,547 983.515,547.032 985.552,547.038 987.59,547.014 989.627,546.957 991.665,546.862 993.702,546.726 995.74,546.556 997.777,546.361 999.815,546.146 1001.85,545.917 1003.89,545.679 1005.93,545.436 1007.97,545.193 1010,544.952 1012.04,544.716 1014.08,544.489 1016.12,544.272 1018.15,544.06 1020.19,543.841 1022.23,543.621 1024.27,543.406 1026.3,543.199 1028.34,543.003 1030.38,542.816 1032.42,542.637 1034.45,542.46 1036.49,542.28 1038.53,542.088 1040.57,541.874 1042.6,541.627 1044.64,541.343 1046.68,541.045 1048.72,540.73 1050.75,540.397 1052.79,540.047 1054.83,539.681 1056.87,539.303 1058.9,538.915 1060.94,538.525 1062.98,538.139 1065.02,537.765 1067.05,537.413 1069.09,537.092 1071.13,536.798 1073.17,536.534 1075.2,536.308 1077.24,536.127 1079.28,535.992 1081.32,535.903 1083.36,535.857 1085.39,535.848 1087.43,535.867 1089.47,535.904 1091.51,535.943 1093.54,535.979 1095.58,536.01 1097.62,536.028 1099.66,536.026 1101.69,535.998 1103.73,535.941 1105.77,535.851 1107.81,535.726 1109.84,535.564 1111.88,535.367 1113.92,535.135 1115.96,534.866 1117.99,534.543 1120.03,534.182 1122.07,533.796 1124.11,533.398 1126.14,532.996 1128.18,532.6 1130.22,532.213 1132.26,531.839 1134.29,531.478 1136.33,531.13 1138.37,530.789 1140.41,530.45 1142.44,530.104 1144.48,529.752 1146.52,529.422 1148.56,529.117 1150.59,528.835 1152.63,528.576 1154.67,528.34 1156.71,528.128 1158.74,527.941 1160.78,527.778 1162.82,527.643 1164.86,527.537 1166.9,527.461 1168.93,527.414 1170.97,527.377 1173.01,527.351 1175.05,527.339 1177.08,527.345 1179.12,527.368 1181.16,527.405 1183.2,527.453 1185.23,527.504 1187.27,527.551 1189.31,527.582 1191.35,527.585 1193.38,527.55 1195.42,527.493 1197.46,527.417 1199.5,527.323 1201.53,527.215 1203.57,527.094 1205.61,526.963 1207.65,526.825 1209.68,526.683 1211.72,526.541 1213.76,526.402 1215.8,526.267 1217.83,526.12 1219.87,525.97 1221.91,525.829 1223.95,525.705 1225.98,525.605 1228.02,525.532 1230.06,525.487 1232.1,525.469 1234.13,525.472 1236.17,525.492 1238.21,525.517 1240.25,525.536 1242.28,525.536 1244.32,525.53 1246.36,525.531 1248.4,525.531 1250.44,525.528 1252.47,525.516 1254.51,525.495 1256.55,525.463 1258.59,525.42 1260.62,525.367 1262.66,525.307 1264.7,525.244 1266.74,525.183 1268.77,525.112 1270.81,525.024 1272.85,524.931 1274.89,524.845 1276.92,524.771 1278.96,524.715 1281,524.681 1283.04,524.667 1285.07,524.672 1287.11,524.69 1289.15,524.714 1291.19,524.734 1293.22,524.747 1295.26,524.768 1297.3,524.797 1299.34,524.832 1301.37,524.873 1303.41,524.919 1305.45,524.969 1307.49,525.02 1309.52,525.072 1311.56,525.123 1313.6,525.172 1315.64,525.206 1317.67,525.22 1319.71,525.223 1321.75,525.223 1323.79,525.227 1325.82,525.239 1327.86,525.263 1329.9,525.297 1331.94,525.343 1333.98,525.396 1336.01,525.453 1338.05,525.506 1340.09,525.548 1342.13,525.575 1344.16,525.608 1346.2,525.648 1348.24,525.694 1350.28,525.744 1352.31,525.796 1354.35,525.849 1356.39,525.903 1358.43,525.959 1360.46,526.018 1362.5,526.08 1364.54,526.149 1366.58,526.224 1368.61,526.281 1370.65,526.321 1372.69,526.356 1374.73,526.394 1376.76,526.439 1378.8,526.494 1380.84,526.561 1382.88,526.636 1384.91,526.715 1386.95,526.79 1388.99,526.852 1391.03,526.889 1393.06,526.891 1395.1,526.884 1397.14,526.873 1399.18,526.862 1401.21,526.853 1403.25,526.849 1405.29,526.85 1407.33,526.858 1409.36,526.874 1411.4,526.899 1413.44,526.931 1415.48,526.964 1417.52,526.99 1419.55,527.019 1421.59,527.056 1423.63,527.107 1425.67,527.174 1427.7,527.26 1429.74,527.362 1431.78,527.479 1433.82,527.607 1435.85,527.738 1437.89,527.866 1439.93,527.98 1441.97,528.078 1444,528.176 1446.04,528.274 1448.08,528.368 1450.12,528.455 1452.15,528.534 1454.19,528.604 1456.23,528.665 1458.27,528.716 1460.3,528.76 1462.34,528.797 1464.38,528.83 1466.42,528.857 1468.45,528.854 1470.49,528.828 1472.53,528.794 1474.57,528.763 1476.6,528.741 1478.64,528.735 1480.68,528.746 1482.72,528.774 1484.75,528.816 1486.79,528.866 1488.83,528.916 1490.87,528.952 1492.9,528.963 1494.94,528.962 1496.98,528.967 1499.02,528.979 1501.06,528.999 1503.09,529.026 1505.13,529.061 1507.17,529.103 1509.21,529.15 1511.24,529.201 1513.28,529.253 1515.32,529.301 1517.36,529.333 1519.39,529.356 1521.43,529.375 1523.47,529.395 1525.51,529.42 1527.54,529.451 1529.58,529.489 1531.62,529.533 1533.66,529.579 1535.69,529.625 1537.73,529.665 1539.77,529.693 1541.81,529.701 1543.84,529.704 1545.88,529.707 1547.92,529.709 1549.96,529.71 1551.99,529.708 1554.03,529.704 1556.07,529.699 1558.11,529.693 1560.14,529.687 1562.18,529.684 1564.22,529.685 1566.26,529.693 1568.29,529.688 1570.33,529.66 1572.37,529.625 1574.41,529.595 1576.44,529.578 1578.48,529.581 1580.52,529.607 1582.56,529.655 1584.6,529.723 1586.63,529.804 1588.67,529.889 1590.71,529.967 1592.75,530.022 1594.78,530.037 1596.82,530.034 1598.86,530.03 1600.9,530.027 1602.93,530.024 1604.97,530.023 1607.01,530.024 1609.05,530.028 1611.08,530.033 1613.12,530.04 1615.16,530.046 1617.2,530.045 1619.23,530.03 1621.27,530.008 1623.31,529.985 1625.35,529.968 1627.38,529.958 1629.42,529.959 1631.46,529.97 1633.5,529.99 1635.53,530.017 1637.57,530.046 1639.61,530.071 1641.65,530.084 1643.68,530.08 1645.72,530.071 1647.76,530.063 1649.8,530.053 1651.83,530.04 1653.87,530.023 1655.91,530.002 1657.95,529.977 1659.98,529.948 1662.02,529.917 1664.06,529.886 1666.1,529.857 1668.14,529.832 1670.17,529.789 1672.21,529.722 1674.25,529.648 1676.29,529.578 1678.32,529.524 1680.36,529.491 1682.4,529.484 1684.44,529.502 1686.47,529.543 1688.51,529.602 1690.55,529.67 1692.59,529.735 1694.62,529.783 1696.66,529.796 1698.7,529.795 1700.74,529.796 1702.77,529.801 1704.81,529.809 1706.85,529.82 1708.89,529.835 1710.92,529.851 1712.96,529.868 1715,529.884 1717.04,529.898 1719.07,529.902 1721.11,529.887 1723.15,529.861 1725.19,529.83 1727.22,529.8 1729.26,529.775 1731.3,529.757 1733.34,529.747 1735.37,529.743 1737.41,529.745 1739.45,529.747 1741.49,529.745 1743.52,529.732 1745.56,529.701 1747.6,529.664 1749.64,529.629 1751.68,529.594 1753.71,529.559 1755.75,529.522 1757.79,529.484 1759.83,529.445 1761.86,529.405 1763.9,529.367 1765.94,529.332 1767.98,529.301 1770.01,529.279 1772.05,529.248 1774.09,529.195 1776.13,529.134 1778.16,529.078 1780.2,529.037 1782.24,529.018 1784.28,529.024 1786.31,529.056 1788.35,529.11 1790.39,529.181 1792.43,529.26 1794.46,529.335 1796.5,529.391 1798.54,529.41 1800.58,529.408 1802.61,529.406 1804.65,529.404 1806.69,529.403 1808.73,529.404 1810.76,529.406 1812.8,529.409 1814.84,529.414 1816.88,529.418 1818.91,529.421 1820.95,529.418 1822.99,529.397 1825.03,529.367 1827.07,529.334 1829.1,529.304 1831.14,529.281 1833.18,529.268 1835.22,529.266 1837.25,529.274 1839.29,529.29 1841.33,529.309 1843.37,529.327 1845.4,529.335 1847.44,529.325 1849.48,529.309 1851.52,529.294 1853.55,529.28 1855.59,529.264 1857.63,529.246 1859.67,529.225 1861.7,529.201 1863.74,529.174 1865.78,529.147 1867.82,529.119 1869.85,529.095 1871.89,529.076 1873.93,529.049 1875.97,528.997 1878,528.934 1880.04,528.874 1882.08,528.827 1884.12,528.799 1886.15,528.795 1888.19,528.815 1890.23,528.858 1892.27,528.919 1894.3,528.988 1896.34,529.056 1898.38,529.108 1900.42,529.126 1902.45,529.124 1904.49,529.125 1906.53,529.127 1908.57,529.132 1910.61,529.141 1912.64,529.152 1914.68,529.165 1916.72,529.18 1918.76,529.195 1920.79,529.21 1922.83,529.218 1924.87,529.209 1926.91,529.188 1928.94,529.164 1930.98,529.142 1933.02,529.126 1935.06,529.119 1937.09,529.121 1939.13,529.132 1941.17,529.151 1943.21,529.172 1945.24,529.191 1947.28,529.2 1949.32,529.192 1951.36,529.175 1953.39,529.162 1955.43,529.148 1957.47,529.134 1959.51,529.118 1961.54,529.1 1963.58,529.079 1965.62,529.057 1967.66,529.035 1969.69,529.014 1971.73,528.996 1973.77,528.985 1975.81,528.969 1977.84,528.927 1979.88,528.875 1981.92,528.825 1983.96,528.788 1985.99,528.77 1988.03,528.774 1990.07,528.803 1992.11,528.853 1994.15,528.919 1996.18,528.994 1998.22,529.066 2000.26,529.12 2002.3,529.139 2004.33,529.138 2006.37,529.137 2008.41,529.136 2010.45,529.138 2012.48,529.143 2014.52,529.15 2016.56,529.159 2018.6,529.17 2020.63,529.183 2022.67,529.195 2024.71,529.201 2026.75,529.192 2028.78,529.172 2030.82,529.15 2032.86,529.13 2034.9,529.118 2036.93,529.116 2038.97,529.124 2041.01,529.142 2043.05,529.168 2045.08,529.197 2047.12,529.225 2049.16,529.243 2051.2,529.243 2053.23,529.236 2055.27,529.23 2057.31,529.225 2059.35,529.218 2061.38,529.208 2063.42,529.196 2065.46,529.18 2067.5,529.162 2069.53,529.143 2071.57,529.124 2073.61,529.107 2075.65,529.095 2077.69,529.077 2079.72,529.033 2081.76,528.978 2083.8,528.925 2085.84,528.884 2087.87,528.861 2089.91,528.862 2091.95,528.886 2093.99,528.932 2096.02,528.994 2098.06,529.065 2100.1,529.134 2102.14,529.186 2104.17,529.204 2106.21,529.203 2108.25,529.202 2110.29,529.204 2112.32,529.209 2114.36,529.216 2116.4,529.227 2118.44,529.24 2120.47,529.255 2122.51,529.271 2124.55,529.286 2126.59,529.296 2128.62,529.288 2130.66,529.271 2132.7,529.25 2134.74,529.231 2136.77,529.219 2138.81,529.216 2140.85,529.223 2142.89,529.239 2144.92,529.262 2146.96,529.288 2149,529.311 2151.04,529.325 2153.07,529.32 2155.11,529.308 2157.15,529.298 2159.19,529.288 2161.23,529.277 2163.26,529.264 2165.3,529.248 2167.34,529.229 2169.38,529.209 2171.41,529.187 2173.45,529.167 2175.49,529.149 2177.53,529.138 2179.56,529.12 2181.6,529.077 2183.64,529.023 2185.68,528.972 2187.71,528.933 2189.75,528.913 2191.79,528.916 2193.83,528.944 2195.86,528.992 2197.9,529.058 2199.94,529.131 2201.98,529.201 2204.01,529.254 2206.05,529.273 2208.09,529.272 2210.13,529.271 2212.16,529.271 2214.2,529.274 2216.24,529.279 2218.28,529.287 2220.31,529.298 2222.35,529.31 2224.39,529.323 2226.43,529.336 2228.46,529.343 2230.5,529.333 2232.54,529.313 2234.58,529.29 2236.61,529.27 2238.65,529.257 2240.69,529.253 2242.73,529.259 2244.77,529.275 2246.8,529.297 2248.84,529.323 2250.88,529.347 2252.92,529.361 2254.95,529.357 2256.99,529.346 2259.03,529.336 2261.07,529.327 2263.1,529.316 2265.14,529.303 2267.18,529.287 2269.22,529.268 2271.25,529.246 2273.29,529.224 2275.33,529.202 2277.37,529.183 2279.4,529.17 2281.44,529.162 2283.48,529.158 2285.52,529.155 2287.55,529.155 2289.59,529.156 2291.63,529.159 "/>
<polyline clip-path="url(#clip523)" style="stroke:#c271d2; stroke-linecap:round; stroke-linejoin:round; stroke-width:8; stroke-opacity:1; fill:none" points="254.067,93.7507 256.105,169.303 258.143,247.506 260.18,327.472 262.218,408.203 264.255,488.599 266.293,567.482 268.33,643.62 270.368,715.762 272.406,782.671 274.443,843.165 276.481,896.173 278.518,940.772 280.556,976.229 282.593,1002.06 284.631,1018.03 286.668,1024.22 288.706,1020.99 290.744,1008.96 292.781,989.052 294.819,962.363 296.856,930.142 298.894,893.723 300.931,854.492 302.969,813.785 305.007,772.839 307.044,732.763 309.082,694.527 311.119,658.943 313.157,626.627 315.194,598.055 317.232,573.572 319.269,553.396 321.307,537.624 323.345,526.285 325.382,519.338 327.42,516.695 329.457,518.22 331.495,523.731 333.532,533.001 335.57,545.772 337.608,561.753 339.645,580.592 341.683,601.878 343.72,625.136 345.758,649.832 347.795,675.371 349.833,701.124 351.87,726.331 353.908,750.192 355.946,771.916 357.983,790.722 360.021,805.843 362.058,816.521 364.096,822.077 366.133,821.999 368.171,815.858 370.208,803.446 372.246,784.78 374.284,760.099 376.321,729.866 378.359,694.748 380.396,655.558 382.434,613.259 384.471,568.825 386.509,523.228 388.547,477.438 390.584,432.427 392.622,389.106 394.659,348.069 396.697,309.788 398.734,274.616 400.772,242.777 402.809,214.37 404.847,189.363 406.885,167.629 408.922,149.002 410.96,133.265 412.997,120.208 415.035,109.633 417.072,101.354 419.11,95.1976 421.148,91.0001 423.185,88.6149 425.223,87.9763 427.26,89.0827 429.298,91.9455 431.335,96.5873 433.373,103.043 435.41,111.357 437.448,121.588 439.486,133.805 441.523,148.061 443.561,164.325 445.598,182.66 447.636,203.081 449.673,225.526 451.711,249.861 453.749,275.877 455.786,303.292 457.824,331.748 459.861,360.817 461.899,390.038 463.936,419.042 465.974,447.296 468.011,474.283 470.049,499.525 472.087,522.578 474.124,543.037 476.162,560.534 478.199,574.738 480.237,585.424 482.274,592.563 484.312,596.193 486.349,596.427 488.387,593.448 490.425,587.513 492.462,578.951 494.5,568.162 496.537,555.621 498.575,541.875 500.612,527.452 502.65,512.729 504.688,498.105 506.725,483.926 508.763,470.493 510.8,458.053 512.838,446.805 514.875,436.898 516.913,428.432 518.95,421.456 520.988,415.977 523.026,411.984 525.063,409.446 527.101,408.314 529.138,408.524 531.176,409.992 533.213,412.618 535.251,416.283 537.289,420.852 539.326,426.171 541.364,432.077 543.401,438.4 545.439,444.959 547.476,451.565 549.514,458.022 551.551,464.129 553.589,469.674 555.627,474.44 557.664,478.202 559.702,480.727 561.739,481.866 563.777,481.549 565.814,479.651 567.852,476.106 569.89,470.902 571.927,464.085 573.965,455.756 576.002,446.076 578.04,435.259 580.077,423.579 582.115,411.365 584.152,398.963 586.19,386.558 588.228,374.381 590.265,362.649 592.303,351.548 594.34,341.23 596.378,331.815 598.415,323.391 600.453,316.014 602.491,309.707 604.528,304.447 606.566,300.142 608.603,296.698 610.641,294.025 612.678,292.03 614.716,290.618 616.753,289.693 618.791,289.157 620.829,288.911 622.866,288.855 624.904,288.885 626.941,288.903 628.979,288.864 631.016,288.745 633.054,288.533 635.091,288.22 637.129,287.811 639.167,287.317 641.204,286.757 643.242,286.163 645.279,285.571 647.317,285.029 649.354,284.566 651.392,284.175 653.43,283.983 655.467,284.11 657.505,284.659 659.542,285.712 661.58,287.333 663.617,289.566 665.655,292.436 667.692,295.948 669.73,300.089 671.768,304.825 673.805,310.104 675.843,315.855 677.88,321.974 679.918,328.361 681.955,334.919 683.993,341.555 686.031,348.179 688.068,354.705 690.106,361.049 692.143,367.13 694.181,372.874 696.218,378.196 698.256,383.055 700.293,387.468 702.331,391.453 704.369,395.027 706.406,398.211 708.444,401.023 710.481,403.483 712.519,405.612 714.556,407.431 716.594,408.962 718.632,410.226 720.669,411.247 722.707,412.047 724.744,412.64 726.782,413.025 728.819,413.192 730.857,413.13 732.894,412.82 734.932,412.241 736.97,411.365 739.007,410.16 741.045,408.589 743.082,406.609 745.12,404.173 747.157,401.232 749.195,397.778 751.233,393.797 753.27,389.269 755.308,384.198 757.345,378.605 759.383,372.537 761.42,366.058 763.458,359.255 765.495,352.236 767.533,345.13 769.571,338.088 771.608,331.279 773.646,324.897 775.683,319.155 777.721,314.217 779.758,309.966 781.796,306.439 783.833,303.677 785.871,301.704 787.909,300.52 789.946,300.106 791.984,300.424 794.021,301.412 796.059,302.99 798.096,305.057 800.134,307.485 802.172,310.173 804.209,313.043 806.247,316.019 808.284,319.027 810.322,322 812.359,324.875 814.397,327.592 816.434,330.096 818.472,332.334 820.51,334.262 822.547,335.834 824.585,337.032 826.622,337.875 828.66,338.375 830.697,338.545 832.735,338.401 834.773,337.963 836.81,337.252 838.848,336.294 840.885,335.117 842.923,333.753 844.96,332.235 846.998,330.601 849.035,328.853 851.073,326.98 853.111,325.098 855.148,323.315 857.186,321.722 859.223,320.399 861.261,319.411 863.298,318.808 865.336,318.625 867.374,318.885 869.411,319.596 871.449,320.751 873.486,322.328 875.524,324.3 877.561,326.639 879.599,329.303 881.636,332.244 883.674,335.408 885.712,338.739 887.749,342.174 889.787,345.647 891.824,349.086 893.862,352.418 895.899,355.564 897.937,358.491 899.975,361.181 902.012,363.62 904.05,365.8 906.087,367.716 908.125,369.37 910.162,370.766 912.2,371.914 914.237,372.829 916.275,373.53 918.313,374.04 920.35,374.389 922.388,374.611 924.425,374.738 926.463,374.799 928.5,374.817 930.538,374.813 932.575,374.802 934.613,374.798 936.651,374.808 938.688,374.836 940.726,374.884 942.763,374.948 944.801,375.016 946.838,375.003 948.876,374.902 950.914,374.743 952.951,374.549 954.989,374.332 957.026,374.099 959.064,373.845 961.101,373.559 963.139,373.22 965.176,372.8 967.214,372.262 969.252,371.56 971.289,370.639 973.327,369.518 975.364,368.244 977.402,366.829 979.439,365.285 981.477,363.633 983.515,361.895 985.552,360.098 987.59,358.274 989.627,356.458 991.665,354.691 993.702,353.012 995.74,351.416 997.777,349.911 999.815,348.512 1001.85,347.231 1003.89,346.075 1005.93,345.047 1007.97,344.147 1010,343.37 1012.04,342.708 1014.08,342.149 1016.12,341.677 1018.15,341.273 1020.19,340.929 1022.23,340.636 1024.27,340.39 1026.3,340.186 1028.34,340.021 1030.38,339.895 1032.42,339.808 1034.45,339.761 1036.49,339.76 1038.53,339.807 1040.57,339.911 1042.6,340.079 1044.64,340.28 1046.68,340.472 1048.72,340.719 1050.75,341.08 1052.79,341.596 1054.83,342.296 1056.87,343.196 1058.9,344.297 1060.94,345.588 1062.98,347.042 1065.02,348.62 1067.05,350.269 1069.09,351.926 1071.13,353.601 1073.17,355.293 1075.2,356.973 1077.24,358.616 1079.28,360.197 1081.32,361.693 1083.36,363.081 1085.39,364.341 1087.43,365.455 1089.47,366.403 1091.51,367.171 1093.54,367.74 1095.58,368.111 1097.62,368.293 1099.66,368.297 1101.69,368.139 1103.73,367.834 1105.77,367.403 1107.81,366.867 1109.84,366.251 1111.88,365.582 1113.92,364.89 1115.96,364.197 1117.99,363.502 1120.03,362.825 1122.07,362.185 1124.11,361.601 1126.14,361.086 1128.18,360.651 1130.22,360.304 1132.26,360.049 1134.29,359.888 1136.33,359.82 1138.37,359.839 1140.41,359.938 1142.44,360.104 1144.48,360.309 1146.52,360.507 1148.56,360.725 1150.59,360.987 1152.63,361.306 1154.67,361.688 1156.71,362.128 1158.74,362.613 1160.78,363.12 1162.82,363.617 1164.86,364.064 1166.9,364.41 1168.93,364.608 1170.97,364.688 1173.01,364.647 1175.05,364.481 1177.08,364.185 1179.12,363.763 1181.16,363.221 1183.2,362.572 1185.23,361.831 1187.27,361.019 1189.31,360.163 1191.35,359.291 1193.38,358.428 1195.42,357.555 1197.46,356.685 1199.5,355.833 1201.53,355.011 1203.57,354.229 1205.61,353.499 1207.65,352.828 1209.68,352.224 1211.72,351.69 1213.76,351.232 1215.8,350.846 1217.83,350.505 1219.87,350.206 1221.91,349.953 1223.95,349.747 1225.98,349.586 1228.02,349.469 1230.06,349.393 1232.1,349.351 1234.13,349.339 1236.17,349.348 1238.21,349.369 1240.25,349.391 1242.28,349.402 1244.32,349.361 1246.36,349.277 1248.4,349.186 1250.44,349.114 1252.47,349.083 1254.51,349.105 1256.55,349.189 1258.59,349.331 1260.62,349.526 1262.66,349.759 1264.7,350.006 1266.74,350.24 1268.77,350.452 1270.81,350.664 1272.85,350.89 1274.89,351.139 1276.92,351.417 1278.96,351.732 1281,352.086 1283.04,352.48 1285.07,352.915 1287.11,353.388 1289.15,353.894 1291.19,354.427 1293.22,354.97 1295.26,355.496 1297.3,355.994 1299.34,356.457 1301.37,356.88 1303.41,357.258 1305.45,357.591 1307.49,357.879 1309.52,358.124 1311.56,358.331 1313.6,358.507 1315.64,358.636 1317.67,358.706 1319.71,358.738 1321.75,358.746 1323.79,358.745 1325.82,358.744 1327.86,358.751 1329.9,358.769 1331.94,358.8 1333.98,358.841 1336.01,358.887 1338.05,358.93 1340.09,358.958 1342.13,358.953 1344.16,358.898 1346.2,358.813 1348.24,358.717 1350.28,358.625 1352.31,358.543 1354.35,358.476 1356.39,358.421 1358.43,358.369 1360.46,358.308 1362.5,358.218 1364.54,358.075 1366.58,357.85 1368.61,357.538 1370.65,357.155 1372.69,356.716 1374.73,356.235 1376.76,355.727 1378.8,355.207 1380.84,354.689 1382.88,354.188 1384.91,353.717 1386.95,353.292 1388.99,352.928 1391.03,352.637 1393.06,352.427 1395.1,352.264 1397.14,352.141 1399.18,352.056 1401.21,352.006 1403.25,351.991 1405.29,352.007 1407.33,352.054 1409.36,352.13 1411.4,352.234 1413.44,352.365 1415.48,352.498 1417.52,352.609 1419.55,352.709 1421.59,352.807 1423.63,352.909 1425.67,353.02 1427.7,353.14 1429.74,353.269 1431.78,353.402 1433.82,353.533 1435.85,353.654 1437.89,353.751 1439.93,353.812 1441.97,353.819 1444,353.773 1446.04,353.694 1448.08,353.602 1450.12,353.509 1452.15,353.426 1454.19,353.358 1456.23,353.307 1458.27,353.27 1460.3,353.241 1462.34,353.208 1464.38,353.158 1466.42,353.07 1468.45,352.924 1470.49,352.74 1472.53,352.541 1474.57,352.347 1476.6,352.174 1478.64,352.039 1480.68,351.954 1482.72,351.929 1484.75,351.971 1486.79,352.087 1488.83,352.278 1490.87,352.546 1492.9,352.887 1494.94,353.267 1496.98,353.657 1499.02,354.045 1501.06,354.424 1503.09,354.787 1505.13,355.128 1507.17,355.445 1509.21,355.735 1511.24,355.999 1513.28,356.239 1515.32,356.445 1517.36,356.586 1519.39,356.678 1521.43,356.739 1523.47,356.783 1525.51,356.82 1527.54,356.86 1529.58,356.907 1531.62,356.963 1533.66,357.025 1535.69,357.089 1537.73,357.147 1539.77,357.188 1541.81,357.197 1543.84,357.17 1545.88,357.124 1547.92,357.075 1549.96,357.036 1551.99,357.013 1554.03,357.013 1556.07,357.034 1558.11,357.073 1560.14,357.122 1562.18,357.169 1564.22,357.2 1566.26,357.194 1568.29,357.118 1570.33,356.967 1572.37,356.756 1574.41,356.501 1576.44,356.218 1578.48,355.921 1580.52,355.622 1582.56,355.336 1584.6,355.074 1586.63,354.847 1588.67,354.666 1590.71,354.542 1592.75,354.483 1594.78,354.496 1596.82,354.538 1598.86,354.583 1600.9,354.626 1602.93,354.664 1604.97,354.695 1607.01,354.72 1609.05,354.738 1611.08,354.752 1613.12,354.766 1615.16,354.784 1617.2,354.791 1619.23,354.76 1621.27,354.707 1623.31,354.647 1625.35,354.592 1627.38,354.552 1629.42,354.531 1631.46,354.533 1633.5,354.556 1635.53,354.596 1637.57,354.646 1639.61,354.696 1641.65,354.73 1643.68,354.733 1645.72,354.702 1647.76,354.656 1649.8,354.611 1651.83,354.579 1653.87,354.568 1655.91,354.584 1657.95,354.627 1659.98,354.696 1662.02,354.783 1664.06,354.879 1666.1,354.97 1668.14,355.038 1670.17,355.049 1672.21,355 1674.25,354.908 1676.29,354.791 1678.32,354.662 1680.36,354.538 1682.4,354.429 1684.44,354.348 1686.47,354.304 1688.51,354.306 1690.55,354.361 1692.59,354.476 1694.62,354.654 1696.66,354.899 1698.7,355.163 1700.74,355.414 1702.77,355.645 1704.81,355.852 1706.85,356.03 1708.89,356.178 1710.92,356.297 1712.96,356.388 1715,356.457 1717.04,356.51 1719.07,356.536 1721.11,356.507 1723.15,356.442 1725.19,356.36 1727.22,356.276 1729.26,356.201 1731.3,356.143 1733.34,356.107 1735.37,356.094 1737.41,356.102 1739.45,356.124 1741.49,356.152 1743.52,356.173 1745.56,356.171 1747.6,356.138 1749.64,356.093 1751.68,356.051 1753.71,356.025 1755.75,356.023 1757.79,356.05 1759.83,356.106 1761.86,356.187 1763.9,356.286 1765.94,356.392 1767.98,356.488 1770.01,356.555 1772.05,356.562 1774.09,356.499 1776.13,356.379 1778.16,356.218 1780.2,356.029 1782.24,355.824 1784.28,355.617 1786.31,355.419 1788.35,355.241 1790.39,355.094 1792.43,354.988 1794.46,354.932 1796.5,354.936 1798.54,355.007 1800.58,355.107 1802.61,355.201 1804.65,355.283 1806.69,355.352 1808.73,355.405 1810.76,355.441 1812.8,355.463 1814.84,355.473 1816.88,355.474 1818.91,355.474 1820.95,355.466 1822.99,355.417 1825.03,355.341 1827.07,355.254 1829.1,355.172 1831.14,355.103 1833.18,355.055 1835.22,355.032 1837.25,355.033 1839.29,355.055 1841.33,355.092 1843.37,355.134 1845.4,355.168 1847.44,355.177 1849.48,355.151 1851.52,355.105 1853.55,355.057 1855.59,355.02 1857.63,355.003 1859.67,355.014 1861.7,355.052 1863.74,355.117 1865.78,355.2 1867.82,355.292 1869.85,355.379 1871.89,355.442 1873.93,355.453 1875.97,355.398 1878,355.294 1880.04,355.157 1882.08,355.001 1884.12,354.839 1886.15,354.686 1888.19,354.551 1890.23,354.446 1892.27,354.38 1894.3,354.362 1896.34,354.4 1898.38,354.5 1900.42,354.668 1902.45,354.866 1904.49,355.058 1906.53,355.238 1908.57,355.4 1910.61,355.543 1912.64,355.664 1914.68,355.764 1916.72,355.845 1918.76,355.91 1920.79,355.964 1922.83,356.004 1924.87,355.995 1926.91,355.952 1928.94,355.892 1930.98,355.829 1933.02,355.776 1935.06,355.739 1937.09,355.723 1939.13,355.728 1941.17,355.753 1943.21,355.791 1945.24,355.833 1947.28,355.868 1949.32,355.878 1951.36,355.853 1953.39,355.807 1955.43,355.758 1957.47,355.719 1959.51,355.701 1961.54,355.708 1963.58,355.742 1965.62,355.8 1967.66,355.875 1969.69,355.956 1971.73,356.03 1973.77,356.075 1975.81,356.065 1977.84,355.986 1979.88,355.852 1981.92,355.679 1983.96,355.481 1985.99,355.272 1988.03,355.065 1990.07,354.871 1992.11,354.703 1994.15,354.57 1996.18,354.482 1998.22,354.448 2000.26,354.476 2002.3,354.574 2004.33,354.706 2006.37,354.836 2008.41,354.959 2010.45,355.072 2012.48,355.17 2014.52,355.253 2016.56,355.322 2018.6,355.378 2020.63,355.425 2022.67,355.467 2024.71,355.501 2026.75,355.491 2028.78,355.45 2030.82,355.396 2032.86,355.341 2034.9,355.296 2036.93,355.269 2038.97,355.263 2041.01,355.278 2043.05,355.311 2045.08,355.357 2047.12,355.406 2049.16,355.445 2051.2,355.459 2053.23,355.435 2055.27,355.389 2057.31,355.338 2059.35,355.296 2061.38,355.274 2063.42,355.276 2065.46,355.305 2067.5,355.358 2069.53,355.429 2071.57,355.507 2073.61,355.579 2075.65,355.625 2077.69,355.617 2079.72,355.542 2081.76,355.417 2083.8,355.257 2085.84,355.077 2087.87,354.89 2089.91,354.71 2091.95,354.549 2093.99,354.418 2096.02,354.326 2098.06,354.282 2100.1,354.294 2102.14,354.37 2104.17,354.515 2106.21,354.692 2108.25,354.866 2110.29,355.031 2112.32,355.183 2114.36,355.317 2116.4,355.433 2118.44,355.53 2120.47,355.611 2122.51,355.679 2124.55,355.738 2126.59,355.785 2128.62,355.783 2130.66,355.748 2132.7,355.697 2134.74,355.644 2136.77,355.599 2138.81,355.57 2140.85,355.562 2142.89,355.574 2144.92,355.605 2146.96,355.648 2149,355.694 2151.04,355.73 2153.07,355.741 2155.11,355.716 2157.15,355.67 2159.19,355.62 2161.23,355.581 2163.26,355.561 2165.3,355.567 2167.34,355.599 2169.38,355.656 2171.41,355.729 2173.45,355.81 2175.49,355.882 2177.53,355.928 2179.56,355.918 2181.6,355.84 2183.64,355.709 2185.68,355.541 2187.71,355.35 2189.75,355.151 2191.79,354.955 2193.83,354.775 2195.86,354.622 2197.9,354.506 2199.94,354.436 2201.98,354.421 2204.01,354.469 2206.05,354.585 2208.09,354.734 2210.13,354.88 2212.16,355.018 2214.2,355.143 2216.24,355.253 2218.28,355.346 2220.31,355.423 2222.35,355.485 2224.39,355.537 2226.43,355.582 2228.46,355.617 2230.5,355.606 2232.54,355.564 2234.58,355.507 2236.61,355.45 2238.65,355.402 2240.69,355.372 2242.73,355.363 2244.77,355.375 2246.8,355.405 2248.84,355.449 2250.88,355.495 2252.92,355.532 2254.95,355.543 2256.99,355.518 2259.03,355.471 2261.07,355.422 2263.1,355.383 2265.14,355.363 2267.18,355.369 2269.22,355.402 2271.25,355.46 2273.29,355.535 2275.33,355.618 2277.37,355.693 2279.4,355.743 2281.44,355.761 2283.48,355.77 2285.52,355.777 2287.55,355.78 2289.59,355.779 2291.63,355.767 "/>
<path clip-path="url(#clip520)" d="M264.934 939.343 L611.751 939.343 L611.751 95.2176 L264.934 95.2176  Z" fill="#ffffff" fill-rule="evenodd" fill-opacity="1"/>
<polyline clip-path="url(#clip520)" style="stroke:#000000; stroke-linecap:round; stroke-linejoin:round; stroke-width:4; stroke-opacity:1; fill:none" points="264.934,939.343 611.751,939.343 611.751,95.2176 264.934,95.2176 264.934,939.343 "/>
<polyline clip-path="url(#clip520)" style="stroke:#009af9; stroke-linecap:round; stroke-linejoin:round; stroke-width:15; stroke-opacity:1; fill:none" points="288.932,264.043 432.92,264.043 "/>
<path clip-path="url(#clip520)" d="M498.366 233.392 Q498.366 233.454 498.304 233.515 Q497.905 236.774 497.136 238.587 Q496.368 240.371 494.646 241.201 Q493.386 241.815 491.818 241.815 Q489.451 241.815 486.038 240.248 Q485.915 240.186 485.239 239.879 Q484.563 239.571 484.317 239.479 Q484.071 239.387 483.548 239.202 Q483.026 238.987 482.626 238.926 Q482.226 238.864 481.827 238.864 Q480.966 238.864 480.228 239.233 Q478.722 239.971 477.799 241.078 Q476.846 242.154 476.6 244.09 Q476.539 244.336 476.324 244.521 Q476.109 244.705 475.832 244.705 Q475.555 244.705 475.309 244.49 Q475.063 244.275 475.063 243.967 Q475.063 243.906 475.125 243.844 Q475.524 240.586 476.293 238.803 Q477.062 236.989 478.783 236.159 Q480.136 235.513 481.611 235.513 Q483.917 235.513 487.422 237.112 Q487.545 237.173 488.221 237.481 Q488.897 237.788 489.143 237.88 Q489.389 237.973 489.912 238.188 Q490.434 238.372 490.834 238.434 Q491.234 238.495 491.633 238.495 Q492.402 238.495 493.201 238.096 Q494.707 237.358 495.66 236.282 Q496.613 235.206 496.859 233.269 Q496.921 233.023 497.136 232.839 Q497.351 232.624 497.628 232.624 Q497.905 232.624 498.151 232.869 Q498.366 233.085 498.366 233.392 Z" fill="#000000" fill-rule="evenodd" fill-opacity="1" /><path clip-path="url(#clip520)" d="M502.713 260.189 Q502.713 262.648 501.176 264.054 Q499.639 265.415 497.883 265.415 Q496.214 265.415 495.335 264.449 Q494.457 263.483 494.457 262.253 Q494.457 260.584 495.687 259.135 Q496.916 257.686 498.761 257.378 Q496.96 256.236 494.281 256.236 Q492.525 256.236 490.988 257.159 Q489.494 258.081 488.572 259.267 Q487.694 260.452 486.903 262.165 Q486.157 263.834 485.849 264.844 Q485.586 265.81 485.366 266.864 L482.292 279.161 Q480.799 285.002 480.799 287.066 Q480.799 289.613 482.029 291.326 Q483.258 292.995 485.718 292.995 Q486.684 292.995 487.782 292.731 Q488.88 292.424 490.285 291.634 Q491.734 290.799 493.008 289.569 Q494.325 288.296 495.599 286.144 Q496.873 283.992 497.707 281.225 Q497.97 280.259 498.849 280.259 Q499.947 280.259 499.947 281.137 Q499.947 281.884 499.332 283.465 Q498.761 285.002 497.487 287.022 Q496.258 288.999 494.633 290.799 Q493.008 292.556 490.592 293.785 Q488.177 295.015 485.542 295.015 Q481.765 295.015 479.262 292.995 Q476.758 290.975 475.836 288.164 Q475.617 288.559 475.309 289.086 Q475.002 289.613 474.08 290.799 Q473.201 291.941 472.191 292.819 Q471.181 293.654 469.6 294.312 Q468.063 295.015 466.394 295.015 Q464.286 295.015 462.398 294.4 Q460.553 293.785 459.236 292.38 Q457.918 290.975 457.918 289.042 Q457.918 286.89 459.367 285.397 Q460.86 283.86 462.881 283.86 Q464.154 283.86 465.164 284.607 Q466.218 285.353 466.218 286.978 Q466.218 288.779 464.989 290.14 Q463.759 291.502 462.002 291.853 Q463.803 292.995 466.482 292.995 Q469.38 292.995 471.664 290.448 Q473.948 287.901 475.046 283.641 Q477.769 273.408 478.823 268.841 Q479.877 264.229 479.877 262.253 Q479.877 260.408 479.394 259.135 Q478.91 257.861 478.076 257.29 Q477.285 256.676 476.539 256.456 Q475.836 256.236 475.046 256.236 Q473.728 256.236 472.235 256.763 Q470.786 257.29 469.029 258.52 Q467.316 259.706 465.691 262.165 Q464.066 264.625 462.969 268.006 Q462.749 269.016 461.783 269.016 Q460.729 268.972 460.729 268.094 Q460.729 267.347 461.3 265.81 Q461.915 264.229 463.144 262.253 Q464.418 260.277 466.043 258.52 Q467.712 256.719 470.127 255.49 Q472.586 254.26 475.221 254.26 Q476.407 254.26 477.549 254.524 Q478.735 254.743 480.14 255.402 Q481.589 256.061 482.863 257.51 Q484.137 258.959 484.927 261.067 Q485.454 260.057 486.157 259.091 Q486.903 258.125 488.045 256.939 Q489.231 255.709 490.856 255.007 Q492.525 254.26 494.369 254.26 Q496.17 254.26 497.927 254.743 Q499.683 255.182 501.176 256.632 Q502.713 258.037 502.713 260.189 Z" fill="#000000" fill-rule="evenodd" fill-opacity="1" /><polyline clip-path="url(#clip520)" style="stroke:#e26f46; stroke-linecap:round; stroke-linejoin:round; stroke-width:15; stroke-opacity:1; fill:none" points="288.932,432.868 432.92,432.868 "/>
<path clip-path="url(#clip520)" d="M518.937 348.828 L505.982 400.825 Q505.455 403.153 505.455 405.129 Q505.455 409.257 508.134 409.257 Q509.451 409.257 510.505 408.423 Q511.559 407.589 512.394 405.832 Q513.228 404.075 513.755 402.45 Q514.282 400.781 514.985 398.146 Q515.204 397.092 515.38 396.829 Q515.6 396.522 516.214 396.522 Q517.312 396.522 517.312 397.4 Q516.127 403.065 514.589 406.315 Q512.13 411.278 507.958 411.278 Q504.796 411.278 502.556 409.345 Q500.316 407.413 499.789 404.514 Q494.036 411.278 488.064 411.278 Q482.793 411.278 479.456 407.281 Q476.118 403.241 476.118 396.873 Q476.118 390.461 479.28 384.313 Q482.486 378.164 487.536 374.343 Q492.587 370.523 497.769 370.523 Q503.259 370.523 506.07 376.276 L511.471 354.932 L511.735 353.175 Q511.735 352.648 511.515 352.385 Q511.34 352.077 510.286 351.858 Q509.275 351.638 507.255 351.638 Q506.421 351.638 506.026 351.594 Q505.674 351.55 505.367 351.331 Q505.059 351.067 505.059 350.54 Q505.059 349.003 506.333 348.828 Q514.765 347.861 517.751 347.861 Q518.278 347.861 518.586 348.125 Q518.893 348.344 518.893 348.608 L518.937 348.828 M504.972 380.404 Q504.972 380.009 504.664 378.911 Q504.357 377.813 503.654 376.276 Q502.951 374.739 501.414 373.641 Q499.921 372.499 497.901 372.499 Q495.178 372.499 492.323 374.826 Q489.513 377.154 487.449 381.107 Q485.868 384.269 484.155 390.9 Q482.486 397.532 482.486 400.825 Q482.486 402.846 482.925 404.646 Q483.408 406.403 484.77 407.852 Q486.131 409.257 488.239 409.257 Q493.377 409.257 498.428 402.889 Q499.394 401.792 499.614 401.352 Q499.877 400.869 500.229 399.552 L504.708 381.941 Q504.972 380.624 504.972 380.404 Z" fill="#000000" fill-rule="evenodd" fill-opacity="1" /><path clip-path="url(#clip520)" d="M563.845 349.655 Q563.845 349.716 563.783 349.778 Q563.384 353.036 562.615 354.85 Q561.846 356.633 560.125 357.463 Q558.864 358.078 557.297 358.078 Q554.929 358.078 551.517 356.51 Q551.394 356.449 550.718 356.141 Q550.042 355.834 549.796 355.741 Q549.55 355.649 549.027 355.465 Q548.504 355.25 548.105 355.188 Q547.705 355.127 547.305 355.127 Q546.445 355.127 545.707 355.496 Q544.201 356.233 543.278 357.34 Q542.325 358.416 542.079 360.353 Q542.018 360.599 541.803 360.783 Q541.587 360.968 541.311 360.968 Q541.034 360.968 540.788 360.752 Q540.542 360.537 540.542 360.23 Q540.542 360.168 540.604 360.107 Q541.003 356.848 541.772 355.065 Q542.54 353.251 544.262 352.421 Q545.615 351.776 547.09 351.776 Q549.396 351.776 552.901 353.374 Q553.023 353.436 553.7 353.743 Q554.376 354.051 554.622 354.143 Q554.868 354.235 555.391 354.45 Q555.913 354.635 556.313 354.696 Q556.713 354.758 557.112 354.758 Q557.881 354.758 558.68 354.358 Q560.186 353.62 561.139 352.544 Q562.092 351.468 562.338 349.532 Q562.4 349.286 562.615 349.101 Q562.83 348.886 563.107 348.886 Q563.384 348.886 563.629 349.132 Q563.845 349.347 563.845 349.655 Z" fill="#000000" fill-rule="evenodd" fill-opacity="1" /><path clip-path="url(#clip520)" d="M568.192 376.451 Q568.192 378.911 566.655 380.316 Q565.118 381.678 563.361 381.678 Q561.693 381.678 560.814 380.711 Q559.936 379.745 559.936 378.516 Q559.936 376.847 561.166 375.397 Q562.395 373.948 564.24 373.641 Q562.439 372.499 559.76 372.499 Q558.004 372.499 556.466 373.421 Q554.973 374.343 554.051 375.529 Q553.173 376.715 552.382 378.428 Q551.636 380.097 551.328 381.107 Q551.065 382.073 550.845 383.127 L547.771 395.424 Q546.278 401.265 546.278 403.329 Q546.278 405.876 547.507 407.589 Q548.737 409.257 551.196 409.257 Q552.163 409.257 553.261 408.994 Q554.358 408.687 555.764 407.896 Q557.213 407.062 558.487 405.832 Q559.804 404.558 561.078 402.406 Q562.351 400.254 563.186 397.488 Q563.449 396.522 564.328 396.522 Q565.426 396.522 565.426 397.4 Q565.426 398.146 564.811 399.727 Q564.24 401.265 562.966 403.285 Q561.737 405.261 560.112 407.062 Q558.487 408.818 556.071 410.048 Q553.656 411.278 551.021 411.278 Q547.244 411.278 544.741 409.257 Q542.237 407.237 541.315 404.427 Q541.096 404.822 540.788 405.349 Q540.481 405.876 539.558 407.062 Q538.68 408.203 537.67 409.082 Q536.66 409.916 535.079 410.575 Q533.542 411.278 531.873 411.278 Q529.765 411.278 527.876 410.663 Q526.032 410.048 524.714 408.643 Q523.397 407.237 523.397 405.305 Q523.397 403.153 524.846 401.66 Q526.339 400.123 528.36 400.123 Q529.633 400.123 530.643 400.869 Q531.697 401.616 531.697 403.241 Q531.697 405.041 530.468 406.403 Q529.238 407.764 527.481 408.116 Q529.282 409.257 531.961 409.257 Q534.859 409.257 537.143 406.71 Q539.427 404.163 540.525 399.903 Q543.247 389.67 544.301 385.103 Q545.355 380.492 545.355 378.516 Q545.355 376.671 544.872 375.397 Q544.389 374.124 543.555 373.553 Q542.764 372.938 542.018 372.718 Q541.315 372.499 540.525 372.499 Q539.207 372.499 537.714 373.026 Q536.265 373.553 534.508 374.783 Q532.795 375.968 531.17 378.428 Q529.545 380.887 528.447 384.269 Q528.228 385.279 527.262 385.279 Q526.208 385.235 526.208 384.356 Q526.208 383.61 526.779 382.073 Q527.393 380.492 528.623 378.516 Q529.897 376.539 531.522 374.783 Q533.19 372.982 535.606 371.752 Q538.065 370.523 540.7 370.523 Q541.886 370.523 543.028 370.786 Q544.214 371.006 545.619 371.664 Q547.068 372.323 548.342 373.772 Q549.615 375.222 550.406 377.33 Q550.933 376.32 551.636 375.353 Q552.382 374.387 553.524 373.202 Q554.71 371.972 556.335 371.269 Q558.004 370.523 559.848 370.523 Q561.649 370.523 563.405 371.006 Q565.162 371.445 566.655 372.894 Q568.192 374.299 568.192 376.451 Z" fill="#000000" fill-rule="evenodd" fill-opacity="1" /><path clip-path="url(#clip520)" d="M476.118 435.268 L578.153 435.268 L578.153 430.468 L476.118 430.468  Z" fill="#000000" fill-rule="evenodd" fill-opacity="1"/>
<path clip-path="url(#clip520)" d="M528.937 454.84 L515.982 506.838 Q515.455 509.165 515.455 511.142 Q515.455 515.27 518.134 515.27 Q519.451 515.27 520.505 514.436 Q521.559 513.601 522.394 511.844 Q523.228 510.088 523.755 508.463 Q524.282 506.794 524.985 504.159 Q525.204 503.105 525.38 502.841 Q525.6 502.534 526.214 502.534 Q527.312 502.534 527.312 503.412 Q526.127 509.078 524.589 512.328 Q522.13 517.29 517.958 517.29 Q514.796 517.29 512.556 515.358 Q510.316 513.425 509.789 510.527 Q504.036 517.29 498.064 517.29 Q492.793 517.29 489.456 513.294 Q486.118 509.253 486.118 502.885 Q486.118 496.473 489.28 490.325 Q492.486 484.177 497.536 480.356 Q502.587 476.535 507.769 476.535 Q513.259 476.535 516.07 482.288 L521.471 460.945 L521.735 459.188 Q521.735 458.661 521.515 458.397 Q521.34 458.09 520.286 457.87 Q519.275 457.651 517.255 457.651 Q516.421 457.651 516.026 457.607 Q515.674 457.563 515.367 457.343 Q515.059 457.08 515.059 456.553 Q515.059 455.016 516.333 454.84 Q524.765 453.874 527.751 453.874 Q528.278 453.874 528.586 454.137 Q528.893 454.357 528.893 454.62 L528.937 454.84 M514.972 486.416 Q514.972 486.021 514.664 484.923 Q514.357 483.825 513.654 482.288 Q512.951 480.751 511.414 479.653 Q509.921 478.511 507.901 478.511 Q505.178 478.511 502.323 480.839 Q499.513 483.167 497.449 487.119 Q495.868 490.281 494.155 496.913 Q492.486 503.544 492.486 506.838 Q492.486 508.858 492.925 510.659 Q493.408 512.415 494.77 513.865 Q496.131 515.27 498.239 515.27 Q503.377 515.27 508.428 508.902 Q509.394 507.804 509.614 507.365 Q509.877 506.882 510.229 505.564 L514.708 487.954 Q514.972 486.636 514.972 486.416 Z" fill="#000000" fill-rule="evenodd" fill-opacity="1" /><path clip-path="url(#clip520)" d="M558.581 478.511 Q558.581 479.741 558.01 480.048 Q557.439 480.312 555.858 480.312 L547.426 480.312 L540.75 506.838 Q540.223 509.165 540.223 511.142 Q540.223 513.338 540.882 514.304 Q541.585 515.27 543.034 515.27 Q545.889 515.27 548.963 512.679 Q552.081 510.088 554.716 503.764 Q555.067 502.929 555.243 502.754 Q555.463 502.534 556.034 502.534 Q557.132 502.534 557.132 503.412 Q557.132 503.72 556.517 505.125 Q555.946 506.53 554.672 508.595 Q553.442 510.659 551.818 512.591 Q550.237 514.523 547.821 515.929 Q545.406 517.29 542.815 517.29 Q539.169 517.29 536.842 514.963 Q534.558 512.635 534.558 508.99 Q534.558 507.804 535.48 504.027 Q536.403 500.206 541.409 480.312 L533.46 480.312 Q532.362 480.312 531.923 480.268 Q531.528 480.224 531.22 480.005 Q530.957 479.741 530.957 479.214 Q530.957 478.38 531.308 478.028 Q531.66 477.633 532.099 477.589 Q532.582 477.501 533.68 477.501 L542.112 477.501 L545.625 463.228 Q545.977 461.823 546.855 461.032 Q547.777 460.198 548.304 460.11 Q548.831 459.978 549.226 459.978 Q550.412 459.978 551.115 460.637 Q551.818 461.252 551.818 462.394 Q551.818 463.009 548.129 477.501 L556.034 477.501 Q557.044 477.501 557.439 477.545 Q557.878 477.589 558.229 477.809 Q558.581 478.028 558.581 478.511 Z" fill="#000000" fill-rule="evenodd" fill-opacity="1" /><polyline clip-path="url(#clip520)" style="stroke:#3da44d; stroke-linecap:round; stroke-linejoin:round; stroke-width:15; stroke-opacity:1; fill:none" points="288.932,601.693 432.92,601.693 "/>
<path clip-path="url(#clip520)" d="M497.395 568.454 L496.626 569.714 Q491.861 567.654 485.928 564.365 Q479.995 567.654 475.23 569.714 L474.492 568.454 Q479.687 563.935 485.928 560.461 Q492.23 563.965 497.395 568.454 Z" fill="#000000" fill-rule="evenodd" fill-opacity="1" /><path clip-path="url(#clip520)" d="M496.032 616.098 Q496.032 622.422 492.826 628.614 Q489.664 634.762 484.569 638.627 Q479.519 642.492 474.336 642.492 Q469.286 642.492 466.08 638.627 Q462.918 634.718 462.918 628.35 Q462.918 626.111 463.182 624.53 Q463.445 622.949 464.367 619.26 L471.745 589.923 Q473.019 584.433 473.019 584.389 Q473.019 583.862 472.799 583.599 Q472.624 583.291 471.57 583.072 Q470.516 582.852 468.496 582.852 Q467.661 582.852 467.266 582.808 Q466.915 582.764 466.607 582.545 Q466.344 582.281 466.344 581.754 Q466.344 581.008 466.651 580.613 Q467.002 580.173 467.266 580.086 Q467.529 579.998 468.056 579.954 Q468.803 579.91 471.306 579.69 Q473.809 579.427 475.961 579.251 Q478.113 579.075 479.036 579.075 Q479.563 579.075 479.826 579.339 Q480.134 579.559 480.134 579.822 L480.177 580.042 L473.546 607.138 Q478.772 601.737 484.086 601.737 Q489.4 601.737 492.694 605.821 Q496.032 609.905 496.032 616.098 M489.532 612.145 Q489.532 607.973 487.951 605.865 Q486.414 603.713 483.867 603.713 Q481.715 603.713 478.904 605.338 Q476.093 606.963 473.107 610.915 Q472.536 611.662 472.316 612.101 Q472.141 612.54 471.745 614.033 L469.769 622.334 Q468.32 627.999 468.32 631.425 Q468.32 636.08 470.033 638.276 Q471.745 640.472 474.336 640.472 Q477.059 640.472 479.914 638.056 Q482.769 635.641 484.964 631.249 Q486.326 628.35 487.907 622.114 Q489.532 615.834 489.532 612.145 Z" fill="#000000" fill-rule="evenodd" fill-opacity="1" /><polyline clip-path="url(#clip520)" style="stroke:#c271d2; stroke-linecap:round; stroke-linejoin:round; stroke-width:15; stroke-opacity:1; fill:none" points="288.932,770.518 432.92,770.518 "/>
<path clip-path="url(#clip520)" d="M511.395 748.505 L510.626 749.766 Q505.861 747.706 499.928 744.417 Q493.995 747.706 489.23 749.766 L488.492 748.505 Q493.687 743.986 499.928 740.512 Q506.23 744.017 511.395 748.505 Z" fill="#000000" fill-rule="evenodd" fill-opacity="1" /><path clip-path="url(#clip520)" d="M530.611 786.212 Q530.611 786.564 530.216 787.925 Q529.82 789.287 528.854 791.395 Q527.932 793.503 526.614 795.435 Q525.341 797.323 523.233 798.729 Q521.169 800.09 518.797 800.09 Q515.635 800.09 513.527 797.982 Q511.419 795.874 511.419 792.712 Q511.419 790.999 512.605 787.749 Q518.182 772.905 518.182 767.592 Q518.182 761.311 513.308 761.311 Q510.541 761.311 508.038 762.453 Q505.534 763.595 503.909 765.176 Q502.284 766.757 501.011 768.558 Q499.737 770.358 499.166 771.544 Q498.639 772.73 498.508 773.257 L493.106 794.952 Q492.667 796.796 492.359 797.675 Q492.052 798.553 491.217 799.3 Q490.383 800.09 489.065 800.09 Q487.967 800.09 487.177 799.431 Q486.43 798.773 486.43 797.631 Q486.43 797.455 486.65 796.533 Q486.87 795.611 487.177 794.337 Q487.484 793.063 487.616 792.317 Q489.197 786.344 489.417 785.51 L491.92 775.057 Q493.281 769.875 493.281 767.592 Q493.281 761.311 488.407 761.311 Q485.991 761.311 483.707 762.234 Q481.468 763.112 479.931 764.342 Q478.394 765.571 476.988 767.284 Q475.627 768.953 474.924 770.095 Q474.265 771.193 473.738 772.291 L472.596 776.77 Q472.333 778 471.059 782.787 L469.083 790.911 Q467.678 796.972 467.37 797.543 Q466.931 798.773 465.965 799.431 Q464.999 800.09 464.033 800.09 Q462.935 800.09 462.188 799.431 Q461.442 798.773 461.442 797.631 Q461.442 797.455 461.573 796.796 Q461.705 796.138 461.925 795.215 Q462.144 794.293 462.232 793.766 L467.458 772.993 Q468.424 769.216 468.644 768.031 Q468.907 766.801 468.907 765.44 Q468.907 761.311 466.097 761.311 Q463.813 761.311 462.32 764.034 Q460.827 766.757 459.553 772.027 Q459.158 773.476 458.894 773.784 Q458.675 774.091 458.016 774.091 Q456.918 774.047 456.918 773.169 Q456.918 772.949 457.269 771.544 Q457.621 770.139 458.279 768.031 Q458.982 765.879 459.729 764.473 Q460.168 763.551 460.563 762.936 Q460.958 762.321 461.749 761.355 Q462.539 760.389 463.725 759.862 Q464.911 759.335 466.36 759.335 Q469.566 759.335 471.938 761.399 Q474.353 763.463 474.661 767.152 Q480.502 759.335 488.67 759.335 Q493.281 759.335 496.048 761.663 Q498.639 763.902 498.947 768.031 Q505.007 759.335 513.615 759.335 Q518.578 759.335 521.257 761.926 Q523.936 764.473 523.936 768.953 Q523.936 771.281 522.75 775.716 Q521.564 780.108 520.773 782.304 Q519.983 784.5 518.446 788.716 Q516.821 792.756 516.821 795.128 Q516.821 796.665 517.348 797.367 Q517.875 798.07 519.017 798.07 Q520.773 798.07 522.311 797.06 Q523.848 796.006 524.946 794.293 Q526.087 792.536 526.834 790.78 Q527.581 788.979 528.152 786.959 Q528.503 785.861 528.679 785.598 Q528.898 785.334 529.513 785.334 Q530.611 785.334 530.611 786.212 Z" fill="#000000" fill-rule="evenodd" fill-opacity="1" /></svg>
